<mxfile host="Electron" modified="2024-05-24T18:24:07.397Z" agent="Mozilla/5.0 (Windows NT 10.0; Win64; x64) AppleWebKit/537.36 (KHTML, like Gecko) draw.io/24.4.6 Chrome/124.0.6367.207 Electron/30.0.6 Safari/537.36" etag="1EXXJg878rkSWynnpYfl" version="24.4.6" type="device">
  <diagram name="Seite-1" id="2joXRrN46v_4Q47Hp_n7">
    <mxGraphModel dx="1481" dy="854" grid="1" gridSize="10" guides="1" tooltips="1" connect="1" arrows="1" fold="1" page="1" pageScale="1" pageWidth="827" pageHeight="1169" math="1" shadow="0">
      <root>
        <mxCell id="0" />
        <mxCell id="1" parent="0" />
        <mxCell id="ALjWZbbhzKY--q304IBm-1" value="" style="shape=image;verticalLabelPosition=bottom;labelBackgroundColor=default;verticalAlign=top;aspect=fixed;imageAspect=0;image=data:image/png,iVBORw0KGgoAAAANSUhEUgAADbAAAAmuCAYAAADIZ49hAAAAAXNSR0IArs4c6QAAAARnQU1BAACxjwv8YQUAAAAJcEhZcwAADsMAAA7DAcdvqGQAAP+lSURBVHhe7NsxAQAgDMAwwL/n8SCBfslTFd0zswAAAAAAAAAAAAAAAADgt/MKAAAAAAAAAAAAAAAAAF8Z2AAAAAAAAAAAAAAAAABIGNgAAAAAAAAAAAAAAAAASBjYAAAAAAAAAAAAAAAAAEgY2AAAAAAAAAAAAAAAAABIGNgAAAAAAAAAAAAAAAAASBjYAAAAAAAAAAAAAAAAAEgY2AAAAAAAAAAAAAAAAABIGNgAAAAAAAAAAAAAAAAASBjYAAAAAAAAAAAAAAAAAEgY2AAAAAAAAAAAAAAAAABIGNgAAAAAAAAAAAAAAAAASBjYAAAAAAAAAAAAAAAAAEgY2AAAAAAAAAAAAAAAAABIGNgAAAAAAAAAAAAAAAAASBjYAAAAAAAAAAAAAAAAAEgY2AAAAAAAAAAAAAAAAABIGNgAAAAAAAAAAAAAAAAASBjYAAAAAAAAAAAAAAAAAEgY2AAAAAAAAAAAAAAAAABIGNgAAAAAAAAAAAAAAAAASBjYAAAAAAAAAAAAAAAAAEgY2AAAAAAAAAAAAAAAAABIGNgAAAAAAAAAAAAAAAAASBjYAAAAAAAAAAAAAAAAAEgY2AAAAAAAAAAAAAAAAABIGNgAAAAAAAAAAAAAAAAASBjYAAAAAAAAAAAAAAAAAEgY2AAAAAAAAAAAAAAAAABIGNgAAAAAAAAAAAAAAAAASBjYAAAAAAAAAAAAAAAAAEgY2AAAAAAAAAAAAAAAAABIGNgAAAAAAAAAAAAAAAAASBjYAAAAAAAAAAAAAAAAAEgY2AAAAAAAAAAAAAAAAABIGNgAAAAAAAAAAAAAAAAASBjYAAAAAAAAAAAAAAAAAEgY2AAAAAAAAAAAAAAAAABIGNgAAAAAAAAAAAAAAAAASBjYAAAAAAAAAAAAAAAAAEgY2AAAAAAAAAAAAAAAAABIGNgAAAAAAAAAAAAAAAAASBjYAAAAAAAAAAAAAAAAAEgY2AAAAAAAAAAAAAAAAABIGNgAAAAAAAAAAAAAAAAASBjYAAAAAAAAAAAAAAAAAEgY2AAAAAAAAAAAAAAAAABIGNgAAAAAAAAAAAAAAAAASBjYAAAAAAAAAAAAAAAAAEgY2AAAAAAAAAAAAAAAAABIGNgAAAAAAAAAAAAAAAAASBjYAAAAAAAAAAAAAAAAAEgY2AAAAAAAAAAAAAAAAABIGNgAAAAAAAAAAAAAAAAASBjYAAAAAAAAAAAAAAAAAEgY2AAAAAAAAAAAAAAAAABIGNgAAAAAAAAAAAAAAAAASBjYAAAAAAAAAAAAAAAAAEgY2AAAAAAAAAAAAAAAAABIGNgAAAAAAAAAAAAAAAAASBjYAAAAAAAAAAAAAAAAAEgY2AAAAAAAAAAAAAAAAABIGNgAAAAAAAAAAAAAAAAASBjYAAAAAAAAAAAAAAAAAEgY2AAAAAAAAAAAAAAAAABIGNgAAAAAAAAAAAAAAAAASBjYAAAAAAAAAAAAAAAAAEgY2AAAAAAAAAAAAAAAAABIGNgAAAAAAAAAAAAAAAAASBjYAAAAAAAAAAAAAAAAAEgY2AAAAAAAAAAAAAAAAABIGNgAAAAAAAAAAAAAAAAASBjYAAAAAAAAAAAAAAAAAEgY2AAAAAAAAAAAAAAAAABIGNgAAAAAAAAAAAAAAAAASBjYAAAAAAAAAAAAAAAAAEgY2AAAAAAAAAAAAAAAAABIGNgAAAAAAAAAAAAAAAAASBjYAAAAAAAAAAAAAAAAAEgY2AAAAAAAAAAAAAAAAABIGNgAAAAAAAAAAAAAAAAASBjYAAAAAAAAAAAAAAAAAEgY2AAAAAAAAAAAAAAAAABIGNgAAAAAAAAAAAAAAAAASBjYAAAAAAAAAAAAAAAAAEgY2AAAAAAAAAAAAAAAAABIGNgAAAAAAAAAAAAAAAAASBjYAAAAAAAAAAAAAAAAAEgY2AAAAAAAAAAAAAAAAABIGNgAAAAAAAAAAAAAAAAASBjYAAAAAAAAAAAAAAAAAEgY2AAAAAAAAAAAAAAAAABIGNgAAAAAAAAAAAAAAAAASBjYAAAAAAAAAAAAAAAAAEgY2AAAAAAAAAAAAAAAAABIGNgAAAAAAAAAAAAAAAAASBjYAAAAAAAAAAAAAAAAAEgY2AAAAAAAAAAAAAAAAABIGNgAAAAAAAAAAAAAAAAASBjYAAAAAAAAAAAAAAAAAEgY2AAAAAAAAAAAAAAAAABIGNgAAAAAAAAAAAAAAAAASBjYAAAAAAAAAAAAAAAAAEgY2AAAAAAAAAAAAAAAAABIGNgAAAAAAAAAAAAAAAAASBjYAAAAAAAAAAAAAAAAAEgY2AAAAAAAAAAAAAAAAABIGNgAAAAAAAAAAAAAAAAASBjYAAAAAAAAAAAAAAAAAEgY2AAAAAAAAAAAAAAAAABIGNgAAAAAAAAAAAAAAAAASBjYAAAAAAAAAAAAAAAAAEgY2AAAAAAAAAAAAAAAAABIGNgAAAAAAAAAAAAAAAAASBjYAAAAAAAAAAAAAAAAAEgY2AAAAAAAAAAAAAAAAABIGNgAAAAAAAAAAAAAAAAASBjYAAAAAAAAAAAAAAAAAEgY2AAAAAAAAAAAAAAAAABIGNgAAAAAAAAAAAAAAAAASBjYAAAAAAAAAAAAAAAAAEgY2AAAAAAAAAAAAAAAAABIGNgAAAAAAAAAAAAAAAAASBjYAAAAAAAAAAAAAAAAAEgY2AAAAAAAAAAAAAAAAABIGNgAAAAAAAAAAAAAAAAASBjYAAAAAAAAAAAAAAAAAEgY2AAAAAAAAAAAAAAAAABIGNgAAAAAAAAAAAAAAAAASBjYAAAAAAAAAAAAAAAAAEgY2AAAAAAAAAAAAAAAAABIGNgAAAAAAAAAAAAAAAAASBjYAAAAAAAAAAAAAAAAAEgY2AAAAAAAAAAAAAAAAABIGNgAAAAAAAAAAAAAAAAASBjYAAAAAAAAAAAAAAAAAEgY2AAAAAAAAAAAAAAAAABIGNgAAAAAAAAAAAAAAAAASBjYAAAAAAAAAAAAAAAAAEgY2AAAAAAAAAAAAAAAAABIGNgAAAAAAAAAAAAAAAAASBjYAAAAAAAAAAAAAAAAAEgY2AAAAAAAAAAAAAAAAABIGNgAAAAAAAAAAAAAAAAASBjYAAAAAAAAAAAAAAAAAEgY2AAAAAAAAAAAAAAAAABIGNgAAAAAAAAAAAAAAAAASBjYAAAAAAAAAAAAAAAAAEgY2AAAAAAAAAAAAAAAAABIGNgAAAAAAAAAAAAAAAAASBjYAAAAAAAAAAAAAAAAAEgY2AAAAAAAAAAAAAAAAABIGNgAAAAAAAAAAAAAAAAASBjYAAAAAAAAAAAAAAAAAEgY2AAAAAAAAAAAAAAAAABIGNgAAAAAAAAAAAAAAAAASBjYAAAAAAAAAAAAAAAAAEgY2AAAAAAAAAAAAAAAAABIGNgAAAAAAAAAAAAAAAAASBjYAAAAAAAAAAAAAAAAAEgY2AAAAAAAAAAAAAAAAABIGNgAAAAAAAAAAAAAAAAASBjYAAAAAAAAAAAAAAAAAEgY2AAAAAAAAAAAAAAAAABIGNgAAAAAAAAAAAAAAAAASBjYAAAAAAAAAAAAAAAAAEgY2AAAAAAAAAAAAAAAAABIGNgAAAAAAAAAAAAAAAAASBjYAAAAAAAAAAAAAAAAAEgY2AAAAAAAAAAAAAAAAABIGNgAAAAAAAAAAAAAAAAASBjYAAAAAAAAAAAAAAAAAEgY2AAAAAAAAAAAAAAAAABIGNgAAAAAAAAAAAAAAAAASBjYAAAAAAAAAAAAAAAAAEgY2AAAAAAAAAAAAAAAAABIGNgAAAAAAAAAAAAAAAAASBjYAAAAAAAAAAAAAAAAAEgY2AAAAAAAAAAAAAAAAABIGNgAAAAAAAAAAAAAAAAASBjYAAAAAAAAAAAAAAAAAEgY2AAAAAAAAAAAAAAAAABIGNgAAAAAAAAAAAAAAAAASBjYAAAAAAAAAAAAAAAAAEgY2AAAAAAAAAAAAAAAAABIGNgAAAAAAAAAAAAAAAAASBjYAAAAAAAAAAAAAAAAAEgY2AAAAAAAAAAAAAAAAABIGNgAAAAAAAAAAAAAAAAASBjYAAAAAAAAAAAAAAAAAEgY2AAAAAAAAAAAAAAAAABIGNgAAAAAAAAAAAAAAAAASBjYAAAAAAAAAAAAAAAAAEgY2AAAAAAAAAAAAAAAAABIGNgAAAAAAAAAAAAAAAAASBjYAAAAAAAAAAAAAAAAAEgY2AAAAAAAAAAAAAAAAABIGNgAAAAAAAAAAAAAAAAASBjYAAAAAAAAAAAAAAAAAEgY2AAAAAAAAAAAAAAAAABIGNgAAAAAAAAAAAAAAAAASBjYAAAAAAAAAAAAAAAAAEgY2AAAAAAAAAAAAAAAAABIGNgAAAAAAAAAAAAAAAAASBjYAAAAAAAAAAAAAAAAAEgY2AAAAAAAAAAAAAAAAABIGNgAAAAAAAAAAAAAAAAASBjYAAAAAAAAAAAAAAAAAEgY2AAAAAAAAAAAAAAAAABIGNgAAAAAAAAAAAAAAAAASBjYAAAAAAAAAAAAAAAAAEgY2AAAAAAAAAAAAAAAAABIGNgAAAAAAAAAAAAAAAAASBjYAAAAAAAAAAAAAAAAAEgY2AAAAAAAAAAAAAAAAABIGNgAAAAAAAAAAAAAAAAASBjYAAAAAAAAAAAAAAAAAEgY2AAAAAAAAAAAAAAAAABIGNgAAAAAAAAAAAAAAAAASBjYAAAAAAAAAAAAAAAAAEgY2AAAAAAAAAAAAAAAAABIGNgAAAAAAAAAAAAAAAAASBjYAAAAAAAAAAAAAAAAAEgY2AAAAAAAAAAAAAAAAABIGNgAAAAAAAAAAAAAAAAASBjYAAAAAAAAAAAAAAAAAEgY2AAAAAAAAAAAAAAAAABIGNgAAAAAAAAAAAAAAAAASBjYAAAAAAAAAAAAAAAAAEgY2AAAAAAAAAAAAAAAAABIGNgAAAAAAAAAAAAAAAAASBjYAAAAAAAAAAAAAAAAAEgY2AAAAAAAAAAAAAAAAABIGNgAAAAAAAAAAAAAAAAASBjYAAAAAAAAAAAAAAAAAEgY2AAAAAAAAAAAAAAAAABIGNgAAAAAAAAAAAAAAAAASBjYAAAAAAAAAAAAAAAAAEgY2AAAAAAAAAAAAAAAAABIGNgAAAAAAAAAAAAAAAAASBjYAAAAAAAAAAAAAAAAAEgY2AAAAAAAAAAAAAAAAABIGNgAAAAAAAAAAAAAAAAASBjYAAAAAAAAAAAAAAAAAEgY2AAAAAAAAAAAAAAAAABIGNgAAAAAAAAAAAAAAAAASBjYAAAAAAAAAAAAAAAAAEgY2AAAAAAAAAAAAAAAAABIGNgAAAAAAAAAAAAAAAAASBjYAAAAAAAAAAAAAAAAAEgY2AAAAAAAAAAAAAAAAABIGNgAAAAAAAAAAAAAAAAASBjYAAAAAAAAAAAAAAAAAEgY2AAAAAAAAAAAAAAAAABIGNgAAAAAAAAAAAAAAAAASBjYAAAAAAAAAAAAAAAAAEgY2AAAAAAAAAAAAAAAAABIGNgAAAAAAAAAAAAAAAAASBjYAAAAAAAAAAAAAAAAAEgY2AAAAAAAAAAAAAAAAABIGNgAAAAAAAAAAAAAAAAASBjYAAAAAAAAAAAAAAAAAEgY2AAAAAAAAAAAAAAAAABIGNgAAAAAAAAAAAAAAAAASBjYAAAAAAAAAAAAAAAAAEgY2AAAAAAAAAAAAAAAAABIGNgAAAAAAAAAAAAAAAAASBjYAAAAAAAAAAAAAAAAAEgY2AAAAAAAAAAAAAAAAABIGNgAAAAAAAAAAAAAAAAASBjYAAAAAAAAAAAAAAAAAEgY2AAAAAAAAAAAAAAAAABIGNgAAAAAAAAAAAAAAAAASBjYAAAAAAAAAAAAAAAAAEgY2AAAAAAAAAAAAAAAAABIGNgAAAAAAAAAAAAAAAAASBjYAAAAAAAAAAAAAAAAAEgY2AAAAAAAAAAAAAAAAABIGNgAAAAAAAAAAAAAAAAASBjYAAAAAAAAAAAAAAAAAEgY2AAAAAAAAAAAAAAAAABIGNgAAAAAAAAAAAAAAAAASBjYAAAAAAAAAAAAAAAAAEgY2AAAAAAAAAAAAAAAAABIGNgAAAAAAAAAAAAAAAAASBjYAAAAAAAAAAAAAAAAAEgY2AAAAAAAAAAAAAAAAABIGNgAAAAAAAAAAAAAAAAASBjYAAAAAAAAAAAAAAAAAEgY2AAAAAAAAAAAAAAAAABIGNgAAAAAAAAAAAAAAAAASBjYAAAAAAAAAAAAAAAAAEgY2AAAAAAAAAAAAAAAAABIGNgAAAAAAAAAAAAAAAAASBjYAAAAAAAAAAAAAAAAAEgY2AAAAAAAAAAAAAAAAABIGNgAAAAAAAAAAAAAAAAASBjYAAAAAAAAAAAAAAAAAEgY2AAAAAAAAAAAAAAAAABIGNgAAAAAAAAAAAAAAAAASBjYAAAAAAAAAAAAAAAAAEgY2AAAAAAAAAAAAAAAAABIGNgAAAAAAAAAAAAAAAAASBjYAAAAAAAAAAAAAAAAAEgY2AAAAAAAAAAAAAAAAABIGNgAAAAAAAAAAAAAAAAASBjYAAAAAAAAAAAAAAAAAEgY2AAAAAAAAAAAAAAAAABIGNgAAAAAAAAAAAAAAAAASBjYAAAAAAAAAAAAAAAAAEgY2AAAAAAAAAAAAAAAAABIGNgAAAAAAAAAAAAAAAAASBjYAAAAAAAAAAAAAAAAAEgY2AAAAAAAAAAAAAAAAABIGNgAAAAAAAAAAAAAAAAASBjYAAAAAAAAAAAAAAAAAEgY2AAAAAAAAAAAAAAAAABIGNgAAAAAAAAAAAAAAAAASBjYAAAAAAAAAAAAAAAAAEgY2AAAAAAAAAAAAAAAAABIGNgAAAAAAAAAAAAAAAAASBjYAAAAAAAAAAAAAAAAAEgY2AAAAAAAAAAAAAAAAABIGNgAAAAAAAAAAAAAAAAASBjYAAAAAAAAAAAAAAAAAEgY2AAAAAAAAAAAAAAAAABIGNgAAAAAAAAAAAAAAAAASBjYAAAAAAAAAAAAAAAAAEgY2AAAAAAAAAAAAAAAAABIGNgAAAAAAAAAAAAAAAAASBjYAAAAAAAAAAAAAAAAAEgY2AAAAAAAAAAAAAAAAABIGNgAAAAAAAAAAAAAAAAASBjYAAAAAAAAAAAAAAAAAEgY2AAAAAAAAAAAAAAAAABIGNgAAAAAAAAAAAAAAAAASBjYAAAAAAAAAAAAAAAAAEgY2AAAAAAAAAAAAAAAAABIGNgAAAAAAAAAAAAAAAAASBjYAAAAAAAAAAAAAAAAAEgY2AAAAAAAAAAAAAAAAABIGNgAAAAAAAAAAAAAAAAASBjYAAAAAAAAAAAAAAAAAEgY2AAAAAAAAAAAAAAAAABIGNgAAAAAAAAAAAAAAAAASBjYAAAAAAAAAAAAAAAAAEgY2AAAAAAAAAAAAAAAAABIGNgAAAAAAAAAAAAAAAAASBjYAAAAAAAAAAAAAAAAAEgY2AAAAAAAAAAAAAAAAABIGNgAAAAAAAAAAAAAAAAASBjYAAAAAAAAAAAAAAAAAEgY2AAAAAAAAAAAAAAAAABIGNgAAAAAAAAAAAAAAAAASBjYAAAAAAAAAAAAAAAAAEgY2AAAAAAAAAAAAAAAAABIGNgAAAAAAAAAAAAAAAAASBjYAAAAAAAAAAAAAAAAAEgY2AAAAAAAAAAAAAAAAABIGNgAAAAAAAAAAAAAAAAASBjYAAAAAAAAAAAAAAAAAEgY2AAAAAAAAAAAAAAAAABIGNgAAAAAAAAAAAAAAAAASBjYAAAAAAAAAAAAAAAAAEgY2AAAAAAAAAAAAAAAAABIGNgAAAAAAAAAAAAAAAAASBjYAAAAAAAAAAAAAAAAAEgY2AAAAAAAAAAAAAAAAABIGNgAAAAAAAAAAAAAAAAASBjYAAAAAAAAAAAAAAAAAEgY2AAAAAAAAAAAAAAAAABIGNgAAAAAAAAAAAAAAAAASBjYAAAAAAAAAAAAAAAAAEgY2AAAAAAAAAAAAAAAAABIGNgAAAAAAAAAAAAAAAAASBjYAAAAAAAAAAAAAAAAAEgY2AAAAAAAAAAAAAAAAABIGNgAAAAAAAAAAAAAAAAASBjYAAAAAAAAAAAAAAAAAEgY2AAAAAAAAAAAAAAAAABIGNgAAAAAAAAAAAAAAAAASBjYAAAAAAAAAAAAAAAAAEgY2AAAAAAAAAAAAAAAAABIGNgAAAAAAAAAAAAAAAAASBjYAAAAAAAAAAAAAAAAAEgY2AAAAAAAAAAAAAAAAABIGNgAAAAAAAAAAAAAAAAASBjYAAAAAAAAAAAAAAAAAEgY2AAAAAAAAAAAAAAAAABIGNgAAAAAAAAAAAAAAAAASBjYAAAAAAAAAAAAAAAAAEgY2AAAAAAAAAAAAAAAAABIGNgAAAAAAAAAAAAAAAAASBjYAAAAAAAAAAAAAAAAAEgY2AAAAAAAAAAAAAAAAABIGNgAAAAAAAAAAAAAAAAASBjYAAAAAAAAAAAAAAAAAEgY2AAAAAAAAAAAAAAAAABIGNgAAAAAAAAAAAAAAAAASBjYAAAAAAAAAAAAAAAAAEgY2AAAAAAAAAAAAAAAAABIGNgAAAAAAAAAAAAAAAAASBjYAAAAAAAAAAAAAAAAAEgY2AAAAAAAAAAAAAAAAABIGNgAAAAAAAAAAAAAAAAASBjYAAAAAAAAAAAAAAAAAEgY2AAAAAAAAAAAAAAAAABIGNgAAAAAAAAAAAAAAAAASBjYAAAAAAAAAAAAAAAAAEgY2AAAAAAAAAAAAAAAAABIGNgAAAAAAAAAAAAAAAAASBjYAAAAAAAAAAAAAAAAAEgY2AAAAAAAAAAAAAAAAABIGNgAAAAAAAAAAAAAAAAASBjYAAAAAAAAAAAAAAAAAEgY2AAAAAAAAAAAAAAAAABIGNgAAAAAAAAAAAAAAAAASBjYAAAAAAAAAAAAAAAAAEgY2AAAAAAAAAAAAAAAAABIGNgAAAAAAAAAAAAAAAAASBjYAAAAAAAAAAAAAAAAAEgY2AAAAAAAAAAAAAAAAABIGNgAAAAAAAAAAAAAAAAASBjYAAAAAAAAAAAAAAAAAEgY2AAAAAAAAAAAAAAAAABIGNgAAAAAAAAAAAAAAAAASBjYAAAAAAAAAAAAAAAAAEgY2AAAAAAAAAAAAAAAAABIGNgAAAAAAAAAAAAAAAAASBjYAAAAAAAAAAAAAAAAAEgY2AAAAAAAAAAAAAAAAABIGNgAAAAAAAAAAAAAAAAASBjYAAAAAAAAAAAAAAAAAEgY2AAAAAAAAAAAAAAAAABIGNgAAAAAAAAAAAAAAAAASBjYAAAAAAAAAAAAAAAAAEgY2AAAAAAAAAAAAAAAAABIGNgAAAAAAAAAAAAAAAAASBjYAAAAAAAAAAAAAAAAAEgY2AAAAAAAAAAAAAAAAABIGNgAAAAAAAAAAAAAAAAASBjYAAAAAAAAAAAAAAAAAEgY2AAAAAAAAAAAAAAAAABIGNgAAAAAAAAAAAAAAAAASBjYAAAAAAAAAAAAAAAAAEgY2AAAAAAAAAAAAAAAAABIGNgAAAAAAAAAAAAAAAAASBjYAAAAAAAAAAAAAAAAAEgY2AAAAAAAAAAAAAAAAABIGNgAAAAAAAAAAAAAAAAASBjYAAAAAAAAAAAAAAAAAEgY2AAAAAAAAAAAAAAAAABIGNgAAAAAAAAAAAAAAAAASBjYAAAAAAAAAAAAAAAAAEgY2AAAAAAAAAAAAAAAAABIGNgAAAAAAAAAAAAAAAAASBjYAAAAAAAAAAAAAAAAAEgY2AAAAAAAAAAAAAAAAABIGNgAAAAAAAAAAAAAAAAASBjYAAAAAAAAAAAAAAAAAEgY2AAAAAAAAAAAAAAAAABIGNgAAAAAAAAAAAAAAAAASBjYAAAAAAAAAAAAAAAAAEgY2AAAAAAAAAAAAAAAAABIGNgAAAAAAAAAAAAAAAAASBjYAAAAAAAAAAAAAAAAAEgY2AAAAAAAAAAAAAAAAABIGNgAAAAAAAAAAAAAAAAASBjYAAAAAAAAAAAAAAAAAEgY2AAAAAAAAAAAAAAAAABIGNgAAAAAAAAAAAAAAAAASBjYAAAAAAAAAAAAAAAAAEgY2AAAAAAAAAAAAAAAAABIGNgAAAAAAAAAAAAAAAAASBjYAAAAAAAAAAAAAAAAAEgY2AAAAAAAAAAAAAAAAABIGNgAAAAAAAAAAAAAAAAASBjYAAAAAAAAAAAAAAAAAEgY2AAAAAAAAAAAAAAAAABIGNgAAAAAAAAAAAAAAAAASBjYAAAAAAAAAAAAAAAAAEgY2AAAAAAAAAAAAAAAAABIGNgAAAAAAAAAAAAAAAAASBjYAAAAAAAAAAAAAAAAAEgY2AAAAAAAAAAAAAAAAABIGNgAAAAAAAAAAAAAAAAASBjYAAAAAAAAAAAAAAAAAEgY2AAAAAAAAAAAAAAAAABIGNgAAAAAAAAAAAAAAAAASBjYAAAAAAAAAAAAAAAAAEgY2AAAAAAAAAAAAAAAAABIGNgAAAAAAAAAAAAAAAAASBjYAAAAAAAAAAAAAAAAAEgY2AAAAAAAAAAAAAAAAABIGNgAAAAAAAAAAAAAAAAASBjYAAAAAAAAAAAAAAAAAEgY2AAAAAAAAAAAAAAAAABIGNgAAAAAAAAAAAAAAAAASBjYAAAAAAAAAAAAAAAAAEgY2AAAAAAAAAAAAAAAAABIGNgAAAAAAAAAAAAAAAAASBjYAAAAAAAAAAAAAAAAAEgY2AAAAAAAAAAAAAAAAABIGNgAAAAAAAAAAAAAAAAASBjYAAAAAAAAAAAAAAAAAEgY2AAAAAAAAAAAAAAAAABIGNgAAAAAAAAAAAAAAAAASBjYAAAAAAAAAAAAAAAAAEgY2AAAAAAAAAAAAAAAAABIGNgAAAAAAAAAAAAAAAAASBjYAAAAAAAAAAAAAAAAAEgY2AAAAAAAAAAAAAAAAABIGNgAAAAAAAAAAAAAAAAASBjYAAAAAAAAAAAAAAAAAEgY2AAAAAAAAAAAAAAAAABIGNgAAAAAAAAAAAAAAAAASBjYAAAAAAAAAAAAAAAAAEgY2AAAAAAAAAAAAAAAAABIGNgAAAAAAAAAAAAAAAAASBjYAAAAAAAAAAAAAAAAAEgY2AAAAAAAAAAAAAAAAABIGNgAAAAAAAAAAAAAAAAASBjYAAAAAAAAAAAAAAAAAEgY2AAAAAAAAAAAAAAAAABIGNgAAAAAAAAAAAAAAAAASBjYAAAAAAAAAAAAAAAAAEgY2AAAAAAAAAAAAAAAAABIGNgAAAAAAAAAAAAAAAAASBjYAAAAAAAAAAAAAAAAAEgY2AAAAAAAAAAAAAAAAABIGNgAAAAAAAAAAAAAAAAASBjYAAAAAAAAAAAAAAAAAEgY2AAAAAAAAAAAAAAAAABIGNgAAAAAAAAAAAAAAAAASBjYAAAAAAAAAAAAAAAAAEgY2AAAAAAAAAAAAAAAAABIGNgAAAAAAAAAAAAAAAAASBjYAAAAAAAAAAAAAAAAAEgY2AAAAAAAAAAAAAAAAABIGNgAAAAAAAAAAAAAAAAASBjYAAAAAAAAAAAAAAAAAEgY2AAAAAAAAAAAAAAAAABIGNgAAAAAAAAAAAAAAAAASBjYAAAAAAAAAAAAAAAAAEgY2AAAAAAAAAAAAAAAAABIGNgAAAAAAAAAAAAAAAAASBjYAAAAAAAAAAAAAAAAAEgY2AAAAAAAAAAAAAAAAABIGNgAAAAAAAAAAAAAAAAASBjYAAAAAAAAAAAAAAAAAEgY2AAAAAAAAAAAAAAAAABIGNgAAAAAAAAAAAAAAAAASBjYAAAAAAAAAAAAAAAAAEgY2AAAAAAAAAAAAAAAAABIGNgAAAAAAAAAAAAAAAAASBjYAAAAAAAAAAAAAAAAAEgY2AAAAAAAAAAAAAAAAABIGNgAAAAAAAAAAAAAAAAASBjYAAAAAAAAAAAAAAAAAEgY2AAAAAAAAAAAAAAAAABIGNgAAAAAAAAAAAAAAAAASBjYAAAAAAAAAAAAAAAAAEgY2AAAAAAAAAAAAAAAAABIGNgAAAAAAAAAAAAAAAAASBjYAAAAAAAAAAAAAAAAAEgY2AAAAAAAAAAAAAAAAABIGNgAAAAAAAAAAAAAAAAASBjYAAAAAAAAAAAAAAAAAEgY2AAAAAAAAAAAAAAAAABIGNgAAAAAAAAAAAAAAAAASBjYAAAAAAAAAAAAAAAAAEgY2AAAAAAAAAAAAAAAAABIGNgAAAAAAAAAAAAAAAAASBjYAAAAAAAAAAAAAAAAAEgY2AAAAAAAAAAAAAAAAABIGNgAAAAAAAAAAAAAAAAASBjYAAAAAAAAAAAAAAAAAEgY2AAAAAAAAAAAAAAAAABIGNgAAAAAAAAAAAAAAAAASBjYAAAAAAAAAAAAAAAAAEgY2AAAAAAAAAAAAAAAAABIGNgAAAAAAAAAAAAAAAAASBjYAAAAAAAAAAAAAAAAAEgY2AAAAAAAAAAAAAAAAABIGNgAAAAAAAAAAAAAAAAASBjYAAAAAAAAAAAAAAAAAEgY2AAAAAAAAAAAAAAAAABIGNgAAAAAAAAAAAAAAAAASBjYAAAAAAAAAAAAAAAAAEgY2AAAAAAAAAAAAAAAAABIGNgAAAAAAAAAAAAAAAAASBjYAAAAAAAAAAAAAAAAAEgY2AAAAAAAAAAAAAAAAABIGNgAAAAAAAAAAAAAAAAASBjYAAAAAAAAAACAy969xcZ13wce/82QQ/EiURpeZFG+UDfn2rSJm4RxbMXyrhbppm8bLIwFqjwU6GsRtE/7oge/FNhFC2OBAAUWCBZygUJbqFhgsYstkNZSJMdx7qrT3EzKkmzJtkiREkVyeJuZnXN0lNIyY0pD/9vQ+XzAA3J+c3jmzPCVX/wAAAAAIAkBGwAAAAAAAAAAAAAAAABJCNgAAAAAAAAAAAAAAAAASELABgAAAAAAAAAAAAAAAEASAjYAAAAAAAAAAAAAAAAAkhCwAQAAAAAAAAAAAAAAAJCEgA0AAAAAAAAAAAAAAACAJARsAAAAAAAAAAAAAAAAACQhYAMAAAAAAAAAAAAAAAAgCQEbAAAAAAAAAAAAAAAAAEkI2AAAAAAAAAAAAAAAAABIQsAGAAAAAAAAAAAAAAAAQBICNgAAAAAAAAAAAAAAAACSELABAAAAAAAAAAAAAAAAkISADQAAAAAAAAAAAAAAAIAkBGwAAAAAAAAAAAAAAAAAJCFgAwAAAAAAAAAAAAAAACAJARsAAAAAAAAAAAAAAAAASQjYAAAAAAAAAAAAAAAAAEhCwAYAAAAAAAAAAAAAAABAEgI2AAAAAAAAAAAAAAAAAJIQsAEAAAAAAAAAAAAAAACQhIANAAAAAAAAAAAAAAAAgCQEbAAAAAAAAAAAAAAAAAAkIWADAAAAAAAAAAAAAAAAIAkBGwAAAAAAAAAAAAAAAABJCNgAAAAAAAAAAAAAAAAASELABgAAAAAAAAAAAAAAAEASAjYAAAAAAAAAAAAAAAAAkhCwAQAAAAAAAAAAAAAAAJCEgA0AAAAAAAAAAAAAAACAJARsAAAAAAAAAAAAAAAAACQhYAMAAAAAAAAAAAAAAAAgCQEbAAAAAAAAAAAAAAAAAEkI2AAAAAAAAAAAAAAAAABIQsAGAAAAAAAAAAAAAAAAQBICNgAAAAAAAAAAAAAAAACSELABAAAAAAAAAAAAAAAAkISADQAAAAAAAAAAAAAAAIAkBGwAAAAAAAAAAAAAAAAAJCFgAwAAAAAAAAAAAAAAACAJARsAAAAAAAAAAAAAAAAASQjYAAAAAAAAAAAAAAAAAEhCwAYAAAAAAAAAAAAAAABAEgI2AAAAAAAAAAAAAAAAAJIQsAEAAAAAAAAAAAAAAACQhIANAAAAAAAAAAAAAAAAgCQEbAAAAAAAAAAAAAAAAAAkIWADAAAAAAAAAAAAAAAAIAkBGwAAAAAAAAAAAAAAAABJCNgAAAAAAAAAAAAAAAAASELABgAAAAAAAAAAAAAAAEASAjYAAAAAAAAAAAAAAAAAkhCwAQAAAAAAAAAAAAAAAJCEgA0AAAAAAAAAAAAAAACAJARsAAAAAAAAAAAAAAAAACQhYAMAAAAAAAAAAAAAAAAgCQEbAAAAAAAAAAAAAAAAAEkI2AAAAAAAAAAAAAAAAABIQsAGAAAAAAAAAAAAAAAAQBICNgAAAAAAAAAAAAAAAACSELABAAAAAAAAAAAAAAAAkISADQAAAAAAAAAAAAAAAIAkBGwAAAAAAAAAAAAAAAAAJCFgAwAAAAAAAAAAAAAAACAJARsAAAAAAAAAAAAAAAAASQjYAAAAAAAAAAAAAAAAAEhCwAYAAAAAAAAAAAAAAABAEgI2AAAAAAAAAAAAAAAAAJIQsAEAAAAAAAAAAAAAAACQhIANAAAAAAAAAAAAAAAAgCQEbAAAAAAAAAAAAAAAAAAkIWADAAAAAAAAAAAAAAAAIAkBGwAAAAAAAAAAAAAAAABJCNgAAAAAAAAAAAAAAAAASELABgAAAAAAAAAAAAAAAEASAjYAAAAAAAAAAAAAAAAAkhCwAQAAAAAAAAAAAAAAAJCEgA0AAAAAAAAAAAAAAACAJARsAAAAAAAAAAAAAAAAACQhYAMAAAAAAAAAAAAAAAAgCQEbAAAAAAAAAAAAAAAAAEkI2AAAAAAAAAAAAAAAAABIQsAGAAAAAAAAAAAAAAAAQBICNgAAAAAAAAAAAAAAAACSELABAAAAAAAAAAAAAAAAkISADQAAAAAAAAAAAAAAAIAkBGwAAAAAAAAAAAAAAAAAJCFgAwAAAAAAAAAAAAAAACAJARsAAAAAAAAAAAAAAAAASQjYAAAAAAAAAAAAAAAAAEhCwAYAAAAAAAAAAAAAAABAEgI2AAAAAAAAAAAAAAAAAJIQsAEAAAAAAAAAAAAAAACQhIANAAAAAAAAAAAAAAAAgCQEbAAAAAAAAAAAAAAAAAAkIWADAAAAAAAAAAAAAAAAIAkBGwAAAAAAAAAAAAAAAABJCNgAAAAAAAAAAAAAAAAASELABgAAAAAAAAAAAAAAAEASAjYAAAAAAAAAAAAAAAAAkhCwAQAAAAAAAAAAAAAAAJCEgA0AAAAAAAAAAAAAAACAJARsAAAAAAAAAAAAAAAAACQhYAMAAAAAAAAAAAAAAAAgCQEbAAAAAAAAAAAAAAAAAEkI2AAAAAAAAAAAAAAAAABIQsAGAAAAAAAAAAAAAAAAQBICNgAAAAAAAAAAAAAAAACSELABAAAAAAAAAAAAAAAAkISADQAAAAAAAAAAAAAAAIAkBGwAAAAAAAAAAAAAAAAAJCFgAwAAAAAAAAAAAAAAACAJARsAAAAAAAAAAAAAAAAASQjYAAAAAAAAAAAAAAAAAEhCwAYAAAAAAAAAAAAAAABAEgI2AAAAAAAAAAAAAAAAAJIQsAEAAAAAAAAAAAAAAACQhIANAAAAAAAAAAAAAAAAgCQEbAAAAAAAAAAAAAAAAAAkIWADAAAAAAAAAAAAAAAAIAkBGwAAAAAAAAAAAAAAAABJCNgAAAAAAAAAAAAAAAAASELABgAAAAAAAAAAAAAAAEASAjYAAAAAAAAAAAAAAAAAkhCwAQAAAAAAAAAAAAAAAJCEgA0AAAAAAAAAAAAAAACAJARsAAAAAAAAAAAAAAAAACQhYAMAAAAAAAAAAAAAAAAgCQEbAAAAAAAAAAAAAAAAAEkI2AAAAAAAAAAAAAAAAABIQsAGAAAAAAAAAAAAAAAAQBICNgAAAAAAAAAAAAAAAACSELABAAAAAAAAAAAAAAAAkISADQAAAAAAAAAAAAAAAIAkBGwAAAAAAAAAAAAAAAAAJCFgAwAAAAAAAAAAAAAAACAJARsAAAAAAAAAAAAAAAAASQjYAAAAAAAAAAAAAAAAAEhCwAYAAAAAAAAAAAAAAABAEgI2AAAAAAAAAAAAAAAAAJIQsAEAAAAAAAAAAAAAAACQhIANAAAAAAAAAAAAAAAAgCQEbAAAAAAAAAAAAAAAAAAkIWADAAAAAAAAAAAAAAAAIAkBGwAAAAAAAAAAAAAAAABJCNgAAAAAAAAAAAAAAAAASELABgAAAAAAAAAAAAAAAEASAjYAAAAAAAAAAAAAAAAAkhCwAQAAAAAAAAAAAAAAAJCEgA0AAAAAAAAAAAAAAACAJARsAAAAAAAAAAAAAAAAACQhYAMAAAAAAAAAAAAAAAAgCQEbAAAAAAAAAAAAAAAAAEkI2AAAAAAAAAAAAAAAAABIQsAGAAAAAAAAAAAAAAAAQBICNgAAAAAAAAAAAAAAAACSELABAAAAAAAAAAAAAAAAkISADQAAAAAAAAAAAAAAAIAkBGwAAAAAAAAAAAAAAAAAJCFgAwAAAAAAAAAAAAAAACAJARsAAAAAAAAAAAAAAAAASQjYAAAAAAAAAAAAAAAAAEhCwAYAAAAAAAAAAAAAAABAEgI2AAAAAAAAAAAAAAAAAJIQsAEAAAAAAAAAAAAAAACQhIANAAAAAAAAAAAAAAAAgCQEbAAAAAAAAAAAAAAAAAAkIWADAAAAAAAAAAAAAAAAIAkBGwAAAAAAAAAAAAAAAABJCNgAAAAAAAAAAAAAAAAASELABgAAAAAAAAAAAAAAAEASAjYAAAAAAAAAAAAAAAAAkhCwAQAAAAAAAAAAAAAAAJCEgA0AAAAAAAAAAAAAAACAJARsAAAAAAAAAAAAAAAAACQhYAMAAAAAAAAAAAAAAAAgCQEbAAAAAAAAAAAAAAAAAEkI2AAAAAAAAAAAAAAAAABIQsAGAAAAAAAAAAAAAAAAQBICNgAAAAAAAAAAAAAAAACSELABAAAAAAAAAAAAAAAAkISADQAAAAAAAAAAAAAAAIAkBGwAAAAAAAAAAAAAAAAAJCFgAwAAAAAAAAAAAAAAACAJARsAAAAAAAAAAAAAAAAASQjYAAAAAAAAAAAAAAAAAEhCwAYAAAAAAAAAAAAAAABAEgI2AAAAAAAAAAAAAAAAAJIQsAEAAAAAAAAAAAAAAACQhIANAAAAAAAAAAAAAAAAgCQEbAAAAAAAAAAAAAAAAAAkIWADAAAAAAAAAAAAAAAAIAkBGwAAAAAAAAAAAAAAAABJCNgAAAAAAAAAAAAAAAAASELABgAAAAAAAAAAAAAAAEASAjYAAAAAAAAAAAAAAAAAkhCwAQAAAAAAAAAAAAAAAJCEgA0AAAAAAAAAAAAAAACAJARsAAAAAAAAAAAAAAAAACQhYAMAAAAAAAAAAAAAAAAgCQEbAAAAAAAAAAAAAAAAAEkI2AAAAAAAAAAAAAAAAABIQsAGAAAAAAAAAAAAAAAAQBICNgAAAAAAAAAAAAAAAACSELABAAAAAAAAAAAAAAAAkISADQAAAAAAAAAAAAAAAIAkBGwAAAAAAAAAAAAAAAAAJCFgAwAAAAAAAAAAAAAAACAJARsAAAAAAAAAAAAAAAAASQjYAAAAAAAAAAAAAAAAAEhCwAYAAAAAAAAAAAAAAABAEgI2AAAAAAAAAAAAAAAAAJIQsAEAAAAAAAAAAAAAAACQhIANAAAAAAAAAAAAAAAAgCQEbAAAAAAAAAAAAAAAAAAkIWADAAAAAAAAAAAAAAAAIAkBGwAAAAAAAAAAAAAAAABJCNgAAAAAAAAAAAAAAAAASELABgAAAAAAAAAAAAAAAEASAjYAAAAAAAAAAAAAAAAAkhCwAQAAAAAAAAAAAAAAAJCEgA0AAAAAAAAAAAAAAACAJARsAAAAAAAAAAAAAAAAACQhYAMAAAAAAAAAAAAAAAAgCQEbAAAAAAAAAAAAAAAAAEkI2AAAAAAAAAAAAAAAAABIQsAGAAAAAAAAAAAAAAAAQBICNgAAAAAAAAAAAAAAAACSELABAAAAAAAAAAAAAAAAkISADQAAAAAAAAAAAAAAAIAkBGwAAAAAAAAAAAAAAAAAJCFgAwAAAAAAAAAAAAAAACAJARsAAAAAAAAAAAAAAAAASQjYAAAAAAAAAAAAAAAAAEhCwAYAAAAAAAAAAAAAAABAEgI2AAAAAAAAAAAAAAAAAJIQsAEAAAAAAAAAAAAAAACQhIANAAAAAAAAAAAAAAAAgCQEbAAAAAAAAAAAAAAAAAAkIWADAAAAAAAAAAAAAAAAIAkBGwAAAAAAAAAAAAAAAABJCNgAAAAAAAAAAAAAAAAASELABgAAAAAAAAAAAAAAAEASAjYAAAAAAAAAAAAAAAAAkhCwAQAAAAAAAAAAAAAAAJCEgA0AAAAAAAAAAAAAAACAJARsAAAAAAAAAAAAAAAAACQhYAMAAAAAAAAAAAAAAAAgCQEbAAAAAAAAAAAAAAAAAEkI2AAAAAAAAAAAAAAAAABIQsAGAAAAAAAAAAAAAAAAQBICNgAAAAAAAAAAAAAAAACSELABAAAAAAAAAAAAAAAAkISADQAAAAAAAAAAAAAAAIAkBGwAAAAAAAAAAAAAAAAAJCFgAwAAAAAAAAAAAAAAACAJARsAAAAAAAAAAAAAAAAASQjYAAAAAAAAAAAAAAAAAEhCwAYAAAAAAAAAAAAAAABAEgI2AAAAAAAAAAAAAAAAAJIQsAEAAAAAAAAAAAAAAACQhIANAAAAAAAAAAAAAAAAgCQEbAAAAAAAAAAAAAAAAAAkIWADAAAAAAAAAAAAAAAAIAkBGwAAAAAAAAAAAAAAAABJCNgAAAAAAAAAAAAAAAAASELABgAAAAAAAAAAAAAAAEASAjYAAAAAAAAAAAAAAAAAkhCwAQAAAAAAAAAAAAAAAJCEgA0AAAAAAAAAAAAAAACAJARsAAAAAAAAAAAAAAAAACQhYAMAAAAAAAAAAAAAAAAgCQEbAAAAAAAAAAAAAAAAAEkI2AAAAAAAAAAAAAAAAABIQsAGAAAAAAAAAAAAAAAAQBICNgAAAAAAAAAAAAAAAACSELABAAAAAAAAAAAAAAAAkISADQAAAAAAAAAAAAAAAIAkBGwAAAAAAAAAAAAAAAAAJCFgAwAAAAAAAAAAAAAAACAJARsAAAAAAAAAAAAAAAAASQjYAAAAAAAAAAAAAAAAAEhCwAYAAAAAAAAAAAAAAABAEgI2AAAAAAAAAAAAAAAAAJIQsAEAAAAAAAAAAAAAAACQhIANAAAAAAAAAAAAAAAAgCQEbAAAAAAAAAAAAAAAAAAkIWADAAAAAAAAAAAAAAAAIAkBGwAAAAAAAAAAAAAAAABJCNgAAAAAAAAAAAAAAAAASELABgAAAAAAAAAAAAAAAEASAjYAAAAAAAAAAAAAAAAAkhCwAQAAAAAAAAAAAAAAAJCEgA0AAAAAAAAAAAAAAACAJARsAAAAAAAAAAAAAAAAACQhYAMAAAAAAAAAAAAAAAAgCQEbAAAAAAAAAAAAAAAAAEkI2AAAAAAAAAAAAAAAAABIQsAGAAAAAAAAAAAAAAAAQBICNgAAAAAAAAAAAAAAAACSELABAAAAAAAAAAAAAAAAkISADQAAAAAAAAAAAAAAAIAkBGwAAAAAAAAAAAAAAAAAJCFgAwAAAAAAAAAAAAAAACAJARsAAAAAAAAAAAAAAAAASQjYAAAAAAAAAAAAAAAAAEhCwAYAAAAAAAAAAAAAAABAEgI2AAAAAAAAAAAAAAAAAJIQsAEAAAAAAAAAAAAAAACQhIANAAAAAAAAAAAAAAAAgCQEbAAAAAAAAAAAAAAAAAAkIWADAAAAAAAAAAAAAAAAIAkBGwAAAAAAAAAAAAAAAABJCNgAAAAAAAAAAAAAAAAASELABgAAAAAAAAAAAAAAAEASAjYAAAAAAAAAAAAAAAAAkhCwAQAAAAAAAAAAAAAAAJCEgA0AAAAAAAAAAAAAAACAJARsAAAAAAAAAAAAAAAAACQhYAMAAAAAAAAAAAAAAAAgCQEbAAAAAAAAAAAAAAAAAEkI2AAAAAAAAAAAAAAAAABIQsAGAAAAAAAAAAAAAAAAQBICNgAAAAAAAAAAAAAAAACSELABAAAAAAAAAAAAAAAAkISADQAAAAAAAAAAAAAAAIAkBGwAAAAAAAAAAAAAAAAAJCFgAwAAAAAAAAAAAAAAACAJARsAAAAAAAAAAAAAAAAASQjYAAAAAAAAAAAAAAAAAEhCwAYAAAAAAAAAAAAAAABAEgI2AAAAAAAAAAAAAAAAAJIQsAEAAAAAAAAAAAAAAACQhIANAAAAAAAAAAAAAAAAgCQEbAAAAAAAAAAAAAAAAAAkIWADAAAAAAAAAAAAAAAAIAkBGwAAAAAAAAAAAAAAAABJCNgAAAAAAAAAAAAAAAAASELABgAAAAAAAAAAAAAAAEASAjYAAAAAAAAAAAAAAAAAkhCwAQAAAAAAAAAAAAAAAJCEgA0AAAAAAAAAAAAAAACAJARsAAAAAAAAAAAAAAAAACQhYAMAAAAAAAAAAAAAAAAgCQEbAAAAAAAAAAAAAAAAAEkI2AAAAAAAAAAAAAAAAABIQsAGAAAAAAAAAAAAAAAAQBICNgAAAAAAAAAAAAAAAACSELABAAAAAAAAAAAAAAAAkISADQAAAAAAAAAAAAAAAIAkBGwAAAAAAAAAAAAAAAAAJCFgAwAAAAAAAAAAAAAAACAJARsAAAAAAAAAAAAAAAAASQjYAAAAAAAAAAAAAAAAAEhCwAYAAAAAAAAAAAAAAABAEgI2AAAAAAAAAAAAAAAAAJIQsAEAAAAAAAAAAAAAAACQhIANAAAAAAAAAAAAAAAAgCQEbAAAAAAAAAAAAAAAAAAkIWADAAAAAAAAAAAAAAAAIAkBGwAAAAAAAAAAAAAAAABJCNgAAAAAAAAAAAAAAAAASELABgAAAAAAAAAAAAAAAEASAjYAAAAAAAAAAAAAAAAAkhCwAQAAAAAAAAAAAAAAAJCEgA0AAAAAAAAAAAAAAACAJARsAAAAAAAAAAAAAAAAACQhYAMAAAAAAAAAAAAAAAAgCQEbAAAAAAAAAAAAAAAAAEkI2AAAAAAAAAAAAAAAAABIQsAGAAAAAAAAAAAAAAAAQBICNgAAAAAAAAAAAAAAAACSELABAAAAAAAAAAAAAAAAkISADQAAAAAAAAAAAAAAAIAkBGwAAAAAAAAAAAAAAAAAJCFgAwAAAAAAAAAAAAAAACAJARsAAAAAAAAAAAAAAAAASQjYAAAAAAAAAAAAAAAAAEhCwAYAAAAAAAAAAAAAAABAEgI2AAAAAAAAAAAAAAAAAJIQsAEAAAAAAAAAAAAAAACQhIANAAAAAAAAAAAAAAAAgCQEbAAAAAAAAAAAAAAAAAAkIWADAAAAAAAAAAAAAAAAIAkBGwAAAAAAAAAAAAAAAABJCNgAAAAAAAAAAAAAAAAASELABgAAAAAAAAAAAAAAAEASAjYAAAAAAAAAAAAAAAAAkhCwAQAAAAAAAAAAAAAAAJCEgA0AAAAAAAAAAAAAAACAJARsAAAAAAAAAAAAAAAAACQhYAMAAAAAAAAAAAAAAAAgCQEbAAAAAAAAAAAAAAAAAEkI2AAAAAAAAAAAAAAAAABIQsAGAAAAAAAAAAAAAAAAQBICNgAAAAAAAAAAAAAAAACSELABAAAAAAAAAAAAAAAAkISADQAAAAAAAAAAAAAAAIAkBGwAAAAAAAAAAAAAAAAAJCFgAwAAAAAAAAAAAAAAACAJARsAAAAAAAAAAAAAAAAASQjYAAAAAAAAAAAAAAAAAEhCwAYAAAAAAAAAAAAAAABAEgI2AAAAAAAAAAAAAAAAAJIQsAEAAAAAAAAAAAAAAACQhIANAAAAAAAAAAAAAAAAgCQEbAAAAAAAAAAAAAAAAAAkIWADAAAAAAAAAAAAAAAAIAkBGwAAAAAAAAAAAAAAAABJCNgAAAAAAAAAAAAAAAAASELABgAAAAAAAAAAAAAAAEASAjYAAAAAAAAAAAAAAAAAkhCwAQAAAAAAAAAAAAAAAJCEgA0AAAAAAAAAAAAAAACAJARsAAAAAAAAAAAAAAAAACQhYAMAAAAAAAAAAAAAAAAgCQEbAAAAAAAAAAAAAAAAAEkI2AAAAAAAAAAAAAAAAABIQsAGAAAAAAAAAAAAAAAAQBICNgAAAAAAAAAAAAAAAACSELABAAAAAAAAAAAAAAAAkISADQAAAAAAAAAAAAAAAIAkBGwAAAAAAAAAAAAAAAAAJCFgAwAAAAAAAAAAAAAAACAJARsAAAAAAAAAAAAAAAAASQjYAAAAAAAAAAAAAAAAAEhCwAYAAAAAAAAAAAAAAABAEgI2AAAAAAAAAAAAAAAAAJIQsAEAAAAAAAAAAAAAAACQhIANAAAAAAAAAAAAAAAAgCQEbAAAAAAAAAAAAAAAAAAkIWADAAAAAAAAAAAAAAAAIAkBGwAAAAAAAAAAAAAAAABJCNgAAAAAAAAAAAAAAAAASELABgAAAAAAAAAAAAAAAEASAjYAAAAAAAAAAAAAAAAAkhCwAQAAAAAAAAAAAAAAAJCEgA0AAAAAAAAAAAAAAACAJARsAAAAAAAAAAAAAAAAACQhYAMAAAAAAAAAAAAAAAAgCQEbAAAAAAAAAAAAAAAAAEkI2AAAAAAAAAAAAAAAAABIQsAGAAAAAAAAAAAAAAAAQBICNgAAAAAAAAAAAAAAAACSELABAAAAAAAAAAAAAAAAkISADQAAAAAAAAAAAAAAAIAkBGwAAAAAAAAAAAAAAAAAJCFgAwAAAAAAAAAAAAAAACAJARsAAAAAAAAAAAAAAAAASQjYAAAAAAAAAAAAAAAAAEhCwAYAAAAAAAAAAAAAAABAEgI2AAAAAAAAAAAAAAAAAJIQsAEAAAAAAAAAAAAAAACQhIANAAAAAAAAAAAAAAAAgCRKzWaz+BEAAAAAAAAAACCtlZWVytzc3PZms1nKHpdKpeb27dvnKpXKSn4CAAAAAB8oAjYAAAAAAAAAACCpO9Ha6upq5/z8fN/ExMTBRqNRzp4rl8uNQ4cOjT/wwANvd3d3L+a/AAAAAMAHhoANAAAAAAAAAAB4360Xrc3OzvaPj48feu655766NmD70z/90z//vd/7vf934MCBCyI2AAAAgA8WARsAAAAAAAAAAPC+2Chay55fXFzsXlhc3VHu6IpmYzXqq4tR6exY/rM/+7P//OUvf/nU3r17r1YqlZXikgAAAABscQI2AAAAAAAAAACgLXeCtWazWarX6x0bRWuljkqUyx2x56Nfim39e6JZX4mpC+fixhs/iIGBgem//uu//k+f+cxnvlutVmeKlwAAAABgixOwAQAAAAAAAAAA92y9LWuNRqOcze4lWuuo9ET3jgei3Lkt6svzMfP69+Py9/4qv/aJEye+cvTo0W+MjIy8mQ8AAAAA2PIEbAAAAAAAAAAAwHtaL1pbu2UtC9iyo1ar9WwUrZVa847O7vz76vJ8zE2Ox6un/zwaq8tx/PjxZ48dO/b86OjopUqlslK8PAAAAABbmIANAAAAAAAAAAB4l42itbVb1sodXRGlUuurtGG0tlazUY+l+cm49ou/jzd//L+jv79/9uTJk8+MjY29XK1WZ4rTAAAAANjCBGwAAAAAAAAAAEDufqK1LFiLZjMe+MgXo2/oYB6oZbONorW7LS/MxM2r5+PCi3+ZPz516tSXDx8+fHZ4eHgyHwAAAACwpQnYAAAAAAAAAADgN9SdYK3ZbJbq9XrHRtFaqaMS5XJHvmWtq28wbl37eWzbsTuG9j95O1Qrle4pWltrZXE2br39s3j19F/kj7/+9a//4Re/+MW/27t379V8AAAAAMCWJmADAAAAAAAAAIDfIOttWWs0GuVstlG0tq1/T3RUen65Za12442YfevHUX3ks9E3sK94hfuzujwfc5PjMX7muaiv1OL48ePPHjt27PnR0dFLlUplpTgNAAAAgC1KwAYAAAAAAAAAAB9w60Vra7esZQFbdtRqtZ6NorVsu9qdLWvNZiOmJs5GY3Uxhg8dyZ+/X81GPZbmJ/PrXDl/Kvr7+2dPnjz5zNjY2MvVanWmOA0AAACALUrABgAAAAAAAAAAH0AbRWtrt6yVO7oiSqXWV2nDaO1uS7euxdSFc7HjgQ9H/56PF9P7s1y7EbNXX4mJc1/LH584ceIrR48e/cbIyMib+QAAAACALUvABgAAAAAAAAAAHwB3grVms1mq1+sd7xWtzS8s7YhSOToq3THysd+/Hax1ducR271Ea3ebufy9qM1ezbewVbr7i+m9W12ej7nJ8Rg/81zUV2px/PjxZ48dO/b86OjopUqlslKcBgAAAMAWJGADAAAAAAAAAIAtar0ta41Go5zN1tu0VuqoRLncEcOHno6luWvRs/OhGDzwxO1grVTOA7Z7jdbWWl26FZOvno5tOx6IgdHPFtN712zUY2l+MqYmzsaV86eiv79/9uTJk8+MjY29XK1WZ4rTAAAAANiCBGwAAAAAAAAAALCFrBetrd2ylgVs2VGr1XrWRmt7Pvql25vWKj35lrX5qYmYn7kUuw8dycOzzbr19k9j9q2fxOD+J6K79Tr3a7l2I2avvhIT576WPz5x4sRXjh49+o2RkZE38wEAAAAAW5KADQAAAAAAAAAAfs1tFK2t3bJW7ujKN6mVWsfd0Vq+aa3ckW9Za9SXY3L8dHRu25FHZ9n5m9Gor+TXK3dUYujA4fvf4rY8H3OT4zF+5rmor9Ti+PHjzx47duz50dHRS5VKZaU4DQAAAIAtRsAGAAAAAAAAAAC/hu4nWnvXlrXO7jxiuztauzsqm79+IWbe+EEMPPLZ6K0+UkzbtzBzOaYvfyd2Pfip2D50sJjem2ajHkvzkzE1cTaunD8V/f39sydPnnxmbGzs5Wq1OlOcBgAAAMAWI2ADAAAAAAAAAIBfA3eCtWazWarX6x3vFa3NLyzuKFd63hmtrd2yVirnAdt60dpazWYjpia+GY3V5Rh+9Ejk29s2o9mMqddejNXFW/n1snu6H8u1GzF79ZWYOPe1/PGJEye+cvTo0W+MjIy8mQ8AAAAA2HIEbAAAAAAAAAAA8K9kvS1rjUajnM1+1aa1Uuv3egf2Rf/Ib0Xf4IENt6xtZPHW23H9wrnYsedj0f/AR4tp+5bnr8fkxDfzDWw79/52Mb03q8vzMTc5HuNnnov6Si2OHz/+7LFjx54fHR29VKlUVorTAAAAANhCBGwAAAAAAAAAAPAvaL1obe2WtSxgy45ardZzJ1p756a17qjduBL15YUYOviF6Oqt3ne0drfpy9+Npdm3YujQkah07yim7bvxxg9jYeZS6/6eyu/vXjUb9Vian4ypibNx5fyp6O/vnz158uQzY2NjL1er1ZniNAAAAAC2EAEbAAAAAAAAAAAktlG0tnbLWrmjK6JUan2V1kRrPe/YtJbFa9nWtN7B/bHrwU8Wr9K+lcXZmBw/HT39I1F95DPFtH2rrfubHH8hunoHYnDf48X03iwvzMTNq+fjwot/mT8+derUlw8fPnx2eHh4Mh8AAAAAsKUI2AAAAAAAAAAA4H12J1hrNpuler3esVG09q4ta53decS2NlrLZms3rd28cj7mrl+I4WwLW99gMW3f7Fs/iVtv/ywGDzyRv+5mzU2+modoA/sej56dDxbTjWUxXXYfr57+i/zx17/+9T/84he/+Hd79+69mg8AAAAA2FIEbAAAAAAAAAAA8D5Yb8tao9EoZ7N7itbWblkrlfOA7e5oba36Si0mX30hKj07Y3D/51uT0u0n2tSoL7eudzp//aGDh2/fwyY0G6sxOX4m/3no0FOt99qZ/7yR1eX5mJscj/Ezz+Xv8fjx488eO3bs+dHR0UuVSmWlOA0AAACALULABgAAAAAAAAAAbVovWlu7ZS0L2LKjVqv1ZNFaFqVFsxm7P/zvYvvwo++M1tbZsraRuanxuHnlR1EdHYveXQ8X0/YtzFyK6cvfjepDj0Xf4IFi2r7azasxffGl6B/5ROzY/aFi+t6ajXoszU/G1MTZuHL+VPT398+ePHnymbGxsZer1epMcRoAAAAAW4SADQAAAAAAAAAA7sNG0draLWvljq58k1qpdWSb1rq2D8XctV9EpbcaQwe/EOWOyn1Ha2tlsdfUxDej0ViN4UNH8uttRva/RNdfOxerS/Mx/OiR/N426/rFb8fy/FTrek9HZ1dfMX1vy7UbMXv1lZg497X88YkTJ75y9OjRb4yMjLyZDwAAAADYMgRsAAAAAAAAAACwgfuJ1kodlSiXO/JgbVv/ntsRWKn0y01ri7Nvxc2r52PXQ5+K7UOHildo3+Lsm3H9tW9F/56Px44HPlJM27c0P5VvP9s+fCh2jnyimLZvpXYjJsfPRG/14dZ7fqyYvrfV5fmYmxyP8TPPRX2lFsePH3/22LFjz4+Ojl6qVCorxWkAAAAAbAECNgAAAAAAAAAAuMudYK3ZbJbq9XrHfUdrlZ5fBmulUjkP2P5501q25exbsVK7mW8ly87drOlLL8fS3LUYPvR0dG7bXkzbd+ONH8TCzOut6z0VlZ5dxbR9N6++EnNT4zF08HBs6xsqpr9atlluaX4yD+munD8V/f39sydPnnxmbGzs5Wq1OlOcBgAAAMAWIGADAAAAAAAAAICW9basNRqNcja772itNf/nYO3dluevx+TEN2P70IHYufd3imn7VhZvxuT46ejZ+WBUH/50MW1ftgFt8tUXoqtvKAb3fa6Ytq++sti6vxfyuG5w/5NRKpWKZ9aX/U/TysJ0TF/+blz6zv/IZ6dOnfry4cOHzw4PD0/mAwAAAAC2BAEbAAAAAAAAAAC/sdaL1tZuWcsCtuyo1Wo98wtLO/JNapWeGPnY7993tHa3G1d+FAvTF2Po4Beiq3egmLZv9s1/iluTP4+hA0/Gtu27i2n7bl37eeuaP46BfY9Hz869xbR989cvxMwbP4iBRz4TvdXRYvpO2ea1+upi/n05C9gufjuuvvK/8ueyDWxHjhw5vXv37mv5AAAAAIAtQcAGAAAAAAAAAMBvlI2itbVb1sodXZFFa9nGsOFH/20szV3Lg7UsOmsnWlurvrwQ18ZfiK6eagzuf7w1ee+tZBtprC7lW9jKlZ48YiuVysUz7Wk0VmOqdb2Icgwf+kLrPXbefqJNzWYjpibO5vc5/OiRyD7bO8Fa68n8+ey5xVtvR32lFos3r8SV86eiUV/Jf/9v//Zv/8OTTz55zgY2AAAAgK1FwAYAAAAAAAAAwAfanWCt2WyW6vV6x0bRWqmjEuVyR+z56Jdub1nr7M4jtixcW5i5FHOT43nA9n5sJZubfDVuXj0fA6Ofi55dDxXT9s1PX4yZ178X1Yc/HX0D+4pp+2o3r8T0xZdi597fie3DjxbT9i3eeiumJs5F3+CB1vUO/TJYywK2LGRbmn0r3vrp/41Gox7N1eXoqpRq2d+sr69v/m/+5m/+42OPPfaDarU6U1wOAAAAgC1AwAYAAAAAAAAAwAfOelvWGo1GOZvdU7RW6cmDtXzLWrbJrFTKQ7ZmYzUmx8+05l15xLbZLWfZBrLJiTPZD63rPRXl1n1sRrbF7PqFc/l2t+FHn87vf7OuX3wplhemY/jQ09HZ1VtM78+dTWvZ95nL34356xOxffeHY7U2mwdr+f8wtY5GfTl6uztvdXd3L1YqlZWvfvWrzx06dGi8v79/9pOf/OSPsu/ZvLgsAAAAAFuAgA0AAAAAAAAAgA+E9aK1tVvWsoAtO2q1Ws+G0VprngVr2fe7LcxcjunL34nqQ4/lm8Q2q3bzar7lrH/kt2LH7g8X0/YtzU3G1IWzsWP4Q/k1N2t5YSamJs5Eb3U0dj30qWK6sbXR2p1Na/WVWixMX4q3fvJ/irMiD9Z6enpq5XK5kR1ro7WDBw9OZNvXOjs7V7dv3z4nXgMAAADYegRsAAAAAAAAAABsWRtFa3e2rM0vLO7IYrQ7G9XuN1pbK/t/m+uvvRirS7fyrWQdle7imfZNX/x2LM1P5VvTOrv6imn7Zl7/ftRuvNG6vyNR6dlZTNt38+o/xtzURAwf/EJ09Q0W03e6E6xlm9SyTXBro7Wl2bfyTWuN1jnN+sq6W9ayQC0L2ERrAAAAAB8sAjYAAAAAAAAAALaUe43W1m5ZGzxwOJbnp6Jv8GD0Dozed7R2tyw2m5o4G9uHDsbOvb9dTNu3UrsRk+Nnoqf6cL7ZbbNWl+Za13shtm3fHQOjY8W0fVmENvnq6ejs3hFD+5+IKJXy+Xpb1rKALZvdS7S2dstaR0dHvVQqNUVrAAAAAB8sAjYAAAAAAAAAAH6t3QnWms1mqV6vd9xrtHb3lrXZt34Sy/OTecy2rW/ovqO1u91444exMHMphg49FV091WLavptvvhJzk6/GUHZ/24eLaftuvf2z1nv+pxjc//no7h8ppu3LNrBl77n6yKfz+1sbra3dspb/P1LraNSXN4zWbFkDAAAA+OATsAEAAAAAAAAA8GtnvS1rjUajnM3uJ1pbu2VtdTnbSnYmenbujerDny5eqX2ry/P5VrKuvoEY3Pd4MW1ftrUs33LW1ReDB56MUrHlrF2N+krr/Z5uvf/OGD74hU0Fe1mslr3f66+9mMdqfYMH8uuvt2Wtp6enVi6XG9khWgMAAABAwAYAAAAAAAAAwK+F9aK1tVvWsoAtO2q1Ws+9Rmt3R1vZRrJbb/88hg48Gdt27C6m7bt17Rcx++YrMbDvc9Gz88Fi2r7566/FzBvfj4GHPxO9A6PFtH21G6/H9KWXY+eDn4ztQ4eK6b3JorUsqlu7aW1x9mrMXP5efp9RKv0yWrt7y1oWqGUBm2gNAAAAAAEbAAAAAAAAAAD/ajaK1u5sWZtfWNrRUemOKJXzzWT3E62tlYVY2VaycutaQwcOt65VLp5pT7Oxmm91ywwfeqr12p35z+1qNhsxNXG2dZ+Lres93XpfXcUz7WrG9de+FSu1mzH86NP55/Wr3AnWWjeR38edaC3buLZ201pjZTH6ere9K1pbu2Wto6Oj3vo7NUVrAAAAAAjYAAAAAAAAAAD4F3MnWGs2m6V6vd7xXtHanS1rWYTVN7A/dj30qejZ+VC++et+orW7LUxfjOnXvxfVh343+gb3F9P21W5eiemL346dez8R24c/VEzbt3TrWkxdOBc7Hvhw9O/5eDFt3/LCdEyNn4newQOx68HfKaa3rbdlLQvYstnaaO1XbVpbG63ZsgYAAADAegRsAAAAAAAAAAAktd6WtUajUc5mvypaK5c7/nnLWmdXzE9fyrelDR14MrLn7zdaWyv7f5nrF87F6vL87a1knduKZ9p3/eJLsTw/3brekejs6ium7Zu5/L2ozV6N4UNHotLdX0zbd+PKj2Lh+sUYOng4Kj273hWtrd2ylv8/Ueto1JdFawAAAABsmoANAAAAAAAAAID33XrR2tota1nAlh21Wq1n3Wit0vOOLWsrCzMxfenl6B/5eOzY/ZHiVdq3NDcZUxfO5hvTdo78VjFt33Lr/qYmzkRvdTTfFLdZq0u3YvLV063P4oEYeOSzxbR99eWFuPbqP+Sfa7YpbvHWtXdEa2u3rPX09NTK5XIjO0RrAAAAAGyWgA0AAAAAAAAAgPfFRtHa2i1r5Y6uiFKp9VX6ldHa3VvWsoAtC8+yrWSd27YX0/bNvP79qN14o3W9p/KtZJt18+o/xtzURL7lbFvfUDFt3+zbP41bb/0kBvc/Ed2tz2czGvWVuHnlfFy/+K3o6h2I66+9+I5o7e4ta1mglgVsojUAAAAANkvABgAAAAAAAABA2+4nWnvXlrXO7jxie69oba2V2s2YHD8dPbseiurDv1tM27e6NJdfb9v2oRgY/VwxbV99ZbF1vReic9uOGNr/RP7eNqNRX87vL4v9siiuVFr/c9lIs1HPN8RNX3wp3vjR/4xmsxF9vT1z2aa1tdHa2i1rHR0d9VKp1BStAQAAALBZAjYAAAAAAAAAAO7ZnWCt2WyW6vV6x0bRWh5xNZux56P/PnoH979zy1qpnEde7xWt3e3mmz+OuclfxNCBw7Ft+3Axbd+taz+P2dY1B/d/Prr7R4pp++anJmLmyg9j4JHPRm/1kWLavoWZyzF9+TtRffBT0Td0sJjen9Xl+fy+fv73/yWajdXItq0dP3782Y985CM/Wxut2bIGAAAAQAoCNgAAAAAAAAAA3tN6W9YajUY5m220aa3SW41b134WvbsejoF9j2+4ZW0j9dWlmHz1hejs6o3BA0/ejuA2oVFfianxM9G64Rg++FTb93VHs1mPqYmz+fa04UNH8u1pm9JsxtRrL8bq0q38elkAeL+y37117Rfxi3/4r/njP/7jP/5vf/AHf/BXjzzyyOWurq5l0RoAAAAAKQnYAAAAAAAAAAB4l/WitbVb1rKALTtqtVrP3dHatv4979i0tjB9Md90Nrjv8ejZ9VDxCu2bv/5azLzx/Rh4+NPRO7CvmLavduONmL707di595OxffhQMW3f4q234vqFF2PHno9F/wMfLabtW56/HpMT34ztQwdb9/jbxfTeZRvY5ibHY/zMc1FfqcWf/Mmf/MUf/dEf/fcDBw5cyAK24jQAAAAASELABgAAAAAAAABAbqNobe2WtXyzWKnU+iqtG62t3bTWbKzGZLblrGXo0FNRLnfmP7er2WzE1IWz0VhZvL3lrPV6m9OM66+9FCu1G7e3nHX1FvP2TV/+TizNvh3Djx6Jzm07imn7brzxw1iYuRRDB5+Krt5qMb03zUY9luYn881wV86fiv7+/tmTJ08+MzY29nK1Wp0pTgMAAACAJARsAAAAAAAAAAC/oe4Ea81ms1Sv1zs2itbetWWtszuP2NaL1u5Wu3k1pi++FP0jn4gduz9UTNu3NHctpibOxY4HPhz9ez5eTNu3vDDdut43841uux78ZDFt38ribEyOn46e/pGoPvKZYtq+1eWF1vVeiK7egXyT3f1art2I2auvxMS5r+WPT5w48ZWjR49+Y2Rk5M18AAAAAACJCNgAAAAAAAAAAH6DrLdlrdFolLPZ3dHa/MLijlKpI8qV7hj52O+/e8taqZwHbL8qWrvb9YvfjuX5qRh+9Ono7Oorpu2bef17eRg3fOipqHTvLKbtu3HlfCxcv5BvictCsc2afesncevtn8XggSfyz2yz5iZ/ETev/mMM7Hs8enY+WEzvzeryfOv3x2P8zHNRX6nF8ePHnz127Njzo6OjlyqVykpxGgAAAAC87wRsAAAAAAAAAAAfcOtFa2u3rGUBW3bUarWetZvWhg4+FUtzk9E3sC8G9n1uwy1rG8m2gE2Nn47e6iOx66HHimn7VpduxeSrp2PbjgdiYPSzxbR9Wdg1+eoLUenZGYP7P9+alG4/0abG6nK+hS373IYOHr4d/G1Cs7Haut6Z/OcssiuXO/Of70WzUY+l+cmYmjgbV86fiv7+/tmTJ08+MzY29nK1Wp0pTgMAAACA952ADQAAAAAAAADgA2ijaO3OlrUsWCt3dOWb1EqtY89Hv/SOTWu3rv08FmffjN2P/pvo6hssrt6+m1dfibmp8Tzo2tY3VEzbd+vtn+abzgb3PxHdrfverOzebl75UVRHx6J318PFtH0L05di+vXvRvWh342+wf3FtH3Zxrnpiy9F/8gnYsfuDxXTe5MFhLOtz3/i3NfyxydOnPjK0aNHvzEyMvJmPgAAAACABARsAAAAAAAAAAAfAHeCtWazWarX6x0bRWt3tqz9Mljr7M4jtixaW7tpLd9KNn46j82yLWybVV9ZbF3vhejctiOPzrJobjMa9ZXbW87KnTF08AttbYZbK9tUNjXxzWg0VmP40JEotz6nzcj+N+f6a+didWk+hh89cvtz3qTrF78dy/NTres9HZ1dfcV0Y6vL8zE3OR7jZ57L/67Hjx9/9tixY8+Pjo5eqlQqK8VpAAAAAPC+ErABAAAAAAAAAGxR621ZazQa5Wx2T9FasWUtD9ZK5TxgywKruyOwbAvb7Js/joF9j0fPzr3FtH3z1y/EzBs/iIFHPhu91UeKafsWZl6P6csvx64HPxXbhw4W0/ZlG+euv/at6N/z8djxwEeKafuW5qZi6sI3Y/vwo7Fz5BPFtH3ZJrWp8dP5Z7froceK6cayOG9pfjKmJs7GlfOnor+/f/bkyZPPjI2NvVytVmeK0wAAAADgfSVgAwAAAAAAAADYQtaL1tZuWcsCtuyo1f4/e38SHOd57/me/5wnZAI5gSRAEiQAStZAaxY1kKJ47RuuqHvPqSgrTqh6YVW3VxVxNo5atBcd4XYpohbViw5vKuKuzsKKuNGKG/YJt6JOtevK5qiBmmXNIgACBAmQzAnIec5+nwcPJIiCCPB5SVuivh8rjcz/m3zynXIF/OLXiNTqzbg3EPnm0JppWduqtUy1kanAlPNGyeqWM7/ZYmcw6K+1nHXbupXM6wuaLbYGkp97VbrNVd1Kpo7RreLCWWlVr0p2+pj4Q0Nmak8F9hqlRWe9oxKIjJipvdWlD6San5HM1BHdjrddKvxWdv7t7Jn/ql//9re/fe7HP/7xy7t27VrWAwAAAAAAAOAm8/361782TwEAAAAAAAAAAAAAAPBtpEJr5XJ5uFqtxguFQvrjjz++59y5cwfOnDlz5Je//OV/+cMf/vBv/vznP/9opVzPNNuDoWa7H+v0JKQav7JTR2X0zv9ZN4mp4FowlpJAKK5DXio4ppvXtqDeo95by5/TwbdgLG222PGopjfn82v5Gee5T+2o2WLLI/5gTKqFOed53znOnWtjF/zhuNQK56Xf69yU1rlAOCH10oL02nWJjOw2U3uB8LA0Vi9Kt1lx1tujz+l2DAY96bZrsrL4tgz6XTl48OAHd9111yfxeLzi8/n65m0AAAAAAADATUMDGwAAAAAAAAAAAAAAwLfQVk1ranuz2QzXm924xxf4asuaP6zXqJcu6JCSaulSgaetmta2Ujj/qrQbJRmdPia+YNRM7ZUuvCmN8rJkp5/WAS+3Vi69J/XivHO8RyUYTZqpvfLyh1LJfS6ZycMSGho1U3uVq5/pNVP7Hr8pobhaYU43u6X2PiLR5ISZXt+g35NWLSf52dNy6f3fSSKRKL/44ovPHjp06GwymSyZtwEAAAAAAAA3DQE2AAAAAAAAAAAAAACAb4H1wNpgMPD0ej3fDYfWAhHdsKYa0nSrmsej27lU6Cw+eockdt1rPsleu16S/OxJiab2ycj4/WZqr9MsS27mhEQSuyS59xEztafaza7OHJdgJCnp/U+Yqb1+t6X3T53b9OThtfPqQr/flbyznjjrZKeecn74zRY7g0HfuR6nnP1sS/bA07olbzvUdVxdel/mXvnf9Ovf/e53zxw5cuR0NpvN6QEAAAAAAABwExFgAwAAAAAAAAAAAAAA+BvZrGWt3+971eyGQ2vOXDWvXduyVlp8WxorF3XASbWwuaWCT9X8nA5gBWNpM7VXvvyxVK58ogNi6ljcqubO6X1MTTwmkZHdZmqvVpx3zuFbktzzsMRS+8zUnroWxYXXZXjsPhnKHjBTe83KFSnMnZH4jrsksfNuM70+FRysXPlUzp34f+vX//RP//Tzn/zkJ38cGxtb0gMAAAAAAADgJiLABgAAAAAAAAAAAAAA8Fe0WWhtY8uaCrCpR6PRiNiG1jbqtqqSmzkuoaFRSU0cMlN7vU5DcueOiz88LJlJ1XLmWdtgqd9rO+udcI4nKBnVSuay5WzQ70pu9pR6Ipnpp51z577lTAXE1HFn1XrOeXdLteK1GyUZnT4mvmDUTO2VLrwpjfKy3r9AOGGm36zbrkk1NyMzJ3+jj+tXv/rV8z/72c9emJiYWAgEAh3zNgAAAAAAAOCmIMAGAAAAAAAAAAAAAABwi20VWtvYsub1BWUw6Mmg35MdP/iJxDJTNxxau5Zq2ypf/kjS+5+QcGKXmdqr5mdl5dK7ktp7SKLJPWZqr166IMULb0hy94MSS0+aqb3G6pIU51+TxK57JT56p5naa1WvSl61nGXv0Gu61a6XJD97UqKpfTIyfr+Z2lONavmZExJyrm1q7yNm+s3UvdWq5Zx9OC2X3v+dJBKJ8osvvvjsoUOHziaTyZJ5GwAAAAAAAHBTEGADAAAAAAAAAAAAAAC4ydYDa4PBwNPr9XxbhdaubVlTLWSrS3/RobX0/ifF4/PfcGhto36vI7mZE7qNTLecWa6zTgWg8rOnpN/vrrWSOfvvhvr7lcL5V6TbqjjrHRNfIGy22CvOvy6tWl6yB46JPxgzU3ulxbelsXLRWU+1nA2bqb3Vpfelmp+TrHM9grG0mdorX/5YKlc+kfTkYX3fbKXdWJHy0gcye+a/6te//e1vn/vxj3/88q5du5b1AAAAAAAAALhJfL/+9a/NUwAAAAAAAAAAAAAAANhSgbRyuTxcrVbjhUIh/fHHH9+ztLQ0rgJrZ86cOfLLX/7yv/zhD3/4N3/+859/tFKuZ5qdQawv/tDYvX8vmemjuh0tvuMHOnwUGso6W+LSWL0ooVjaeT2qQ222VGDN6w9KLX9OvIGwBKMps8WO2hfVClfLz+jgndpfNzwej/iCUWe9Of16OwGsrfhDQ1IrnJd+vyORm9A6FwgnpF5akF6nIZGR3WZqT4XgGiuL0mlVTYudZ22DpUBkWJqry9JplJz19upzej2q5a/brsnK4tsy6Hfl4MGDH9x1112fxOPxis/n65u3AQAAAAAAAK7RwAYAAAAAAAAAAAAAAGBpvWmt2+36N2tZ6/f7XvVoNBqRzZrWVAhMhbW8/pAOmW1sWRsM+pKfPS39blO3kqkAmjuq5exV6TRWdSuZ+my3igtvSKtyRbeSqcCdWysX35F66YJkpp+WYGTETO2tLn8g1dw5yUw+JaGhjJnaq1z5VMqXP9Jhw/BNCMVV87OyculdSe09ZEJs7qhzV7zwhiR3Pyix9KSZbk616LVqOX2PXXr/d5JIJMovvvjis4cOHTqbTCZL5m0AAAAAAACAawTYAAAAAAAAAAAAAAAAbsBWoTW1vdlshlVgzesLqnox3Ya1ndDatZqVK1KYe0U3syV23m2m9tr1ouRnTko0PSkj4/eZqb1Osyy5mRMSGR6T5J6HzdSeagTLnTsuwVhG0vseM1N7vW7TWe+E+EMxSe8/vGUr2Vb6vY4+Xq/XL5mpp77xum2XCpHlZ09Jv9+V7PTT4vUFzBY76u+ACudfkW6rokOPvkDYbNlcu7Ei5aUPZPbMf9Wvf/vb3z734x//+OVdu3Yt6wEAAAAAAABwE/h+/etfm6cAAAAAAAAAAAAAAADYjAqllcvl4Wq1Gi8UCumPP/74nnPnzh04c+bMkV/+8pf/5Q9/+MO/+fOf//yjlXI902i2Y51uP7Trnv9VN52l9z0hyYlHdQhNBdeCsZQEQnEdZFMBN4/Haz7l6/yhIem1q7pZSzV++fwhs8WO+sxetyX14ryE4qOuW9jU/gz6Xanl5yQ0lBZ/MGa22NGBP0ctPyOByIgEwu5a3VTQTIXMqvlzEggO6TXdUGupJryas543EJZgNGW22FHXXl0DdbyqmS80lDVb7KiAni8Y1ddDUffb9QwGPR0aXFl8W1/HgwcPfnDXXXd9Eo/HKz6fr2/eBgAAAAAAALhCAxsAAAAAAAAAAAAAAMA11lvWBoOBp9fr+bZqWvP4AjqApFrWVOiskvtc4qN3ysjuB9cCaipYdJ2mtetRbVqqRSyU2CGpvY+aqb1eu65bxFSYK73/cWfispWs21prJQuEJTN55LqBvO1QbWSqJU7JTh91zplfP7c1GPQlP3va2c+mbiVTATR3VMvZq9JprOqAotsQoFJceENalSvOek8794+70J6ycvEdHXrMTD8tweuE9lQDXKuW0+fn0vu/k0QiUX7xxRefPXTo0NlkMlkybwMAAAAAAABcoYENAAAAAAAAAAAAAADAsVnL2tLS0rgKrG3WtNbsDGJ98YfG7v17yUwflfT+J3TLWiS5R7zegLQql/VzFSDaqmnteryq5WzQl1p+Vre3qYCcG15fwPl/j24RC4SHnUdibYMlFTBTTWfV/Iz4A1EJRpNmix11ntQx65Yzf9A55rTZYke3kumWs1lnX72uW87UuVPXQK2nrks4sdPM7fnDcakV56Xfa0tkeMxM7fmda6oCbL12TaIje8z069S5VoFBFWosXXhTWq1W6Cc/+cn/2Lt374V4PF41bwMAAAAAAABcIcAGAAAAAAAAAAAAAAC+tzYLrZ07d+7AemDt97///U9feumlv/vTn/503dBaOL5Dh8sCobgOS6nnjdVL0m1W1gJEHnctZ4HIsDTLy9KplySa3GMdhlun16telXY1p0N2Ns1wG6nAVKdWcPZxLbSnAm1uqFBdp7kqjZVLEhnZbUJ39lTgrNeu6lBXOLFLfP6Q2WJHXeNetyX14ryE4qOuW9jU/gz6Xanl5yQUSzv7GzNb7KjApKJCdqppLxD+5la3waAn3XZNVhbf1vtw8ODBD+66665P4vF4xefz9c3bAAAAAAAAAGsE2AAAAAAAAAAAAAAAwPfKVqG1r7SstQdDzXY/1hv4tgytbWxZU4Er9Vy3kjnbVWDMDRUwU2tW8+fE749IMJoyW+yoffMFwnr/1LqhWMZssaNbzoJRqRVm1Svn3IyubXDBHxySenFOh6pU6MwtFYqrFxek121KZHjcTO0FIglplBal26pKNLnbmbgMKYZVSHFJ2s0VZ729+py6oe65VuWKtGt5s97moUePx+fcXx7dele58om8++67D/zoRz/68+joaC4SiTTN2wAAAAAAAABrnsFgYJ4CAAAAAAAAAAAAAADcflRgrVqtDg0GA0+v1/PVarXY7OzsVLlcTszMzEz/5je/+YV6T7PZDNfqzbgOi/kjsuvufy2hxE7x+cMq5aMDayrko7ar2VatZarZKj97Wvq9tmSnn/6iFcvaYCD5869It1Vx1jumA2huFRdel1Y1r/dPtZS5VVp8WxorF/V6bkN7yurSX6San5Xs1FMSjKXN1F75yidSufyxpCefdK7nTjO1V83NOPv4nqQmHtNNcW6pRrfi4luS3P2QxNL7zdSeagEszr8uw2MHZSh7h5l+Xbteco7jfZl75X/Tr3/3u989c+TIkdPZbDanBwAAAAAAAIALNLABAAAAAAAAAAAAAIDbzmYta0tLS+MqsLZp01pnEOuLP5Q9cEwC4RHJTB2W5N5H1lrWoinnkdy0ae161lvOarkZ8Xj9EhrKmi2W1lvO8nPOi4HeN7dUO1ytcF76vY5EhsfM1J5uOStdkF6ncVMCXWq9xupF6TTLEh3Zo8+BGypU1ywvS6dekmhyz7au4/Xo9apXpV3NSUStt0WocSt+53g7tYKzj5f1el7nvnFDnb9Oc1UaK5f09VBte5tR17/TWJXi/Gv69b/6V//qj/v37z8fj8cregAAAAAAAAC4QIANAAAAAAAAAAAAAADcFjYLrZ07d+7AemDt97///U9feumlv/vTn/70ldDa2L1/L5npo5Le/4SMjP/QWWkgvVZV4qN36ACQ1x/cdmjtWqrVrNuuSqO0qANiqsHNDX8wKv1OUzd1heI7dKDODRWw6/e7UivMSSiWcdaPmS121LlS56+Wn9GhPxWQc0MFrtR5rzrrqbXctrrpdj1nzWr+nPj9ER1OdGM9pKj2T62rzqEbnvWQYmFWvZJwfHRtgwv+4JBzv8zJwLnO4cQuM/0qtU2FBFcW39bP77vvvvfvvvvuT1SAzefz9c3bAAAAAAAAACuewWBgngIAAAAAAAAAAAAAAHy3qNBatVod6na7/lqtFpudnZ0ql8sJ1bT2m9/85hdqe7PZDNeb3bgKoYnHo0NCO+/61xJK7NQBMNVkpoJlKtzk84el01iR/Oxpiab3ycj4/eaT7KlgUG7mhEQSY5Lc+7CZ2uu2a5I7d0KCsZSk9z1upvZ63Zaz3nEdXktPHtbnxw3V5pWfOSni9Up26qjrVrLBoKevR7/Xluz00zpM6MpgIPnzr0i3VXHWO6YDaG4VF85Kq5rT+6dCi26VFt+WxspFvZ7b0J6yuvQXqeZnJTP1lIRiaTP90qDfk1Ytp8/zpfd/J4lEovziiy8+e+jQobPJZLJk3gYAAAAAAABYoYENAAAAAAAAAAAAAAB8p2zVtPaHP/zh3/z5z3/epGXtKUnve0KSE49KfMcPdHBNhcACobgOsq23rKkGLBXqqhfO35yWM39IB4Rq+VkJOZ/nNuC0tp+i11PhJtUS54bX69chM9VKFgjGnDVHzBY7uuXMH3T275zzM6zPsRvrLWe13Iyztl9CQ1mzxZJuOYvp86fa4tR94JZqh6s594sK76mmPbfUNa2XLkiv05DIyG4ztafWa6xelG6zLNGRPfocbKTOsWri67XrUrrwprRardBPfvKT/7F3794L8Xi8at4GAAAAAAAAWCHABgAAAAAAAAAAAAAAvtXWA2uNRiOq2tauF1orrVQyra5nQ2jtqKT3P/FlYC2ach7Jr4XWrqWCYY2VRd3SFU3ucSbuWskC4WFpli9Ju7HirLfX+UyX6zn716xckXYtb9b7+jHcCLWeWqvlrKkCTioo5kYgHJdOY1Waq5ckMjLunOeA2WJHhf667ao0Sos6IKYa89zwB6PS7zSlXpy/OSHFQFgHwGqFOQnFMrrNzg0VAFThulp+Rt+vKiDnhjr/6h6pOuuptTZrdVNNd6rdb2XxbRk4x3Lw4MEP7rrrrk/i8XjF5/P1zdsAAAAAAACAG0aADQAAAAAAAAAAAAAAfOts1rK2tLQ0PjMzM/1NTWvdnirnOiA77vyxZA/8aPOWNX/wG0NrG+nAlcejA0SqvUoF0NzQrWTegG458weiOpTkhtp/FeJS++dxjicUS5stdlSgTu1XNT/r7KvXOZGjZostZ72Qajmb08GocGKnmdvTLWfFeel32zel5cyvW84WpdeprbWSubQWerykW84iyT36nLqh7rlW+bK06oWbF1Ks5qVVvaJDmeqe3Mjj8Tkzj76vKlc+kXffffeBH/3oR38eHR3NRSKRpnkbAAAAAAAAcMMIsAEAAAAAAAAAAAAAgG+FzUJrG1vWfv/73//0pZde+rs//elPX4TWvtK0tu8xHcpRj+FdB3UA6Hota1vRrWnVnLSqV9cCRNcEfm6U31mvUytKs7wskeRu8bpuOUtIp7mqQ1NrLWeqtcueCpypMFe9dEHCiV3ic9lyps59r9uSeuH8zWk5c/Zn0O9JLT8roVjK2d8hs8XO2n0hej0V7lLn0w11PdU9okKKgWDMWXPEbLGj1lKBy5qzntcf1kFMN9R3QDXF1XIzztp+lfY0W9ao7apFrteuS+nCm9JqtUI/+clP/sfevXsvxOPxqnkbAAAAAAAAcMMIsAEAAAAAAAAAAAAAgL+ZrUJrX2lZaw+Gmu1+rDfwfRla2//EF01roaGMDp3Viws6jOS+lcwEfvIzOpyk1ndDNXL5glGpFWb1a7XPbqkQV70wp4NdKnTmViAc1+ev12nqUJxba61ki9JtVXTrl3MW1jZY0qHC8iVpN1ZMK5nL9Zz9a1auSLuWv3ktZ85aLWdN1eqmgmJuqOvRaaxKc3U9pBgwW+yo+6XbrkqjtKhb7FTb2kaqLa/brsnK4tvOPdWVgwcPfnDXXXd9Eo/HKz6fr2/eBgAAAAAAANwQAmwAAAAAAAAAAAAAAOCvZj2w1mg0otVqdWjL0NpXWtaekvS+JyQ58egXoTXVShUIxb9oWguGh6XdKElzdVkiI7tvQuAnrsNXKoQVGR7XjVhu+IOq5ayhQ2LhxE4dkHNDHXe/15aaajkbyjrrR80WOzrQNOjrVrJg9Ga0nDnn3+PRIUAVKlQBNDd0K5k3oFvO/IGos49Js8WOCqypY1b753HuH/ehR4/er6pz/jxer3NNRs0WW856oZizf3M6XKbuGbfUPV0rzku/29Yhto3WA3wqFljNnZN33nnnwR/96Ed/Gh0dzUUikabeCAAAAAAAANwgz2AwME8BAAAAAAAAAAAAAABuPhVaU2G1brfrr9VqsdnZ2al+v+9Vs5mZmenf/OY3v1DvaTab4XqzG/f4AuL1+mTnXf9aQjrkFdFhNRU00gEb1WTmD+sw02batYLkZk/JUGZKhsd+aKb2VANWbuaEDsQl9zxkpvZUw1Xu3HEJxTKS2veYmdpTbWm5meM6mJTe/6QOUbnR73X08arWuczUU994nrdLtcOp66EavbLTT7sOFaq/dSnMndHnMXvgaX0vuFWYf825b4p6PRUydKu0+JY0Vpf08argnlsrl97XTXuqdVAFC90qX/5YKlc+lczkkxJyvlvqGvW6TRn0urpBLu+c38uf/Hf9XhUofeKJJ17NZDJ5PQAAAAAAAABuEAE2AAAAAAAAAAAAAABw020WWiuXy4n1wJoKsKlHo9GIqNCa+Wey8+7/RaKpia+G1ry+6wbWNrNy8V2plxYkM6UCP+5aupTy8odSyX0umckjuunMrcrVz/SaqX2Pf60Fy0atMCeli+9Iau+jEk3uNVN79dKiFC+clZHxB3QQ0K1meVkK51+VxM57dHueW61qTvJzp2Uoe0CGdx00U3vtxorkZ044525CRnY/YKb2VGtf7twJHQ5LTTxqpvZUa58KPQYiw5Le/4QzcRlS7LbkqrOeCoSq/VOhxWbliv6c5uolufT+7/QsGAy2X3rppb975JFH3kwmkyXzzwEAAAAAAIAbQoANAAAAAAAAAAAAAADcFFuF1ja2rHl9Qd2kptrCVNOaP5KQ6tXPJJaekuTeR6xCaxt123XdSqbaqtL7HjdTeyrwo9bzBaKSnjysgz9uqHBQfvakcw68ktUtZ36zxc5g0HfWO+XsZ1u3iOnz68ZgIPnzr0q3WV5rOQtEzAZ7xYWz0qpelez0MfGHhszUngrsNUqLznpHJRAZMVN7q0t/kWp+VjJTR3Q7nluVK5/opjPVihdO7DRTe9X8jKxeek9SE4ckMrLHTLdvvWVNXVt1v6jQowoV6sCjM7v8yb9I33nPwLmHggFPw+fz9f7Tf/pP/89nnnnmd2NjY0uBQKBjlgIAAAAAAABuCAE2AAAAAAAAAAAAAABg7UZCax5fQLxenw6shRI7dUBNhdjWm9aquRkdqslMHXZmNyHwkzsnq0vvm5azcTO1VyvOS2nxLUnueVhiqX1maq+xclGKC6/L8Nh9uknMLdWgVZg7I/Edd0li591maq9dK0hu9pRuYBse+6GZ2us0ViU3c0IiI7udc/iQmdrrtmu6lUyFzVL7HjNTe71OU4cU/aG4Dp2pcKUbKqSojtfr9Tv3tAop2oUx16kAmroeg35XstMqpBgwW77ZemhN/VQhTHWPqLCamqlWvOUP/qC3qUK3aDhQCYfDTRVU+8UvfvGbAwcOnHvggQfe3bFjxxU1N0sCAAAAAAAAN4wAGwAAAAAAAAAAAAAA2Lb1wNpgMPD0ej3fDYfWApEvAmu6xczj+aJprd9rS+7cCb1NtWC5bTlTQZ/czCnnWV8yKvBzM1rO5s5Iv9NYCxA5++nOQArnX5N2oySj08fEF4yaub3ihTelVV52jveYBMJxM7W3culdqRcXnOtxVILRpJnaKy9/KJXc55KZPCKhoayZ2qtc/UyvuRZSHDNTeypAqZrdUnsfXWsmc6leWnSuyVkZGX9ABwHdUqEz1ZqW2HmPxHf8wEy/arPQWs+5Z1vly7plTf+tkPNQ37do2P+V0Nr09PRMIpEoT01NzcZisdrIyMgKzWsAAAAAAABwiwAbAAAAAAAAAAAAAAC4rs1a1vr9vlfNbji05szXA2ubqZcWdAgruftBiaUnzdReY3VJivOvSWLXvRIfvdNM7bWqV3WILZ6901nzHjO1164XJT97SqKpfTIyfr+Z2us0y2stZ4ldktz7iJna67XrcnXmuAQjKUnvf9xM7alAlWo58wWikp487DqkqFrO8rMnxbmhJKtbzm5CSNG5Hv1uW7IHVMtZ0GyxNXDul1el61wXtZ76LrhVXDir78Ps9DHxh4b0bKvQWt+ZD5xzpQJrkUik4fV6++qxWWjN7/d3h4aGqgTXAAAAAAAAcLMQYAMAAAAAAAAAAAAAAF+zWWhtY8uaCrCpR6PRiNTqzbgKpHn9Edl1942H1jZSf8dQOH9Guq2qDuj4AmGzxV5h/nVp1/KSPXBM/MGYmdorLb4ljdVLuoUtEB42U3urS+9LNT+nA1jBWNpM7ZUvfyyVK59KevJJfQ3cqubO6X1MTTwukZFxM7VXK87rc5jc87DEUvvM1F5j5aIUF16X4bH7ZCh7wEztqfBXQYUUd9wliZ13m6m9dq0gudlTuoFteOyHZmqv01jRTYWheFYfswrdbRVau7ZlTQXUVICN0BoAAAAAAAD+GgiwAQAAAAAAAAAAAAAAbavQ2saWNd1M5fE4/3kkPXlEB8SGMtO69etGQ2vXajlr5WdP6/WGxw6aqT0d+Jk5KdHkHhnZ/aCZ2lPhOtUiFhoaldTEITO1p0JHuXPHJRAZlvT+J5yJZ22DpX6vrQNO6jpkpo64bjkb9LvO8Z5ynvUlM/20eG9Cy5kKiKnjViFAtZ9uFc6/Ku1GSUZV6DEYNVN7qgWwVV52jveYBMJxM7W3culdqRcXnOtxVILRpJnemI0ta6tLH0h5+S+S2HmveAPhbYXWNras+Xy+nvPdHRBaAwAAAAAAwF8DATYAAAAAAAAAAAAAAL6n1gNrg8HA0+v1fFuF1jy+gHi9Ptl5l2lZ84d1iE21fJUvf6Sbpkbv+LEOYrm1cvEdqZcWJTt91FlvxEztrS5/INXcjA50hWIZM7WnGs7UMavAWTixy0ztVfOzsnrpXUlOHJLoyB4ztVcvLegQVnL3gxJLT5qpvcbqkhTnX5PErnslPnqnmdprVa9KXrWcZe901rzHTO2160XJz56SaGqfjIzfb6b2Os2y5GZOSMS5tiqU6VavXZerM8clGEmakOL2bAytbWxZU61zyx+9pN+jAoX9bYTWaFkDAAAAAADA3woBNgAAAAAAAAAAAAAAvkc2a1nr9/teNdtWaC0Q0YE13bKmmr08Hh1k061ksyclMjwmyT0Pm0+z123XdCtZMJaR9L7HzNSeCgGpVjJ/KCbp/Yed3XbbctbRAScVHspMPWXVNLeRCiipAFa/311rJXPOuxvq70EK58/o65JVrWSBsNlirzD/um7ayx44Jv5gzEztlRbfksbqJX28gbD70OPq0vtSzc9J1rkewVjaTO2VL38slSufSHrysL7n3armzul9TE08LpGRcTP9um8KrW3WshaJRBper7evHoTWAAAAAAAA8G1FgA0AAAAAAAAAAAAAgNvcZqG1jS1rKsCmHo1GI7JlaM2Zq8DaZoEt1UhWufqZZCYPS2ho1EztVa5+LuXlDyS173EdjHOrVpiT0sV3JLX3EYkmJ8zUXn1lUUoLZ2V4/H4Zykybqb1m+bIUzr8iiZ33SHzHD8zUXquWl/zsab1vw2MHzdRep7EiuZmTzrnbIyO7HzRTezr0OHNc3yupiUNmak+FvFToUTUArrWcuQ0ptnXo0esProUUVWDThUG/6xzvKedZXzIqpOj1r21w3Eho7dqWNRVQUwE2QmsAAAAAAAD4tiLABgAAAAAAAAAAAADAbWir0Np6y1q13oyrIM1ao5rnhkNrG6ngjW4lc/6tCrG5DfyoNrL8zEn9PDt91Pn8LwM/NgaDvg50qf3MHlAtZ0GzxZZqOXtVOo1V3UqmzplbxYU3pFW5stZyFhoyU3srF9+RemlRn79AZMRM7a0uf6CbxDKTT0loKGOm9ipXPtXBRxU4Cyd2mam9an5WVi+9K8mJQxId2WOm9uqlBSleeFOSux+UWHrSTO01VpekOP+qxHfeI9HkXnVT6vvyRkNrG1vWfD5fz/nuDgitAQAAAAAA4NuKABsAAAAAAAAAAAAAALeJ7YbWNrasJfc+Kt1WRRK77tVNWDcaWrtWrTgvpcW3JLnnIYml9pupvcbqJSnOvybDY/fJUPaAmdpTIaHC3Cu64Syx824ztdeuFSQ3e0qG0pMyPH6fmdrrNFd1y5lqnEvuedhM7XXbNd1KFoxlJL3vMTO1p1rCVCuZPxST9H4VUnTbctZZCz16/WstZzd4v11LNZjlneuhwo9Z1XLm3OduqL+rKZw/o9vistMqpBg2W27cesuaDilWrzr3zJT+rqnZjYbWaFkDAAAAAADAdwkBNgAAAAAAAAAAAAAAvqPWA2uDwcDT6/V82w2tbWxZC8UyuqVr4Pwvs/+wbv1yEyJSbVKFuTPSbdfXWsn8IbPFXmH+NWnXizpA5A9GzdRe6cKb0igv64BTIJwwU3srl96TenFeB7CC0ZSZ2lONZJWrn+kWOxUqdKty9XMpL38gqX2P62CcW7XCnJSceya19xGJJifM1F59ZVFKC2dlePx+GcpMm6m9ZvmyFM6/Iomd9+igolutWl4396l9Gx47aKbbsx5aUz/XW9baznrF+delmp9ZaxUcDKTfaxNaAwAAAAAAwG2LABsAAAAAAAAAAAAAAN8hm7Ws9ft9r5ptN7R2bcuaCtWoljPVwhYfvdN8kr1WNSf5udMSz96h13SrXS9JfvakDkuN7H7ATO11mhXJz5zQ50OFsNzqteuSmzkugUhS0vsfdyYuW8m6rbVWMudaqRCbx+M1W+yoNrL8zEn9PDt9dC005YIKKapAl9pP3XLmD5ottlTL2avSaayuhR6d43ZLt5w597VaT4Uy3VIhz3ppUZ+/QGTETDe3WWit12l8pWWt32lKLBqqRCKRhtfr7asHoTUAAAAAAADcrgiwAQAAAAAAAAAAAADwLbdZaG1jy5oKsKlHo9GIbDe0dm3LWnHhdWlV8zqQdDMCP6XFt6WxcnGt5SwybKb2Vpf+ItX8rGRVy1ksbab2ylc+kcrljyU9eVifG7equXPOPr4vqYnHJDKy20zt1Yrzzjl8S5J7HpJYar+Z2musXtIhxeGx+2Qoe8BM7alQVmHuFd1wlth5t5naa9cKkp89JbH0pAyP32em9jrNVcnNnNSNc8k9D5upvW67Jrlzx517LyPpfY+Z6Zr1wJpqUlPhvm8KrQ16nU1b1lRATQXYCK0BAAAAAADgdkWADQAAAAAAAAAAAACAb6GtQmvrLWu1eiuuG6s8Huc/zw2F1jbqNFbWAj8jeyS550EztddtVXWLWGgoK6mJQ2ZqT4WBcudOiD8cl8z+J/XxutHvtfV6qj0sM/WU65YzFWLKzZ5UT5z1jorXFzBb7KggVGHujHTb9bVWMuc6ulWYf03a9aJkp4+JPxg1U3ulC29Ko7y8FlIMJ8zU3sql96RenNfXIxhNmam98uWPpHL1M91iFxoaNVN7laufS3n5A0nte8z5bu38WsuaCrCp2XZCaxtb1nw+X8/57g4IrQEAAAAAAOB2RYANAAAAAAAAAAAAAIBvgfXA2mAw8PR6Pd/1QmvrLWsqLDWUmdYBMdUMpUJdNxJau9bq8odSzX0umckjOnjmVuXqp1Je/kjS+5+QcGKXmdpTDWwrl96V1N5HJZrca6b26qULUrzwhiR3P6ibv9xqri7pkFhi170SH73TTO21qjnJz52WePYOvaZb7XpJ8rMnnXM3ISO7HzBTe51mRfIqpJjY6VyTR8zUXq9dl9zMcQlEks4987gzcRlS7LZ0iNIbiOgQm9uQYk+t9/mfZOD8L7n7IWnV8l9pWdN/g+M8VDhyq9AaLWsAAAAAAAD4PiHABgAAAAAAAAAAAADA38hmLWv9ft+rZt8UWvN6fV+0rKnGNRXq0i1nex/VAbYbDa1tpNqjdMtZMCZpHfhx23LW0a1uan+yquXMcr/WqbYrFehS62anVctZ0Gyxo/5monD+Fem2KrqVzBcImy32iguvS6ua161k/tCQmdorLb4tjZWLay1nkWEztbe69Bd9z6jrEYylzdRe+conUrn8sb5fVHjSrWrunLOP70tq4jGJjOw2U3u14rxzDt+S5J6HJJbab6bbp+65jU1rqtVNnUN/KC6lC298pWUtEok0vF5vXz0IrQEAAAAAAABfIsAGAAAAAAAAAAAAAMBf0WahtY0tayrAph6NRiOyWWjNF4h8pWWtUVqU8uUPJbXvcYkMj5tPsVcrnJfSxbcltecRiaYmzNSeCl+pUNfw+P26Lc6tZvmyDp0ldt4t8R13mak91aKVnz3t7NuUDI/90EztdRorOrQXGdkjyT0Pmqm9bquqW8R0SHHikJnaU41haj0VwMrsf1KHHt1QbWO65cwXlIwKKbpsOVNBsdzsSfXEWU+FFANmi52Bs05h7ox023XJHjgmPud7s5VrQ2vNypWvNK31Ok3p97syFA1/rWVNBdRUgI3QGgAAAAAAAPAlAmwAAAAAAAAAAAAAANxiW4XWNras6VYxj0e3n31TaG1jy9qg39WBKUW1knm8fv3clgr8qEBXv9vUrWRev7uWM2dFKZx/VTqN1bUAkXMsbhUX3pBW5Yqznmo5i5upvZWL70q9tCAZ5/wFI0kztbe6/KFUc59LZvKIDp65Vbn6qZSXP5L0/icknNhlpvZUA9vKpXd1a180uddM7dVLF6R44Q1J7n5QYulJM7XXXF2Swvxrkth1r8RH7zRTe61qTjf3DWXvkGFnzWutB9acm1/f/5uF1jY2rV0bWtvYsubz+XrOd3dAaA0AAAAAAAD4EgE2AAAAAAAAAAAAAABusvXA2mAw8PR6Pd9WobWvtaz5wzrE9k2htWs1Vi9Jcf51GR47qEM6brUqVyU/d0biO+6UxM57zNReu16U/MxJiaYnZWT8PjO112mWdetXJDEmyb0Pm6m9brsmuXMnJBhLSXrf42ZqT4Wh1Hr+YEzSk4d1GNGNfq+jQ4rq+mdVy9k33AfbpQJbKtCl1lWhRx2adEH97Ylqxeu2Kjr06As4969LqrWvVc0766mQ4pCZ2istvq3bANV6gcjwpi1rKsCmZjcaWqNlDQAAAAAAALg+AmwAAAAAAAAAAAAAANwEm7Ws9ft9r5p9PbTWiYuoUJNHdt37dxIZ2f3VljWPVwfYrhdau5ZqrGrXimutZMGYmdorXXhLGuWltcBPOGGm9lYuvSf1wrxkpp+SYDRlpvbKlz+SypXPJDN5WELxUTO1V8l9LuWlDyS17zGJDI+bqb1a4byULr4tqT2PSDQ1Yab2VPhKhbqGx++Xocy0mdprli/r0Fl8592S2HGXmdpr1fK6uW8oMyXDYz80U3udxooO7anvRnLPQ2ZqT4Xrrp47rsNrI+MPbNqypv+Gxnn0e21CawAAAAAAAMBNRIANAAAAAAAAAAAAAABLm4XWNrasqQCbejQajci1TWu+YESquRlJ7LpXB362alnbSrtRWms5S07IyO4HzNSeCvyoFrFQfIekJh41U3sqKJTTAaIRSe9XLWcuW8m6Ld3C5nXOWWbqyFroz4VBv6sDU4pqJfN4/fq5rcGgrwNd/W5Tt5J5/e5azpwVpXD+NR3syh5QLWcRM7dXXHhDWpUra6HHUNxM7a1cfFfqpQXJOOcvGEmaqb3V5Q+d78jnkpk8IqGhrJnemI1Na5XLH0vJ2cehzKRzXdpfa1mLRCINr9fbVw9CawAAAAAAAMDNQ4ANAAAAAAAAAAAAAIAbsFVo7cuWtW7c6wvqJjWP81ChtVBi51ea1srLH+oWqNEDx3Swy63Vpb9INT+rA12hWMZM7ZWvfKJDP+n9T0rY2Xe3qvkZWb30nqQmHtPNWm7ViwtSXHxTkrsfklh6v5naa6xekuL865IYOyjx7B1maq9VuSr5uTMS33GnJHbeY6b22vXiWkgxPSkj4/eZqb1Os6xDgJHEmCT3Pmym9rrtmg49BmMpSe9TIUV3VPBMracaBdOTh/X3aCvrgTXVpKZChBub1prO9V368P+r3qTfGw0HvtaypgJqKsBGaA0AAAAAAAC4eQiwAQAAAAAAAAAAAACwhRsJrW1sWdOBNX9Yh9jWQ2sbm9a6raoOEIWGMjrU5Vav03TWO67btFTobDuBn+vp99q6lczrHJNqwbJth1unwkW52ZPOz75uOVPruqH+5qEwd0YHp1SLmD7XLhXmX5N2rbjWShaMmam90oW3pFFeco73aQmEE2Zqb+XS+1IvzK21nEVTZmqvfPkjqVz5zLm+hyUUHzVTe5Xc51Je+kBS+x6TyPC4mdqrFc5L6eLbktrziERTE2b6VRtb1tYDayrApmat8uWvNa1dG1rb2LLm8/l6zvdmQGgNAAAAAAAAuHkIsAEAAAAAAAAAAAAAcI31wNpgMPD0ej3fDYfWNrSseTxeHWBbD61dq3L1M93Elt7/uIQTY2Zqr1aYk9LFdyS191GJJveaqb166YIUL7whI+MPyFBmykztNcvLUjj/qiR23SPx0R+Yqb1WNSf5udMylL1Dhnfda6b22o3SWstZckJGdj9gpva6rYpuEQs590Nq4lEztaeaxHLnjuvGPnXPODfX2gZL/a4KKR537tWwbu7T96sLg35Xhx4VFVL0eP36uS3VopafPe3sZ1OHANV3Ss83Ca2pc7MeWNN/D+M8VAhzq9AaLWsAAAAAAADArUWADQAAAAAAAAAAAAAAx2Yta/1+36tm14bWavVmXAVzfIHw5qG1DS1rW+n3OpKfPSnOmyU7pQI/LlvOdODnlA7u6MCPL2i2WBoMJH/+FR3EUuup43SruHBWB8/Uev7QkJnaKy2+LY2VizowpYJdbq0u/UWq+Vkd6ArFMmZqr3zlE6lc/li34oWde8Wtan5GVi+9p1v7IiO7zdRevbggxcU3Jbn7IYml95upvcbqJSnOvy6JsYMSz95hpvZalatfhBRjmclvDK1tbFmLRCINr9fbVw9CawAAAAAAAMDfFgE2AAAAAAAAAAAAAMD31mahtY0tayrAph6NRiOysWlNBYc6jRXdIjY8dt8Nh9aupcJXxYXX9VpD2QNmaq9ZuSyFuVckvvNuSey4y0zttWsFyc2e0g1sw2M/NFN7ncaq5GZO6PBVcs9DZmqv26rq9UJDGX1t3Op1mrqVzB+K69CZx+Oy5aynWs5Oite5fzKTR9yHFPs9fT3UTxXaU+u6of52pDB3RrrtmmQPPK3vY7cK8685901Rr+cPxsz0xqy3rKkQ5crFd5zvySUdYFNhz81Ca9e2rKmAmgqwEVoDAAAAAAAA/rYIsAEAAAAAAAAAAAAAvle2Cq2tt6ypwJpuL/N4dIBpY9NaaCirG7BUC9ToHT8WXzBqVrc1kML513QoTrecuV5PpHjhDWmVr6y1nIXjZmpv5eK7Ui8tSGbqqASjSTO1t7r8oVRzn+tAlzqfblWufiZlZ830vsclPDxmpvZqhTkpXXxHUnsflWhyr5naq5cu6GsyMv6ADgK61SwvO/fMqzpEGR/9gZnaU4146y1nw7vuNVN77UZJ8jMnnXM3ISO7HzDTra2H1ja2rKkAW8dZT4XiqrlzOsD2TaG1jS1rPp+v53x3B4TWAAAAAAAAgL8tAmwAAAAAAAAAAAAAgNvaemBtMBh4er2eb6vQ2nrL2heBNdVG5fFIOL7jK01rqpUsf/6MxEfvlMTOe8yn2WvXi5KfPSXR1D4ZGb/fTO11muW1lrPELknufcRM7XXbdd1KFoymdEjMrV63Jblzx8UfjEp68rBzir1mi51+r+Ocv5M63JSdOuq+5WzQ19dDtaepEKAOM7oxGDj3yyvSbVXWQoqBiNlgr7hwVgfPdEgxNGSm9kqLquVs0VnvqAQiI2Zqb3XpL1LNz0pm6oiEYhkz/brNQmu9TuOLljX9ty3Oo9dtSCwSum5ojZY1AAAAAAAA4NuHABsAAAAAAAAAAAAA4LazWctav9/3qtm2QmuByJeBNRWs8nh0aO3aUFRp8S1prC6tBX7Cw2Zqb+XS+1IvzElm6ikJxtJmaq98+WOpXPlU0pNP6uNxS7VfrS69L6l9j0tkeNxM7dWK551z+LYk9zwssdQ+M7XXWLkoxYXXZXjsPhnKHjBTeypIVZg7I/Gdd0tix11mak+FHnOzp3QD2/DYD83UXqexuhZSHNntnMOHzNRet1XV64WGMpKaeMxM7fU6TR169Ifikt7/pPM18pgtW4fW+s58vWUtEok0vF5vXz0IrQEAAAAAAADfPQTYAAAAAAAAAAAAAAC3hc1Caxtb1lSATT0ajUakVm/FvYHwN4fWTMvaVi1eOvBz7riEnH+XmnjUTO2pAI9aLxAZlvT+J5zJl4EfG/1uWweS1DGpFiy3LWeDftdZ76R+npk+6pw/v35uS7eczZ2RvnPcuuXM2U93BlI4/5p0GiVnvWPiC0bN3F7xwps6VJVx9i8QjpupvZWL70q9tOBcj6MSjCbN1F55+UOp5D6XzOQRCQ1lzdRe5epnek3VshceHjNTe7XCnJQuviOpvY9IZHj3tkNr17asqYCaCrARWgMAAAAAAAC+ewiwAQAAAAAAAAAAAAC+s7YKrW1sWfP6grpJTYVnYulJHThTwbMbDa1dSzWclS9/pBumwomdZmqvmp+R1UvvSXLikERH9pipPRWWUiGs5O4H9XG7pRrnivOvSWLXQYmP3mGm9lrVqzrEFh+9UxI77zFTe+16UfKzpySa2icj4/ebqb1Os7zWcpbYJcm9j5ipvW67rlvJgtGUDom51eu2dOjRH4xKevKw65Biv9dxzt9J57vilezU0Rv+PmykvmvqeIvzr+r9VE176vpsN7S2sWXN5/P1PB7PgNAaAAAAAAAA8N1DgA0AAAAAAAAAAAAA8J1yI6E1jy/w1ZY1f1j6/Y7U8rMSiIzoAJFqXnMT0lGBH91y5vVLZuopV2spKvSjAlj9fnetlcw5BjfU3wUUzp+Rbqsm2QNP63PgVmH+dWnX8s56x8QfjJmpvdLiWzoYl50+KoHwsJnaW730vm7+UtcjGEubqb3y5Y91UDE9+aQOPLpVzZ2T1aX3JeXcf5HhcTO1Vyued87h2zogFkvtM1N7jZWLUlx4XYbH7pOh7AEz3R51/17bstauF/Q1UY14K85+bje0RssaAAAAAAAAcHsgwAYAAAAAAAAAAAAA+FZbD6wNBgNPr9fz3XBoLRD5smVNtVN5PNJcXZKVS+9LauIRiSYnzCfZq68sSmnhrAyPPyBDmSkztdcsL0vh/Ku6kSy+4wdmaq9VzUt+7pQOIw3vOmim9jqNFcnNnHTO3R4Z2f2gmdrrtqq6RUw14qlmPLdUw5daLxAZlvT+J5yJZ22DpX63vRZSdO6hzNQR1y1ng35Xnz8lM31Uhx/dGAz6usWu7xy3Dj06++mOCj2+5lznkrPeMR08u57NQmsbW9bU36b0e20d9hyKhgmtAQAAAAAAAN8zBNgAAAAAAAAAAAAAAN86m7Ws9ft9r5rdcGjNmavWsY3NaDrwo1rOum3dSub1Bc0WWwPJn39Vuo1V3UqmPt+t4sJZaVWv6gCRPzRkpvZWLr4j9dLiWstZZMRM7a0ufSDV/IwOdIViGTO1pxrOypc/kvT+JyXsXEO31L6tXnpPkhOHJDqyx0zt1UsLUrzwpiR3Pyix9KSZ2lONc8X51ySx66DER+8wU3vqXlEhtvjonTr46Fa7XtTfkWhqn4yM32+mX9oqtLaxZS0SiTS8Xm9fPQitAQAAAAAAAN8/BNgAAAAAAAAAAAAAAN8Km4XWNrasqQCbejQajYhNaO1aKnBTUIGfHXdJYufdZmqvXStIbvaUDGUmZXjsPjO112mu6tavyPC4JPc8bKb2uu2abiULxjKS3veYmdrrdZrO/h3X4br0/sPi8bhsOet11lrOvH7JTD113Wu3HSpYpUOK/e5aK5lzv7ih/r6icP6MdFs1HXpU95dbhfnXnfsmr0OP/mDMTO2VFt/SwTgdUgwPm6m91UvvS7UwJ1nneqjQowqsOSdCB0C3Cq1d27KmAmoqwEZoDQAAAAAAAPj+IcAGAAAAAAAAAAAAAPib2Sq0trFlTQWQVBhJBWh23fO/SiS594ZDa9cqXXhTGuVlHXAKhBNmam/l0ntSL87rAFYwmjJTe+Xlj6SS+0wyk4clNDRqpvYqVz9z1vxQUvsel8jwmJnaqxXmpHTxHUntfUSiyQkztVdfWZTSwlkZHn9AhjJTZmqv6VzbwvlXdSNZfMcPzNReq5qX/NxpGcpOy/Cug2Zqr9NYkdzMSefc7ZGR3Q+aqb1uq6pDiqH4qKQmDpmpPbXe1c9f1iHF4bEfSrNyVX//VJBtO6G1jS1rPp+v5/F4BoTWAAAAAAAAgO8fAmwAAAAAAAAAAAAAgL+a9cDaYDDw9Ho931ahtWtb1lRQZnX5A4mP/kBGdj9gFVrbqNOsSH7muLP2Lh3CcqvXrstVZ71gJCnp/U+YqT3VcqVayVRQLz2pWs68ZosdFQDMO+uJeCU7rVrO/GsbLKkmLt1y1m3rVjKvL2i22FItZ69Kp7GqW8nUcbtVXDgrrepV53iP6SCWWysX35F6aXGt5SwyYqb2Vpc+kGp+RjJTRyQUy5ipvcqVT6V8+SPn/ntSws535kap5joVUFM/1f23cvFdZ81PJBhL6Wuj/87EefR77S1Da7SsAQAAAAAAAFAIsAEAAAAAAAAAAAAAbqnNWtb6/b5XzbYTWvtKy5rHq8M5jZWLkpk+elMCP+XLH+uAjgqIqc9xq5o7J6tL70tq4jGJjOw2U3u14ryUFt+S5J6HJZbaZ6b2GiuXpLjwmgyP3SdD2QNmaq9ZuSKFuTMS33GXJHbebab22rWC5GZPyVBmUu+jW53mqg4BRobH9Tl0q9uu6ZazoHPvpfc9Zqb2ep2ms3/HdbguvV+FFD1mi51+r6OP1+v16ybA7YQ7rw2tqWva6zR0y9ryx//izBp6WywarkQikYbX6+2rB6E1AAAAAAAAANtBgA0AAAAAAAAAAAAAcNNtFlrb2LKmAmzq0Wg0IluG1q5pWVPBmty5E+IPJyQzqVrO3AZ+2no9rz+4Fvhx2XI26Hd1AMt54qynWsnct5ypgFivU9ctYuqcuKWatNqNkow66/mCUTO1V7rwpjTKy87+PS0B57q4tXLpPakX5/X1CEZTZmqvvPyRVHKfOffLYQkNjZqpvcrVz5w1P5TUvsclMjxmpvZqhTkpXXxHtwBGkxNmaq++siilhbMyPP6ADGWmzPSrrhdau/zJv0jfmavGw81a1lRATQXYCK0BAAAAAAAA2A4CbAAAAAAAAAAAAACAm2Kr0NrGljWvLyji8ei2qe2E1q5Vzc/KyqV3JbX3kESTe8zUXr10QYoX3pDk7gcllp40U3uN1SUpzr8miV33Snz0TjO116rmJD93WuLZO/SabrXrJcnPnpRoakJGxh8wU3udZkXyM8ed67hLh7Dc6rXrctVZLxhJSnq/Cim6owJaqpVM3WOqac9tSLHf7zrHe8J55pXstGo5cx9SzM+e1vuZPaBCj873w5WBDil2GqvOesf0ca8H1pwP0593o6G1jS1rPp+v53x3B4TWAAAAAAAAAGwHATYAAAAAAAAAAAAAgLXth9Y6cf0PPF4Zu/ffSHh4TAfUVIhtu6G1jVQYJz97SgeJVOuX1xcwW+yo350Xzr8i3VZFt5z5As6+uVScf11atbwOEPmDMTO1V1p8WxorF9daziLDZmpvdekvOgiYVS1nsbSZ2itf/lgqVz7RATF1Td2q5s45+/i+pCYek8jIbjO1VyvOO+fwLUnueVhiqX1maq+xckmKC6/J8Nh9MpQ9YKb2VJisMPeKxHf8QBI77zZTe+1aQYf21LmL77jri8CaCrCpINuNhtZoWQMAAAAAAABgiwAbAAAAAAAAAAAAAGDb1gNrg8HA0+v1fFs1rXl8AfF6fbplzePzS61wXlJ7H5Wh0TvWWrA8nm2H1q7VLF/WoTMV9lEBHbdU2Ey1YA1lpmV47KCZ2us0ViQ3c1IiyT262c2tbqvqrHdcQkOjkpo4ZKb2VPNW7twJ8YcTklEtZ861cKPfa+v1vP6gZKaeWru+Lgz6XcnNnlJPnPWO3oSQYl8Kc2ec467rkKIKTbpVOP+atBtFGVWhx2DUTO2VLrwpjfLyWkjRuS421pvW1M+Vi+9K5eqnMpS9Q3rO/aMCa/rvRJyHul6E1gAAAAAAAAD8NRBgAwAAAAAAAAAAAABc12Yta/1+36tmW4XWQomd4gtEvmhZUw1YvXZdRg/8Tzcl8FNceENalSuSPfC0+ENrJW9uqMBPvbQgmemnJRgZMVN7q8sf6CaxzOQRCQ1lzdRe5cqnUr78kaT3PyHhxC4ztaca2FYuvSupvYckmtxjpvbqpQtSvPCGDuzF0pNmaq+xuiTF+dckseteiY/eaab2WtWc5OdOSzx7h17TrXa9JPnZkxJNTcjI+ANmaq/TrEhehRSda5va+4iZbm1jaG29aU0FFBulRVn+6CXzLtGBtUgk0vB6vX31ILQGAAAAAAAA4K+BABsAAAAAAAAAAAAA4Gs2C61tbFlTATb1aDQaka1Ca6pdbb1lrV0vSn7mpETTkzIyfp/5NHudZllyMyckMjwmyT0Pm6m9brumW8SCsZSk9z1upvZUqEi3nAVjkp48LB7XLWcdfbwer1+yquXMorluIxV4ys+ekn6/q1u/3LecDXQrXrdV0S1nvkDYbLFXnH9dt+NlDxzT59Gt0uLb0li5uNZyFhk2U3urS3/RQUB1PYKxtJnaK1/+WCpXPtH3i/oObWY9sKaa1FSz3MbQWqt8WTet9Z33DJz7ZbOWNRVQUwE2QmsAAAAAAAAA/hoIsAEAAAAAAAAAAAAAtK1Caxtb1ry+oIjHowNZW4XWrrVy6T2pF+YlM/2UBKMpM7WnGskqVz6TzORhCcVHzdRe5ernUl7+QFL7HpPI8LiZ2qsVzkvp4tuS2vOIbupyq7GyKMWFszI8fr8MZabN1F6zfFmHzhI775b4jrvM1J4Km+VnT+t9Gx47aKb2Oo0Vyc2clEhyj252c6vbqjrrHZfQ0KikJg6ZqT0VGtMhxXBCMvuf0N8LN/q9tl7P6w9KRoUUPV4936xlTQXY1Gw7obWNLWs+n6/nfHcHhNYAAAAAAAAA/DUQYAMAAAAAAAAAAACA76n1wNpgMPD0ej3f9UJr1Xoz7vX6daPWF4E1f1iHdbYTWtuo16nrgE4gMiLp/arlzGXgp9vSrWReZ98yk0e+CPzYGvS7OjClZKePOsfj189tqYYsFejqd5u6lUwFk9xRLWevSqexqlvJVHDQreLCG9KqXHHWe1r8obiZ2lu5+K7USwuSmX5ags51dmt1+QOp5s7p6xsaypqpvcqVT3XwMb3/CQkndpmpPdXAtnLpXUntPSTR5B4ztVcvXdDXRLUUhofHvhJa29iypv/mw3mo0NtWoTVa1gAAAAAAAAD8rRBgAwAAAAAAAAAAAIDvkc1a1vr9vlfNNmta8/gC4vX6ZGTPw9Jr12Rk/H7d0qUDayoo5vFsK7R2rWpuRlaX3pPUxGMSGdltpvbqxXkpLr4lyd0PSSy930ztNVYvSXH+dd0gNpS9w0ztqXBYfu4V59z9QDedudWuFyU/c1Ki6UkdcnKr0yzrEGBkeEySzrV2q+vcKyqkGIylJL1PhRTdUS1juuUsGJP05GHntnPbctbRx6vCiVnVcnaD9++1VMAsP3tK+v2uZKefFq/zvbGlm9Y6DSnMv6bb52KZKT3brGUtEok0vF5vXz0IrQEAAAAAAAD4tiLABgAAAAAAAAAAAAC3uc1Caxtb1lSATT0ajUZkY2jti6a1QESC0ZSUFt8Snz+kW7+8PnctYiqQk5s9KdLvS2b6qKvAj6Jazgpzr+jglG4lc/bTLRUgateKa61kwZiZ2itdeEsa5SUdcAqEE2Zqb+XSe1IvzDvn7yl9fdxSjWSVK59JZvKwhOKjZmqvcvVzKS9/IKl9j0lkeNxM7dUK56V08W1J7XlEoqkJM7XXWFmU4sJZGR6/X4Yy02Zqr1m+LIXzr+iAogp53ggdWus29c/1pjUVeixeeENq+VkRj/eL0Nq1LWsqoKYCbITWAAAAAAAAAHxbEWADAAAAAAAAAAAAgNvQVqG1jS1rOozm8ehWq42htXB8x1rTmtenW9Z0K9mFNyQ5/oBuhXKrWV6WwvlXJbHrXomP3mmm9lrVnOTnTuvGtGFnTbfa9ZLkZ09KNDkhI7sfMFN73VZFt4iFEjsktfdRM7XX69T1eoHIiKT3q5Yzl61k3ZZuJfMGwpKZPOLcD16zxc6g33XWO6mfZ6eP6rYzN1RIMT972tnPprPeMefedBeidFbU91+nsboWenTuebeKC2/o4JkOPYbiZvp164E156D0ca2H1lTz2samtX6nKbFo6GuhtY0taz6fr+d8dweE1gAAAAAAAAB8WxFgAwAAAAAAAAAAAIDbxI2E1r7WsuYP6xDbtaE19fMLg4Hkz7+ig1iqRezmBH7O6uCZWs8fGjJTe6XFt6WxcnGt5SwybKb2Vpf+ItX8rGSmnpJQLG2m9spXPpHK5Y8lPfmkc653mqm9am7G2cf3JDXxmERGdpupvXpxXoqLb0ly90MSS+83U3s69Dj/ugyPHdTBQrdUOCw/94rEd/xAN5251a4XJT9zUqLpSRkZv89M7XWaZR0CjAyPSXLPw2a6ZrOWNfWdUrONobVvalrbGFqjZQ0AAAAAAADAdwkBNgAAAAAAAAAAAAD4jloPrA0GA0+v1/NdL7RWa7TiXn/4q6G1jS1rqm3L4/l6aO0arVpB8rOnZCgzJcNjPzRTe6r9Sgd+RnZLcs9DZmqv26rq9UJDWUlNHDJTe71O01nvuG7Tyux/Up8jN/q9tt4/1XqXmVItZ998rrdDhaFysyedhfuSmT7qrBswW+yoNrDC3CvSbdfWWsmce8Otwvxr0q4V11rJgjEztVe68JY0yktrIcVwwkztrVx6T+qFeef8PSXBaMpM7ZUvfySVK5/pkGIolvlaaG1jy5r+mw3noe4LQmsAAAAAAAAAblcE2AAAAAAAAAAAAADgO2SzlrV+v+9Vs29qWpNBX4ayByS173Ed0Lluy9o2rFx8V+qlBclMHXXWS5qpvdXlD6Wa+1wyk0d08MytytXPpOysmd7/hIQTu8zUXi0/K6VL70pq76MSTe41U3v10gUpXnhDkuMPSCwzZab2muVlKZx/VRK77pX46J1mak814uXnTuvGtGFnTbfa9ZLkZ086525CRnY/YKb2VANg7twJCSV26GviVq9T1+sFIiPOPfO4M3EXUuy163L18z8537GgDI/fr8/nxtDaxpa1SCTS8Hq9ffUgtAYAAAAAAADgdkWADQAAAAAAAAAAAAC+5TYLrW1sWVMBNvVoNBqR9dDaxqY1FWCr5eckMjIuI3sesgqtbdRtq8DPcQnGUpLepwI/7vS6Lb2ePxiV9OThtTY4F/q9juRnTopzEiQ7ddTVsSqDQU/ys6d1S5Zq/VLtaa4MBpI//4oOYqn1VBOeW8WFszoopdbzh4bM1F5p8W1prFxcazmLDJupvdWlv0g1PyuZqackFEubqb3ylU+kcvlj3XIWjjv3uEvV3Iyzj+9JauIx3QZ4I1S7mmpZU9dVNdippjV1vCpEqUJxxYXXvxJau7ZlTQXUVICN0BoAAAAAAACA2xUBNgAAAAAAAAAAAAD4FtoqtLaxZU0Hqjwe5z/PF6E1FYra2LRWK8xJ9apqOTssIWfulmpMW136QFL7HpPI8LiZ2qsVzkvp4tuS2vOwRFP7zNSeCl+p4NDw2P0ylJ02U3vNymUpzL0i8Z13S2LHXWZqr1UrSH72lAxlppx9/KGZ2us0ViU3c0KHr5J7HjJTe91WVa+nGvFSE4fM1F6v03TWOy7+UFwy+5/U96sbKkyo9k/d+5mpI85yLkOK/Z7kZk86C/clM33UWTdgtmxuPbSmfqrAWrNyRQfY1Gy9aU0d86DflVg0/LXQ2saWNZ/P13O+uwNCawAAAAAAAABuVwTYAAAAAAAAAAAAAOBbYD2wNhgMPL1ez7dVaO3aljXVqqZCQRtDaxub1vpdFfg57mwLm8CPu5YzFczJqZYzhw78eP36uS3VXJWfOy39TnOt5cw5BncGUjj/mnQaK5I9oFrOomZur3jhDWmVr+j1VBDLrZWL70q9tOBcj6MSjCbN1N7q8oc6WJiZPKKDZ25Vrn6mW8TS+5+QcGKXmdqr5WeldOldSe19VKLJvWZqr166oK9JcvwBiWWmzNRes7zs3DOvSmLXPRIf/YGZfmmz0Fqv0/gisKb//sJ5qHDdZk1rG0NrtKwBAAAAAAAA+D4hwAYAAAAAAAAAAAAAfyObtaz1+32vmm0rtLaxZU0F0jyer4TWrlUvLkhx8U1J7n5IYun9ZmqvsbokxfnXJLHroMRH7zBTe63KVcnPnZH4jjslsfMeM7XXrhd1y5lqdBsZv99M7XWaZd36FUnskuTeR8zUXrddl9y54xKMpSS973EztdfrtvR6/mBU0pOHXYcU+72O5FVI0euV7NTRb7yvtmsw6DnX47QOeOmQomoOdGMwkPz5V6Tbquj11PfBreLCWWlVc3o9f2hoy9Ba35kPnPOkAmuRSKTh9Xr76kFoDQAAAAAAAAC+RIANAAAAAAAAAAAAAP6KNgutbWxZUwE29Wg0GpF6s7NW8+Xxyti9fy/h4fGvhtauaVnbivr9cGHujHTbtbVWMtXa5lJh/jVp1wrOesfEH4yZqb3S4ls6GKcCRIFwwkztrVx6X+qFOd0SF4ymzNRe+fLHUrnyqaQnn9TXwS3VmLa69IGk9j0mEef6ulUrnJfSxbcltedhHdxzq7FyUYoLr8vw2P0ylJ02U3vNymXnHnxF4jvvlsSOu8zUXsu591RIcSgz5ezjD83UnmrsUyHAUHxUBzO3Cq1d27KmAmoqwEZoDQAAAAAAAAC+RIANAAAAAAAAAAAAAG6xrUJrG1vWdCuVx+P859FNayqoVs3PSnL3Azr0c6OhtWupdqn83GkZyh6Q4V0HzdReu7Ei+ZkTEk3ulZHdD5qpPdWmlTt3QkLxHZKaeNRM7angkQokBSLDkt7/hDPxrG2w1O+2JTdz3LkuYclMHXHdcjbod531TurnKmTn9fr1c1uDQV9f336nudZy5tw/7gykcP41HezSocdA1MztFS+8Ia3yFb2eP7SW0XRj5eK7Ui8tONdDhRSTZrp96y1rqtFNnb/Vpb9IeflDHdjrtRtbhtY2tqz5fL6e890dEFoDAAAAAAAAgC8RYAMAAAAAAAAAAACAW+BGQmseX0C8Xp8OrIUSO9ea0TyeL5rWVi69pwNEo6rl7CYEfkoX35FGaVGy00clEBkxU3uqQayan9GBrlAsY6b2Klc+0U1n6f1PStg5H26pfVt1zmFy4pBER/aYqb16cUGKi29KcvdDEkvvN1N7qnGuOP+abvyKj95hpvZalauSnzsj8R13SmLnPWZqr10v6pYz1eg2Mn6/mdrrNMuSmzkhkcQuSe59xEztddt1HVIMxlKS3ve4mV7femhN/VxvWVMBNjVTrXPLH72kXzv/J9Fw4LqhNVrWAAAAAAAAAOD6CLABAAAAAAAAAAAAwE2wHlgbDAaeXq/nu+HQWiDyRWBNt3p5PF80rXUaq2uBn5HdktzzkPlEe912TQd+VNgste8xM7XX6zR1K5kK16nQmWqPc6Pf6+jjVW1kmamnrNvm1qmQkgpg9fvdtVYy59y7oX7PXjh/Rrqt2lormQoculSYf03atYKz3jHxB2Nmaq+0+JYOxqnjDYQTZmpv5dL7Ui/M6Za4YDRlpvZUQLFy5VNJTz6p73u3qrnPdXNaat/jEhkeN9Ov2iy0phr6WuXLumVN//2E8+j32ls2rRFaAwAAAAAAAIDtI8AGAAAAAAAAAAAAAJY2a1nr9/teNbvh0JozXw+sbaa8/KFUcp9LZvKIhIayZmqvcvUzveZa4GfMTO3VCnO62S2191GJJveaqb16aVGKF87KyPgDMpSZMlN7zfKyFM6/qhvJ4jt+YKb2WtW85OdOyVD2gAzvOmim9tqNFcnPnNDnbmT3g2Zqr9uqSO7cCQk591dq4lEztaeCXir0GIgMS3r/E87EZUix29ahR69zz6vmPh3adGHQ7zrrndTPVchOhR+VrUJrfWc+6HV0YC0SiTS8Xm9fPQitAQAAAAAAAMDNQ4ANAAAAAAAAAAAAAG7AZqG1jS1rKsCmHo1GI1KtN+MqSOMLhK1Caxup8I0K/PgCUUlPHnYd+On3upKfPSHOh0tWt5ytBX5sDQb9tZazblu3knl9QbPF1kDyc69Kt7mqW8nUeXOruHBWWtWrkp0+Jv7QkJnaU4G9RmnRWe+oBCIjZmpvdekDqeZndKBLteO5VbnyiW46U614Yefec0vt2+ql9yQ5cUiiI3vM1F69uCDFxTclufshiaX3m6m9xuolHVKMZ++QWGZK35NbhdaubVlTATUVYCO0BgAAAAAAAAA3DwE2AAAAAAAAAAAAANjCVqG1jS1rOrjl8Tj/eSS591HdhDU89kPd/HWjobVr1YrzUlp8S5J7HpZYap+Z2musXJTiwuvO/t2nm8TcUkGhwtwZie+4yzneu83UXrtWkNzsKRnKTOp9dKvTXNWtZJGR3c45fMhM7XXbNd1KpsJmqX2Pmam9XqepQ4r+UFyHztQ95Ea/13HWO6HbyDI6pHjj99xGqsVMhxT7XclOq5BiwGyxo/5eoXD+jPMdqenQo/pe2NjYslacf03qK4tf3C/bCa1tbFnz+Xw957wPCK0BAAAAAAAAwM1DgA0AAAAAAAAAAAAArrEeWBsMBp5er+fbKrTm8QXE6/V92bKmgjgejw42lS6+LR7nf9k7/ifrgM461SilAmKqTUoHiPwhs8WeaqxqN0oyOn1MfMGomdorXnhTWuVlyTjrBcJxM7W3cuk9qRfnJTN1VILRpJnaKy9/KJXc55KZPCyhoVEztVe5+pleM7XvcYkMj5mpvVphTje7pfY+KtHkXjO1Vy8tOtfkrIyMPyBDmSkztdd0rq26Z1QgM77jB2Zqr1XNS37ulA5QDu86aKZb2xha29iyVi+cl8uf/Hfn6+fVrYL9XnvL0BotawAAAAAAAABwaxFgAwAAAAAAAAAAAADHZi1r/X7fq2bbCq0FIhKO71hrWfN4dYBNBdaalctSnH9dErvulfjonebT7LWqVyWvWs6ydzpr3mOm9tr1kuRnT0o0tU9Gxu83U3udZlm3fkUSuyS59xEztddr1+XqzHEJRpKS3v+EmdpTYSe1f+p6pScPr10rF/q9rnP+TjjX2ytZ3XLmN1vsqJCibjnrtnUrmW70c2Xg3C+vSre56qx3TB+3W8WFs/o+zE4fE39oyEztqcBeo7TorHdUApERM/26bwqtbdayFolEGl6vt68ehNYAAAAAAAAA4G+LABsAAAAAAAAAAACA763NQmsbW9ZUgE09Go1GZMvQmjNXgTX181oqwNaq5XWAyB+Mmam90uLb0li9qFvYAuFhM7W3uvS+VPNzOoAVjKXN1F758sdSufKJDoip8+NWNXdO72Nq4jGJjOw2U3u14rxzDt+S5J6HJZbaZ6b2GisXpbjwugyP3aebxNxSwSzVtBffcZckdt5tpvbatYLkZk/JUGZS76Nbneaq5M6d0NciuechM7XXbdec9Y7rxsLUvsfMdM2NhNaubVlTATUVYCO0BgAAAAAAAAB/WwTYAAAAAAAAAAAAAHyvbBVaW29Zq9YacRVM8/oC4vF4bji0tlGnsSK5mZMSTe6Rkd0Pmqm9bqvqrHdcQkOjkpo4ZKb2VCBIBYj84WHJTKqWM8/aBkv9XlsHnLz+oGRUK5nLlrNBv6sDWM4TyUw/Ld6b0HKmAmLquFUIUF1LtwrnX5V2oySj08fEF4yaqb3ihTelVV7WxxsIJ8zU3sql96RenHeux1EJRpNmaq+8/KFUcp8798thfR+6Vbn6mbPmB/p+DkRT6iLp63SjobWNLWs+n6/nfHcHhNYAAAAAAAAA4G+LABsAAAAAAAAAAACA2952Q2sbW9ZUU5UKTo3seUj8ofgNh9autbr8gW4Sy0w+JaGhjJnaq1z5VMqXP5L0/icknNhlpvaq+VlZufSupPYe0kE7t+qlBR3CSu5+UGLpSTO111hdkuL8a5LYda/ER+80U3ut6lXJq5az7B16Tbfa9ZLkZ09KNLVPRsbvN1N7nWZZcjMnJOJc2+TeR8zUXq9dl6szxyUYSep7xi0VLFP7pwKdqmnPTUhRtaupUGZ+7rR+HkurVjyvbl670dAaLWsAAAAAAAAA8O1DgA0AAAAAAAAAAADAbWc9sDYYDDy9Xs+33dDaxpa1QDgupQtvSTCW1gEim9DaRiqMo1rJ/KGYpPerwI/blrOODhCpNjLdcuZi3xQVHMrPnpJ+v7vWSuacEzfU76IL58/oYFJWtZIFwmaLveL869Kq5SV74Jj4gzEztVdafFsaqxf18QbCw2Zqb3Xpfanm5yTrXA9137hVvvyxVK58ogNiKkDplgpQqn1MTTwmkZHdZmqvVpx3zuFbktzzsMRSKnS2fep+U98J9XO9Za2xclFWLr7jrHve+X4497NzD6k2P0JrAAAAAAAAAPDdRoANAAAAAAAAAAAAwG1FBdNUUO299967v9/ve1WQbbuhtWtb1qr5GSkvfyipfY9LZHjMfIK9WmFOShffkdTeRySanDBTe/WVRSktnJXh8ftlKDNtpvaa5ctSOP+KJHbeLfEdd5mpPRU2y8+e1vs2PHbQTO11GiuSmzkpkeQe3ezmlgrX5WaOS2hoVFITh8zUXq/TkNy54+IPD0tmUrWcuQ0ptnXo0esProUUXbScKapRMDd7Sj2RjAopev1mi52Bs05h7ow+bh16dL4717NZaE39240ta/1OU2LRUCUSiTS8Xm9fPQitAQAAAAAAAMB3GwE2AAAAAAAAAAAAALeVUqmUfOeddx78h3/4h/+j1WqFHC0VXGu0ekPbCa1tbDJTbWT5mZP6eXb6qLPNfeBHBbpUeGct8BM0W2yplrNXpdNY1a1k6njcKi68Ia3KFWe9p8UfipupPdWoVS9dWGs5i4yYqb3V5Q90k1hm8ikJDWXM1F7lyqdSvvyRpPc/IeHELjO1V83PysqldyW195BEk3vM1F69tCDFC2/qwF4sPWmm9hqrS1Kcf00Su+6V+OidZmqvVb0q+bkzEs/eodfcaD2wpprU1L3/TaG1Qa+zacuaCqipABuhNQAAAAAAAAD4biPABgAAAAAAAAAAAOC2ksvlsmfOnDn805/+9PfqtQqd+YJRGbvn77YVWrtWY/WSDvwMj90nQ9kDZmpPBXgKc69IfMcPdNOZW+16QfIzpySanpSR8fvM1F6nubrWcjY8Jsk9D5upvW67plvJgrGMpPc9Zqb2VCBKtZL5QzFJ7z8sHo/blrOOc7wndBuZbjm7zr2wHSq0lZ89pcOPOqToC5gtdtTv9FUrXrdVcdZTIcWw2WKvOP+6bsdToUd/MGam9kqLb0tj5aIOearQ47UtayrApmbbCa1tbFnz+Xw95/oOCK0BAAAAAAAAwHcbATYAAAAAAAAAAAAAt5WrV6+Onjhx4ulnn332RfV67N6/181VsczUtkNr1yrMvybtelEHiPzBqJnaK114Uxrl5bVWsnDCTO2tXHpP6sV5HcAKRlNmak81klWufiaZycMSGho1U3uVq59LefkDSe17XAfj3KoV5qR08R1J7XlEoqkJM7VXX1mU0sJZGR6/X4Yy02Zqr1m+rENnKqAY33GXmdpTYTPV3Kf2bXjsoJna6zRW1kKKyT262c0t1QB49fOXJRhLO8d8z9da1vTfJTiPfq+9ZWiNljUAAAAAAAAAuP0QYAMAAAAAAAAAAABwW1ENbKdPnz7yzDPP/E69nnj0/yrDu+6VcGKnqDY2G+16SfKzJyWanJCR3Q+YqT3VpqVaxEKJHZLa+6iZ2uu167pFLBAZkfT+x52Jy1aybmutlSwQ0SE2j8drtthRbWT5mZP6uWrpsr0O6waDvg50qf3ULWf+oNliS7WcvaqDWKqVTLX0uVVceENalSvOek/rVjK3Vi6+I/XSBck4xxt0rrNbq8sfSDV3zrm+T0loKGOm26ca1jY2ralQZjU/o5v2CnPOtdnQshaJRBper7evHoTWAAAAAAAAAOD7x/frX//aPAUAAAAAAAAAAACA7752ux26evXqjpdeeunvW61WKDoyLkPZA+IPxqyDWCrQpNqjaoXzEh4aFZ/LFjbVBKdCWLX8rARjKfGHhswWO15fQP+s5WckEB523eqmAmbqUc2f041zwUjSbLGjzrs65pqznvqpmrrc8Hg8+pqo8+fxeiU0lDVbbHn0NVDrqeuiwo5u+cPOesV5fd/cjNY5v3NNVYBNhRWjI7vN1F4gMiyNlUvSba1KZGSvPqfXowNrnYb0u20dXOu2qs6/vyjNymWpXvlUlj/6b87rRanmPpdIyFuJx8LlRDy2+stf/vL/9dxzz/1WNSL+9Kc//f3hw4fPTE9Pz46Pj1/KZDKFeDyuAm5Nn8/XNx8FAAAAAAAAALjNEGADAAAAAAAAAAAAcFvx+/09FYaJRqONkydPHq0XF2R47IcSiCTE67Nv6lKhsMbqRek0yxId2aNSVGaLHRUgapaXpVMvSTS5xzpct061rzWrV6VdzUlEref1mS121PF2agVnHy/r9bwuW9P0es1VfQ4jw7u/CN3ZUoGzXruqQ13hxC7x+UNmix0ViOt1W1IvzksoPuq6hc3nD8ug35VaYU5CsbQOULqxfu/qkKJzrQNhd61u6nqqe0SFFAPBIb3mtdZDa73Ol4E1db82K1d0aG3xnf9dSotvSfnyRxIJSiU+FCsPJ+I6tPbv//2//+2/+3f/7v+zMbA2Nja2TGgNAAAAAAAAAL5/CLABAAAAAAAAAAAAuK2oUIxqXltZWRn553/+5387GPQklpyQyMhu8QXC5l03TgWuVMismp8RfyiuA2huqPCQWlO3nAWiEoy6bzlTx6f2T60bimXMFju65SwYlVphVr2ScHx0bYML/uCQ1AtzOtilQmduqVCcCiiqRrDI8LiZ2tMhxZVFHdaKJlXLmcuQYnhYmqtL0m6sOOtt3XK2FXXPtSpXpF3Lm/Xchh6HpV3N6zVVKFPdk5uF1tZb1lRgrXjhDVlZfEfKlz9cC61taFrbLLS2IbDWILQGAAAAAAAAAN9PBNgAAAAAAAAAAAAA3Ha63W6gVColX3rppb9XYTaPPyiJHXeJPxh1Ffr5IvBTvbrWmuay5cyvWslUo1V5SSIje8Trc9dypoJ13VZZh44iw2PidY7bDdUa1mvXdUhMt5y5CAAqqtWs32tLrXBewkOjOiDnhtcfksGgL7X8rARjKd3K5sZ6K5xuOQsP60CbGx7dcuZfCz3epJCiOuZa/py+tsFY2myxo0OKzjWp5s7p66LO32ahta+0rMXCq7FIsBIfipa3EVojsAYAAAAAAAAAIMAGAAAAAAAAAAAA4Pbj9/t7KjgTjUYbJ0+ePNqq5XVgKjIyLl6ffahLt5z5wzrgpIJJoaGs2WLni5az/JzzaiDh+I61DS6oEJIKiPV7HR1ic0u3nJUu6FYu1WLnlm45W70onWZZt345J8FssaNChc3ysg4C6lCh61ayEWlWr0q7mpPITQgpquPt1ArOPl7W63md+8YNvV5z1TmHl5zru/uL0N2NWm9aU8fXqRelcuUjfc+oMOAmobUvWtaee+653z777LMv/vSnP/09oTUAAAAAAAAAwHYQYAMAAAAAAAAAAABw21EBGtW8trKyMvLP//zP/1YGffGH4zKUmdItZW580VJVWjQtZyGzxY5qhet3mlIvzksosUM3YrmhWtL6/a7UCnMSimV0i5obay1upuUsmnR9/lTgSoXMdCuZs5YKoLmhAlhqzWr+3E1rOVPnUO2fWledQze+CCkWZtUrCcdH1za44A8OSd25vgPnOqtmvO1YD6z1u23pdZtfaVpT4brcuT/L6qX3pHLlk6+F1jZrWRsbG1smtAYAAAAAAAAA2A7PYDAwTwEAAAAAAAAAAADg9lEqlZJnz549pNqiyuVyIrHzHslMHpbM1FOuW7VUe1hu5oREEmOS3PuwmdrrtmuSO3dCgrGUpPc9bqb2et2Ws95xHV5LO8esQlRuqGau/MxJEa9XslNHXZ+/waAn+dnTzrptyU4/7aoVTxsMJH/+Fem2Ks56x3QAza3iwuvSqub1/qnQolulxbd1YEyt5za0p6wu/UWq+Vnnejzl3DdpM/0qHVrrNvXPvnNPNCtX9LlSs1b5slz+5F+k72wbONc3GvZXwuFwMxAIdH7xi1/8Znp6eiaRSJSnpqZmY7FYze/3d4eGhqpqu1keAAAAAAAAAIBtoYENAAAAAAAAAAAAwG3J7/f3VCtUNBptnDx58qgKnXn9Yd2aFggnzLvs+Pwh3X5Vy6uWs7T4Qy5bznxBURkz1XKmwk1u98/r9euQmWolCwSHnDVHzBY7uuXMH3T275x4A2EJRlNmix3dcuZci1p+xlnbL6GhrNliab3lzLkeIgMJx3eszV1QobVa4bwO76l7xi11TeulC7oFLTKy20ztqfUaqxd1mDI6skefA2W9aa3X+WrLWvXKp7L4zv8uxQtvyMriO1K+/OG2mtZoWQMAAAAAAAAAuEWADQAAAAAAAAAAAMBtSYVtWq1WaGVlZeSf//mf/60K9kSSe5wtA4mlJ123kgXCI9IsX5J2Y0Wiyb3u14sM64asdi1v1vOaLXbUeu1qXlqVyzrgpIJibgTCcek0VqW5ekkiI+Pi9QXMFjsqINZtV6VRWtQBMa8/ZLbY8Qej0u80pV6cl1B8h/gCEbPFjmpx66uQYkGFFDO6zc4NFQAU6euQYjCadI4/vrbBkjr/6h6p5mbEF4rp198UWistviXlyx+tB9ZWY5FgJT4ULRNaAwAAAAAAAAD8NXgGg4F5CgAAAAAAAAAAAAC3l1KplDx79uyhZ5999sVyuZzIHjim29Oy08ckmpow77JXLy5IcfFNSe5+SGLp/WZqr7F6SYrzr0ti7KDEs3eYqWnV6jadJxt+v6tax/xh3Y72TVqVq5KfOyPxHXdKYuc9ZmqvXS9KfuaURNP7ZGT8fjO1p9rDcjMnJJIYk+Teh83UXrddk9y5ExKMpSS973Eztdfrtpz1juvwWnrysOuQompzy8+cVBV5kp06et1rdz3r94P6WTj/im5cU6FMtX6rfFkuf/Iv0ne2DZzX0bC/Eg6Hm4FAoPOLX/ziN9PT0zNDQ0NVr9fbn5qamo3FYjW/399VM/Ue8xEAAAAAAAAAANw0NLABAAAAAAAAAAAAuG35/f6eapCKRqONkydPHm1Vruigj2qpUoEz2wDROn94WDq1ojTLyxJJ7hav65azhHSaq7qVLBhN6cCaCiqtt2p16iXpNFa+eKhWNd3E9Q3H4Q/FpNeuSb10QcKJXTq854ZqNVOhrnrh/M1pOXP2Z6BazvKq5Syt99cNry+ocn265Uw10Knz6Ya6nurcVvPnJBAcctYcMVvsqLVUE1vNWc/rD+ug3Xbp0Fqn8ZWWNXUP9Do1WV36i1z59H/IysV3NjatlRPx2Oo3tayNjY0t07QGAAAAAAAAAPhroIENAAAAAAAAAAAAwG1taWlp7I9//ONPfv7zn/+Ter3v0P9NWrWCJPc8KPHRH+j3uNGq5iQ/d1qGsgdkeNdBM71x661auuVs9pT4A1GJZab1bL1Va/33u4NBXwe/xu97RlJ7D0kwmvzGEFu3VdGtZCpwlpp41EztqRCVaiVTAbH0/iecictWsm5bcjPHdaArM3VEPB6v2WJHnZecajlzZKdVy5m7UKE61+r69jtNZ72nnf10FwJ0VpTC+dd0+Cx74GnxOdf5m2xsWut3W9KsXNHn/yv3g7N/KtQWi4a+1rSWSCTKtKwBAAAAAAAAAP7WCLABAAAAAAAAAAAAuK3lcrns6dOnjzzzzDO/U68nn/wPa8GgTl2y08fEHxrS73OjtPiONFYWdWDqRlq6vimgtHrxXSnMv6bb1VRArN9rSzTsV01ZjcFg4CmXy4lWqxVS4aw7f/R/l1hmSvzBb24vq1z5RMqXP5b0/iclnNhppvaq+RlZvfSepCYOSWRkj5naqxcXpLj4piR3P6Sb8dxqrF6S4vzrkth1UOKjd5ipvVblquTnzkh8x52S2HmPmdrTIcWZUxJN75OR8fvNdM1WobW+Mx/0Ol/cD16vt68ehNYAAAAAAAAAAN9WBNgAAAAAAAAAAAAA3NZKpVLy7Nmzh5599tkXVfBLtZap0FB5+UOJJPdKcs9D5p32uq2abhELxTKS2veYmW5uewElFVgLbBpQ6na7/vfff/++//yf//P/Q603dfgfJTF2UILXCc71ex1n/06I1+eXzORT39jWtl1q33Ozp5yf3bVWMh20s6d+b12YOyPddm2tlcwfNlvsqQBgu1bU610v3LddpQtvSaO8pI83EE6Yqb2VS+9LvTAnmamndOhxu6G1a1vWVEBN3R+E1gAAAAAAAAAA31YE2AAAAAAAAAAAAADc1jqdTmBhYWHihRde+Nnzzz//K18gItNHf6EDQfWVC5KZPCKhoax5t73K1c90KC6173GJDI+Z6ZeBNRkMnP/6rgNKlUol/vbbbz/085///J+q1eqQCuRlppxjiGWvG0yrly5I8cIbMjL+gAxlpszUXrO8LIXzr+pGsviOH5ipvVY1J/m50zKUPSDDuw6aqb12oyT5mZMSTU7IyO4HzNRet1WR3LkTEorvkNTEo2ZqR90Tav8Ks6fFH47L8NgPnXvi6rbviY0taz6fr+fxeAaE1gAAAAAAAAAA31YE2AAAAAAAAAAAAADc9paXl3e9/PLLP37uued+q16r1rKh0Ttk5eK74g9GJT15WDwer36vLdVylp896TzzSmbySen3u19p1FIBNhVkcxtQ+qZA3lB2+vpNY87n58+/It1mZa3lzPl3bhUXzkqrelWy08fEHxoyU3ulxXeksbLorHdUt5K5tbr0F6nmZ03AL2Om9ipXPpHy5Y8lvf9JCSd2mun2rAcZN94TjZWLUr36uQRjSR0G3O49QcsaAAAAAAAAAOC7hAAbAAAAAAAAAAAAgNteqVRKnj179tCzzz77YrlcTqy3lnVbNVm59K4k9zwssdQ+8247KphUK8zplrOh7B06ILaxUUv/btZ59Htt1wGlzQJ5ibGDEtwi9NWuFSQ3e0o3sKnWL7c6jVXJzZyQyMhu5xw+ZKb21PXIzRzXYbPUvsfM1F6v09Tr+UNxHTrzeDxmix0VUlTH6/X6nfvnqes23imbhdauvSfUfNDvSiwaJrQGAAAAAAAAALgtEWADAAAAAAAAAAAAcNv7xtayzKSULr4r/U5DstNPi9cfMv9ie74eULosqxffk4bzs5aflcGg/0WjViQSaXi93r56uA0ofVMgLxTLbhmqUq1z9dKC8/6jEowmzdReeflDqeQ+l8yk8/lDWTO1V7n6mV4zte9xiQyPmak9FSosXXxHUnsflWhyr5naq5cWpXjhrIyMP6CDgNfaKrS2sWXtZt4TAAAAAAAAAAB8WxFgAwAAAAAAAAAAAPC98E2tZYNuW/Lnz0g8e6ckdt2j33s9WwaUeh3d/DUUi3ytUUuFkVRYyW1A6RsDedlp8Qdj5l2b67brupUsGE1Jet/jZmpPnYOr5447nxuV9ORh8Xi8Zosddf7ysydFnHWyU0e3DORtRYUI87OnnP1sS/bA0+L1Bc0WS4OBc7+8It1m5Yv11P2g5uqztgqt3ap7AgAAAAAAAACAbysCbAAAAAAAAAAAAAC+F67XWrZy6V1prF7SLWyB8LD5F2vWA2u2AaWNjVo+n6/n8XgGNyOgtLS0NPbHP/7xJz//+c//Sb0+8PR/lPiOHzj7n9Dbr6eaOyerS++blrNxM7VXK85LafEtSe55WGKpfWZqr7FyUYoLr8vw2H0ylD1gpvbU9SrMnXHOz12S2Hm3mdprVa9K7txxiSQndAubWl/dH+o++VveEwAAAAAAAAAAfBsRYAMAAAAAAAAAAADwvXC91jIVPlKtZKGhUUlNPCqDfv9rLWu2AaVb1aiVy+Wyp0+fPvLMM8/8Tr2efPI/6MBXMJrU269n0O86x3vKedaXzPTT4vX61zZY0i1nc2ek32noEKDXHzJbbA2kcP416TRKznrHxBeMmrm94oU3nWu37BzvMQmE42a6fdc27xXOv6KDduqeUfeO/t278+j32n+zewIAAAAAAAAAgG8jAmwAAAAAAAAAAAAAvjeWl5d3vfzyyz9+7rnnfqteTx3+R0mMHdSta5UrH8vq0l8kuecRCUSGv9ay9m0LKF2vUc7j9Zl3fbPG6pIU51+TxK57JT56p5naU61kKsQWz97prHmPmdpr14uSnz0l0dQ+GRm/30ztdZplyc2ckEhilyT3PmKm13dtaG3jPbH88X9znqtmvr7EoqFKJBJpeL3evnoQWgMAAAAAAAAA4EsE2AAAAAAAAAAAAAB8b3wt9PXDn0py4lEJREak367Llc/+TxkMehKMpuXKp/+/r7SsfdsCStdrlPMHY+Zd11eYf13atbxkDxzb9r+5ntLiW9JYvaRb2FQo0K3VS+9LtTAn2amnJBhLm6m98uWPpXLlU0lPPinh+A4z/arrhda2at5T11/dH4TWAAAAAAAAAAD4EgE2AAAAAAAAAAAAAN8b14a+PL6A7L7vGQlGU9JprMryRy9Jr9vS741Fgt/6gNI3NcoFIyN6+1Y6jRXJzZyUaHKPjOx+0EztdVtVZ73jEhoaldTEITO1p4JjuXPHdSNeev8TzsSztsGSas/LnTshXn9It9V5PN4vAmuqXW8w6N9waG1jiNHn8/U8Hs+A0BoAAAAAAAAAAF8iwAYAAAAAAAAAAADge0WFvv70pz/96Gc/+9kL6rUKM3l9AR1k+q4FlL7WKHffMzqYFYplxeP1mXdd3+rSB1LNz5h/lzFTe6rhrHz5Ix04Cyd2mam9an5WVi+9K8mJQxId2WOm9urFBSleOCuJnfdIxFlvPbCmAmwqyHajoTVa1gAAAAAAAAAAuD4CbAAAAAAAAAAAAAC+V1To65133nnwH/7hH/6PVqsVUiEk1aqmwmnftYDStY1yvkBEpo/+Qoay0+IPxsy7rk+FtlQrmT8Uk/T+w+LxuG0560hu5oR4vX7JTD217SDdN1HBwvzsKen3u5KdflqHDW2sN60NnHUKc69Is3JZ4qN3SrtW1IE1/btz56Fa2gitAQAAAAAAAABw8xBgAwAAAAAAAAAAAPC9okJfqq3svffeu7/f73vNWFSI7bsYUFKNci+//PKPn3vuud+q11OH/1ESYwclGBnR27ejVpiT0sV3JLX3EYkmJ8zUXn1lUUoLZ2V4/H4Zykybqb1meVkK51/VrWnxHT8w0619GVrrfdG01us0pJaflSuf/lFEhfUGAx1Yi0QiDXUPqAehNQAAAAAAAAAAbh4CbAAAAAAAAAAAAAC+d1SIrVqtDg0Ggy/qxjwez+C7GFBSjXJnz5499Oyzz76ognnj9z0jmakjEoplt91+Nhj0JT97Woe8sgdUy1nQbLE10IGzTmPVWe+YqGY4t4oLZ6VVvSrZ6WPiDw2Z6VetB9ZUKE0d08bQWqt8WTet9Z33DHqdTVvW1PX/rgYZAQAAAAAAAAD4tiLABgAAAAAAAAAAAADfYSqMt7CwMPHCCy/87Pnnn/+VCotNH/2FDGWnxR+MmXdtTQW9CnOv6IazxM67zdReu1aQ3OwpGUpPyvD4fWZqr9NcldzMSYkMj0lyz8Nm+mVobWPLmgqwqdl2QmsbW9Z8Pl/vuxpkBAAAAAAAAADg24oAGwAAAAAAAAAAAAB8xy0vL+96+eWXf/zcc8/9Vr2eOvyPkhg7KMHIiN6+XaULb0qjvCzZ6aclEE6Yqb2VS+9JvTgvmamnJBhNmam98uWPpHLlM0nvf1z8zv5tDK1tbFnTvwd3Hv1ee8vQGi1rAAAAAAAAAADcWgTYAAAAAAAAAAAAAOA7rlQqJc+ePXvo2WeffbFcLifG73tGMlNHJBTLisfrM+/aWqdZkfzMcQkldklq7yNmaq/XrkvOWS8QSerQmYhnbYMFFVZTLWz52dP6mKLJiW9sWYtEIg2v19tXD0JrAAAAAAAAAAD8bRFgAwAAAAAAAAAAAIDvuE6nE1hYWJh44YUXfvb888//yheIyPTRX8hQdlr8wZh51/aUr3wilcsfS3rysITjO8zUXjV3TlaX3pfUxGMSGdltptujQmsqpLaxaa1eXNDr1Yrza+8xobVrW9ZUQE0F2AitAQAAAAAAAADwt0WADQAAAAAAAAAAAABuA0tLS2N//OMff/Lzn//8n9TrA0//R4nv+IEEwgm9fbv6vbbkzp0Qrz8omamnxOPxmi12VPgsN3tSPXHWOypeX8Bs+br1wJoMBs5//S9Ca71O4ytNa33ndSwa/lpobWPLms/n63k8ngGhNQAAAAAAAAAA/rYIsAEAAAAAAAAAAADAbSCXy2VPnz595Jlnnvmdej355H+Q4bH7JBhN6u03ol66IMULb0hy94MSS0+aqb3m6pIU5l+TxK57JT56p5mu2axlTQXY1GxjaO2bmtY2htZoWQMAAAAAAAAA4NuHABsAAAAAAAAAAAAA3AZKpVLy7Nmzh5599tkXy+VyYvy+ZyQzdURCsax4vD7zru1Rv0cunH9Fuq2KZKePiS8QNlvsFRdel1Y176z3tLNe5GuhtY0ta/r32M5DtcERWgMAAAAAAAAA4LuNABsAAAAAAAAAAAAA3AY6nU5gYWFh4oUXXvjZ888//ysVEps++gsZyk6LPxgz79q+Vi0v+dnTMpSZkuGxH5qpvXatIFfP/VnCiV26he3a0NrGlrVIJNLwer199SC0BgAAAAAAAADAdxsBNgAAAAAAAAAAAAC4TSwvL+96+eWXf/zcc8/9Vr2eOvyPkhg7KMHIiN5+o1Yuviv10oJkpo86ayTNdHtUu5pqWVNNaoNBXzetFedfl1pxXkJDWcnPnvxKaO3aljUVUFMBNkJrAAAAAAAAAAB8txFgAwAAAAAAAAAAAIDbRKlUSp49e/bQs88++2K5XE6M3/eMZKaOSCiWFY/XZ961fd12TXLnTkgwlpL0vsfN9Juth9bUTxVYUy1rKsCmZqppbfnj/yb9jrN90JNYNPy10NrGljWfz9fzeDwDQmsAAAAAAAAAAHy3EWADAAAAAAAAAAAAgNtEp9MJLCwsTLzwwgs/e/7553/lC0Rk+ugvZCg7Lf5gzLzrxlRyn0t56QNJ7XtMIsPjZvqlzUJrvU5DB9Yuf/Ivon8n7Tz6vfamTWsbQ2u0rAEAAAAAAAAAcPshwAYAAAAAAAAAAAAAt5Hl5eVdL7/88o+fe+6536rXU4f/URJjByUYGdHbb9Sg35XczEn9PDt9VDxe/5ahtb4zH/Q6OrAWiUQaXq+3rx6E1gAAAAAAAAAA+P4hwAYAAAAAAAAAAAAAt5FSqZQ8e/bsoWefffbFcrmcGL/vGclMHZFQLCser8+868Y0Vi9J4fyrEh+9U6KpfVuG1q5tWVMBNRVgI7QGAAAAAAAAAMD3DwE2AAAAAAAAAAAAALiNdDqdwMLCwsQLL7zws+eff/5XvkBEpo/+Qoay0+IPxsy7trbesiaDgfNfX4rzr0l9ZVGH2Dr1lS1Daxtb1nw+X8/j8QwIrQEAAAAAAAAA8P1DgA0AAAAAAAAAAAAAbjPLy8u7Xn755R8/99xzv1Wvpw7/oyTGDkowMqK3f5P10Jr6ud6ypgJsalYvnJfLn/x3510e9c4tQ2u0rAEAAAAAAAAAAIUAGwAAAAAAAAAAAADcZkqlUvLs2bOHnn322RfL5XJi1z3/i4ze+T9LKJYVj9dn3rVms9Bar9OQVvmyblnTv1N2Hv1em9AaAAAAAAAAAAC4YQTYAAAAAAAAAAAAAOA20+l0AgsLCxMvvPDCz55//vlfeX1BOXDsP8pQ9oD4g7EtQ2t9Zz7odXRgLRKJNLxeb189CK0BAAAAAAAAAIAbRYANAAAAAAAAAAAAAG5DS0tLY3/84x9/8vOf//yf1Os9D/1fJLX3UfEFY1uG1q5tWVMBNRVgI7QGAAAAAAAAAABuFAE2AAAAAAAAAAAAALgN5XK57OnTp48888wzv1OvR8bvl8zUEfH4gtsKrW1sWfP5fD2PxzMgtAYAAAAAAAAAAG4UATYAAAAAAAAAAAAAuA2VSqXkm2+++cjf/d3fvdRut4Mej1e8gYh4vX7p99pbhtZoWQMAAAAAAAAAADcDATYAAAAAAAAAAAAAuA11Op3A0tLS2O9+97tnnn/++V8Fg8G2alJT27xeb5/QGgAAAAAAAAAA+GsgwAYAAAAAAAAAAAAAt6lmsxm+cuXKjpmZmel+v+81Yx1gI7QGAAAAAAAAAAD+GgiwAQAAAAAAAAAAAMBtTDWxVavVocFg4DEj8Xg8A0JrAAAAAAAAAADgr4EAGwAAAAAAAAAAAAAAAAAAAAAAAADglvCanwAAAAAAAAAAAAAAAAAAAAAAAAAA3FQE2AAAAAAAAAAAAAAAAAAAAAAAAAAAtwQBNgAAAAAAAAAAAAAAAAAAAAAAAADALUGADQAAAAAAAAAAAAAAAAAAAAAAAABwSxBgAwAAAAAAAAAAAAAAAAAAAAAAAADcEgTYAAAAAAAAAAAAAAAAAAAAAAAAAAC3BAE2AAAAAAAAAAAAAAAAAAAAAAAAAMAtQYANAAAAAAAAAAAAAAAAAAAAAAAAAHBLEGADAAAAAAAAAAAAAAAAAAAAAAAAANwSBNgAAAAAAAAAAAAAAAAAAAAAAAAAALcEATYAAAAAAAAAAAAAAAAAAAAAAAAAwC1BgA0AAAAAAAAAAAAAAAAAAAAAAAAAcEsQYAMAAAAAAAAAAAAAAAAAAAAAAAAA3BIE2AAAAAAAAAAAAAAAAAAAAAAAAAAAtwQBNgAAAAAAAAAAAAAAAAAAAAAAAADALUGADQAAAAAAAAAAAAAAAAAAAAAAAABwSxBgAwAAAAAAAAAAAAAAAAAAAAAAAADcEgTYAAAAAAAAAAAAAAAAAAAAAAAAAAC3BAE2AAAAAAAAAAAAAAAAAAAAAAAAAMAtQYANAAAAAAAAAAAAAAAAAAAAAAAAAHBLEGADAAAAAAAAAAAAAAAAAAAAAAAAANwSBNgAAAAAAAAAAAAAAAAAAAAAAAAAALcEATYAAAAAAAAAAAAAAAAAAAAAAAAAwC1BgA0AAAAAAAAAAAAAAAAAAAAAAAAAcEsQYAMAAAAAAAAAAAAAAAAAAAAAAAAA3BIE2AAAAAAAAAAAAAAAAAAAAAAAAAAAtwQBNgAAAAAAAAAAAAAAAAAAAAAAAADALUGADQAAAAAAAAAAAAAAAAAAAAAAAABwSxBgAwAAAAAAAAAAAAAAAAAAAAAAAADcEgTYAAAAAAAAAAAAAAAAAAAAAAAAAAC3BAE2AAAAAAAAAAAAAAAAAAAAAAAAAMAtQYANAAAAAAAAAAAAAAAAAAAAAAAAAHBLEGADAAAAAAAAAAAAAAAAAAAAAAAAANwSBNgAAAAAAAAAAAAAAAAAAAAAAAAAALcEATYAAAAAAAAAAAAAAAAAAAAAAAAAwC1BgA0AAAAAAAAAAAAAAAAAAAAAAAAAcEsQYAMAAAAAAAAAAAAAAAAAAAAAAAAA3BIE2AAAAAAAAAAAAAAAAAAAAAAAAAAAtwQBNgAAAAAAAAAAAAAAAAAAAAAAAADALUGADQAAAAAAAAAAAAAAAAAAAAAAAABwSxBgAwAAAAAAAAAAAAAAAAAAAAAAAADcEgTYAAAAAAAAAAAAAAAAAAAAAAAAAAC3BAE2AAAAAAAAAAAAAAAAAAAAAAAAAMAtQYANAAAAAAAAAAAAAAAAAAAAAAAAAHBLEGADAAAAAAAAAAAAAAAAAAAAAAAAANwSBNj+/+zbsQAAAADAIH/rUewrjwAAAAAAAAAAAAAAAABYCGwAAAAAAAAAAAAAAAAALAQ2AAAAAAAAAAAAAAAAABYCGwAAAAAAAAAAAAAAAAALgQ0AAAAAAAAAAAAAAACAhcAGAAAAAAAAAAAAAAAAwEJgAwAAAAAAAAAAAAAAAGAhsAEAAAAAAAAAAAAAAACwENgAAAAAAAAAAAAAAAAAWAhsAAAAAAAAAAAAAAAAACwENgAAAAAAAAAAAAAAAAAWAhsAAAAAAAAAAAAAAAAAC4ENAAAAAAAAAAAAAAAAgIXABgAAAAAAAAAAAAAAAMBCYAMAAAAAAAAAAAAAAABgIbABAAAAAAAAAAAAAAAAsBDYAAAAAAAAAAAAAAAAAFgIbAAAAAAAAAAAAAAAAAAsBDYAAAAAAAAAAAAAAAAAFgIbAAAAAAAAAAAAAAAAAAuBDQAAAAAAAAAAAAAAAICFwAYAAAAAAAAAAAAAAADAQmADAAAAAAAAAAAAAAAAYCGwAQAAAAAAAAAAAAAAALAQ2AAAAAAAAAAAAAAAAABYCGwAAAAAAAAAAAAAAAAALAQ2AAAAAAAAAAAAAAAAABYCGwAAAAAAAAAAAAAAAAALgQ0AAAAAAAAAAAAAAACAhcAGAAAAAAAAAAAAAAAAwEJgAwAAAAAAAAAAAAAAAGAhsAEAAAAAAAAAAAAAAACwENgAAAAAAAAAAAAAAAAAWAhsAAAAAAAAAAAAAAAAACwENgAAAAAAAAAAAAAAAAAWAhsAAAAAAAAAAAAAAAAAC4ENAAAAAAAAAAAAAAAAgIXABgAAAAAAAAAAAAAAAMBCYAMAAAAAAAAAAAAAAABgIbABAAAAAAAAAAAAAAAAsBDYAAAAAAAAAAAAAAAAAFgIbAAAAAAAAAAAAAAAAAAsBDYAAAAAAAAAAAAAAAAAFgIbAAAAAAAAAAAAAAAAAAuBDQAAAAAAAAAAAAAAAICFwAYAAAAAAAAAAAAAAADAQmADAAAAAAAAAAAAAAAAYCGwAQAAAAAAAAAAAAAAALAQ2AAAAAAAAAAAAAAAAABYCGwAAAAAAAAAAAAAAAAALAQ2AAAAAAAAAAAAAAAAABYCGwAAAAAAAAAAAAAAAAALgQ0AAAAAAAAAAAAAAACAhcAGAAAAAAAAAAAAAAAAwEJgAwAAAAAAAAAAAAAAAGAhsAEAAAAAAAAAAAAAAACwENgAAAAAAAAAAAAAAAAAWAhsAAAAAAAAAAAAAAAAACwENgAAAAAAAAAAAAAAAAAWAhsAAAAAAAAAAAAAAAAAC4ENAAAAAAAAAAAAAAAAgIXABgAAAAAAAAAAAAAAAMBCYAMAAAAAAAAAAAAAAABgIbABAAAAAAAAAAAAAAAAsBDYAAAAAAAAAAAAAAAAAFgIbAAAAAAAAAAAAAAAAAAsBDYAAAAAAAAAAAAAAAAAFgIbAAAAAAAAAAAAAAAAAAuBDQAAAAAAAAAAAAAAAICFwAYAAAAAAAAAAAAAAADAQmADAAAAAAAAAAAAAAAAYCGwAQAAAAAAAAAAAAAAALAQ2AAAAAAAAAAAAAAAAABYCGwAAAAAAAAAAAAAAAAALAQ2AAAAAAAAAAAAAAAAABYCGwAAAAAAAAAAAAAAAAALgQ0AAAAAAAAAAAAAAACAhcAGAAAAAAAAAAAAAAAAwEJgAwAAAAAAAAAAAAAAAGAhsAEAAAAAAAAAAAAAAACwENgAAAAAAAAAAAAAAAAAWAhsAAAAAAAAAAAAAAAAACwENgAAAAAAAAAAAAAAAAAWAhsAAAAAAAAAAAAAAAAAC4ENAAAAAAAAAAAAAAAAgIXABgAAAAAAAAAAAAAAAMBCYAMAAAAAAAAAAAAAAABgIbABAAAAAAAAAAAAAAAAsBDYAAAAAAAAAAAAAAAAAFgIbAAAAAAAAAAAAAAAAAAsBDYAAAAAAAAAAAAAAAAAFgIbAAAAAAAAAAAAAAAAAAuBDQAAAAAAAAAAAAAAAICFwAYAAAAAAAAAAAAAAADAQmADAAAAAAAAAAAAAAAAYCGwAQAAAAAAAAAAAAAAALAQ2AAAAAAAAAAAAAAAAABYCGwAAAAAAAAAAAAAAAAALAQ2AAAAAAAAAAAAAAAAABYCGwAAAAAAAAAAAAAAAAALgQ0AAAAAAAAAAAAAAACAhcAGAAAAAAAAAAAAAAAAwEJgAwAAAAAAAAAAAAAAAGAhsAEAAAAAAAAAAAAAAACwENgAAAAAAAAAAAAAAAAAWAhsAAAAAAAAAAAAAAAAACwENgAAAAAAAAAAAAAAAAAWAhsAAAAAAAAAAAAAAAAAC4ENAAAAAAAAAAAAAAAAgIXABgAAAAAAAAAAAAAAAMBCYAMAAAAAAAAAAAAAAABgIbABAAAAAAAAAAAAAAAAsBDYAAAAAAAAAAAAAAAAAFgIbAAAAAAAAAAAAAAAAAAsBDYAAAAAAAAAAAAAAAAAFgIbAAAAAAAAAAAAAAAAAAuBDQAAAAAAAAAAAAAAAICFwAYAAAAAAAAAAAAAAADAQmADAAAAAAAAAAAAAAAAYCGwAQAAAAAAAAAAAAAAALAQ2AAAAAAAAAAAAAAAAABYCGwAAAAAAAAAAAAAAAAALAQ2AAAAAAAAAAAAAAAAABYCGwAAAAAAAAAAAAAAAAALgQ0AAAAAAAAAAAAAAACAhcAGAAAAAAAAAAAAAAAAwEJgAwAAAAAAAAAAAAAAAGAhsAEAAAAAAAAAAAAAAACwENgAAAAAAAAAAAAAAAAAWAhsAAAAAAAAAAAAAAAAACwENgAAAAAAAAAAAAAAAAAWAhsAAAAAAAAAAAAAAAAAC4ENAAAAAAAAAAAAAAAAgIXABgAAAAAAAAAAAAAAAMBCYAMAAAAAAAAAAAAAAABgIbABAAAAAAAAAAAAAAAAsBDYAAAAAAAAAAAAAAAAAFgIbAAAAAAAAAAAAAAAAAAsBDYAAAAAAAAAAAAAAAAAFgIbAAAAAAAAAAAAAAAAAAuBDQAAAAAAAAAAAAAAAICFwAYAAAAAAAAAAAAAAADAQmADAAAAAAAAAAAAAAAAYCGwAQAAAAAAAAAAAAAAALAQ2AAAAAAAAAAAAAAAAABYCGwAAAAAAAAAAAAAAAAALAQ2AAAAAAAAAAAAAAAAABYCGwAAAAAAAAAAAAAAAAALgQ0AAAAAAAAAAAAAAACAhcAGAAAAAAAAAAAAAAAAwEJgAwAAAAAAAAAAAAAAAGAhsAEAAAAAAAAAAAAAAACwENgAAAAAAAAAAAAAAAAAWAhsAAAAAAAAAAAAAAAAACwENgAAAAAAAAAAAAAAAAAWAhsAAAAAAAAAAAAAAAAAC4ENAAAAAAAAAAAAAAAAgIXABgAAAAAAAAAAAAAAAMBCYAMAAAAAAAAAAAAAAABgIbABAAAAAAAAAAAAAAAAsBDYAAAAAAAAAAAAAAAAAFgIbAAAAAAAAAAAAAAAAAAsBDYAAAAAAAAAAAAAAAAAFgIbAAAAAAAAAAAAAAAAAAuBDQAAAAAAAAAAAAAAAICFwAYAAAAAAAAAAAAAAADAQmADAAAAAAAAAAAAAAAAYCGwAQAAAAAAAAAAAAAAALAQ2AAAAAAAAAAAAAAAAABYCGwAAAAAAAAAAAAAAAAALAQ2AAAAAAAAAAAAAAAAABYCGwAAAAAAAAAAAAAAAAALgQ0AAAAAAAAAAAAAAACAhcAGAAAAAAAAAAAAAAAAwEJgAwAAAAAAAAAAAAAAAGAhsAEAAAAAAAAAAAAAAACwENgAAAAAAAAAAAAAAAAAWAhsAAAAAAAAAAAAAAAAACwENgAAAAAAAAAAAAAAAAAWAhsAAAAAAAAAAAAAAAAAC4ENAAAAAAAAAAAAAAAAgIXABgAAAAAAAAAAAAAAAMBCYAMAAAAAAAAAAAAAAABgIbABAAAAAAAAAAAAAAAAsBDYAAAAAAAAAAAAAAAAAFgIbAAAAAAAAAAAAAAAAAAsBDYAAAAAAAAAAAAAAAAAFgIbAAAAAAAAAAAAAAAAAAuBDQAAAAAAAAAAAAAAAICFwAYAAAAAAAAAAAAAAADAQmADAAAAAAAAAAAAAAAAYCGwAQAAAAAAAAAAAAAAALAQ2AAAAAAAAAAAAAAAAABYCGwAAAAAAAAAAAAAAAAALAQ2AAAAAAAAAAAAAAAAABYCGwAAAAAAAAAAAAAAAAALgQ0AAAAAAAAAAAAAAACAhcAGAAAAAAAAAAAAAAAAwEJgAwAAAAAAAAAAAAAAAGAhsAEAAAAAAAAAAAAAAACwENgAAAAAAAAAAAAAAAAAWAhsAAAAAAAAAAAAAAAAACwENgAAAAAAAAAAAAAAAAAWAhsAAAAAAAAAAAAAAAAAC4ENAAAAAAAAAAAAAAAAgIXABgAAAAAAAAAAAAAAAMBCYAMAAAAAAAAAAAAAAABgIbABAAAAAAAAAAAAAAAAsBDYAAAAAAAAAAAAAAAAAFgIbAAAAAAAAAAAAAAAAAAsBDYAAAAAAAAAAAAAAAAAFgIbAAAAAAAAAAAAAAAAAAuBDQAAAAAAAAAAAAAAAICFwAYAAAAAAAAAAAAAAADAQmADAAAAAAAAAAAAAAAAYCGwAQAAAAAAAAAAAAAAALAQ2AAAAAAAAAAAAAAAAABYCGwAAAAAAAAAAAAAAAAALAQ2AAAAAAAAAAAAAAAAABYCGwAAAAAAAAAAAAAAAAALgQ0AAAAAAAAAAAAAAACAhcAGAAAAAAAAAAAAAAAAwEJgAwAAAAAAAAAAAAAAAGAhsAEAAAAAAAAAAAAAAACwENgAAAAAAAAAAAAAAAAAWAhsAAAAAAAAAAAAAAAAACwENgAAAAAAAAAAAAAAAAAWAhsAAAAAAAAAAAAAAAAAC4ENAAAAAAAAAAAAAAAAgIXABgAAAAAAAAAAAAAAAMBCYAMAAAAAAAAAAAAAAABgIbABAAAAAAAAAAAAAAAAsBDYAAAAAAAAAAAAAAAAAFgIbAAAAAAAAAAAAAAAAAAsBDYAAAAAAAAAAAAAAAAAFgIbAAAAAAAAAAAAAAAAAAuBDQAAAAAAAAAAAAAAAICFwAYAAAAAAAAAAAAAAADAQmADAAAAAAAAAAAAAAAAYCGwAQAAAAAAAAAAAAAAALAQ2AAAAAAAAAAAAAAAAABYCGwAAAAAAAAAAAAAAAAALAQ2AAAAAAAAAAAAAAAAABYCGwAAAAAAAAAAAAAAAAALgQ0AAAAAAAAAAAAAAACAhcAGAAAAAAAAAAAAAAAAwEJgAwAAAAAAAAAAAAAAAGAhsAEAAAAAAAAAAAAAAACwENgAAAAAAAAAAAAAAAAAWAhsAAAAAAAAAAAAAAAAACwENgAAAAAAAAAAAAAAAAAWAhsAAAAAAAAAAAAAAAAAC4ENAAAAAAAAAAAAAAAAgIXABgAAAAAAAAAAAAAAAMBCYAMAAAAAAAAAAAAAAABgIbABAAAAAAAAAAAAAAAAsBDYAAAAAAAAAAAAAAAAAFgIbAAAAAAAAAAAAAAAAAAsBDYAAAAAAAAAAAAAAAAAFgIbAAAAAAAAAAAAAAAAAAuBDQAAAAAAAAAAAAAAAICFwAYAAAAAAAAAAAAAAADAQmADAAAAAAAAAAAAAAAAYCGwAQAAAAAAAAAAAAAAALAQ2AAAAAAAAAAAAAAAAABYCGwAAAAAAAAAAAAAAAAALAQ2AAAAAAAAAAAAAAAAABYCGwAAAAAAAAAAAAAAAAALgQ0AAAAAAAAAAAAAAACAhcAGAAAAAAAAAAAAAAAAwEJgAwAAAAAAAAAAAAAAAGAhsAEAAAAAAAAAAAAAAACwENgAAAAAAAAAAAAAAAAAWAhsAAAAAAAAAAAAAAAAACwENgAAAAAAAAAAAAAAAAAWAhsAAAAAAAAAAAAAAAAAC4ENAAAAAAAAAAAAAAAAgIXABgAAAAAAAAAAAAAAAMBCYAMAAAAAAAAAAAAAAABgIbABAAAAAAAAAAAAAAAAsBDYAAAAAAAAAAAAAAAAAFgIbAAAAAAAAAAAAAAAAAAsBDYAAAAAAAAAAAAAAAAAFgIbAAAAAAAAAAAAAAAAAAuBDQAAAAAAAAAAAAAAAICFwAYAAAAAAAAAAAAAAADAQmADAAAAAAAAAAAAAAAAYCGwAQAAAAAAAAAAAAAAALAQ2AAAAAAAAAAAAAAAAABYCGwAAAAAAAAAAAAAAAAALAQ2AAAAAAAAAAAAAAAAABYCGwAAAAAAAAAAAAAAAAALgQ0AAAAAAAAAAAAAAACAhcAGAAAAAAAAAAAAAAAAwEJgAwAAAAAAAAAAAAAAAGAhsAEAAAAAAAAAAAAAAACwENgAAAAAAAAAAAAAAAAAWAhsAAAAAAAAAAAAAAAAACwENgAAAAAAAAAAAAAAAAAWAhsAAAAAAAAAAAAAAAAAC4ENAAAAAAAAAAAAAAAAgIXABgAAAAAAAAAAAAAAAMBCYAMAAAAAAAAAAAAAAABgIbABAAAAAAAAAAAAAAAAsBDYAAAAAAAAAAAAAAAAAFgIbAAAAAAAAAAAAAAAAAAsBDYAAAAAAAAAAAAAAAAAFgIbAAAAAAAAAAAAAAAAAAuBDQAAAAAAAAAAAAAAAICFwAYAAAAAAAAAAAAAAADAQmADAAAAAAAAAAAAAAAAYCGwAQAAAAAAAAAAAAAAALAQ2AAAAAAAAAAAAAAAAABYCGwAAAAAAAAAAAAAAAAALAQ2AAAAAAAAAAAAAAAAABYCGwAAAAAAAAAAAAAAAAALgQ0AAAAAAAAAAAAAAACAhcAGAAAAAAAAAAAAAAAAwEJgAwAAAAAAAAAAAAAAAGAhsAEAAAAAAAAAAAAAAACwENgAAAAAAAAAAAAAAAAAWAhsAAAAAAAAAAAAAAAAACwENgAAAAAAAAAAAAAAAAAWAhsAAAAAAAAAAAAAAAAAC4ENAAAAAAAAAAAAAAAAgIXABgAAAAAAAAAAAAAAAMBCYAMAAAAAAAAAAAAAAABgIbABAAAAAAAAAAAAAAAAsBDYAAAAAAAAAAAAAAAAAFgIbAAAAAAAAAAAAAAAAAAsBDYAAAAAAAAAAAAAAAAAFgIbAAAAAAAAAAAAAAAAAAuBDQAAAAAAAAAAAAAAAICFwAYAAAAAAAAAAAAAAADAQmADAAAAAAAAAAAAAAAAYCGwAQAAAAAAAAAAAAAAALAQ2AAAAAAAAAAAAAAAAABYCGwAAAAAAAAAAAAAAAAALAQ2AAAAAAAAAAAAAAAAABYCGwAAAAAAAAAAAAAAAAALgQ0AAAAAAAAAAAAAAACAhcAGAAAAAAAAAAAAAAAAwEJgAwAAAAAAAAAAAAAAAGAhsAEAAAAAAAAAAAAAAACwENgAAAAAAAAAAAAAAAAAWAhsAAAAAAAAAAAAAAAAACwENgAAAAAAAAAAAAAAAAAWAhsAAAAAAAAAAAAAAAAAC4ENAAAAAAAAAAAAAAAAgIXABgAAAAAAAAAAAAAAAMBCYAMAAAAAAAAAAAAAAABgIbABAAAAAAAAAAAAAAAAsBDYAAAAAAAAAAAAAAAAAFgIbAAAAAAAAAAAAAAAAAAsBDYAAAAAAAAAAAAAAAAAFgIbAAAAAAAAAAAAAAAAAAuBDQAAAAAAAAAAAAAAAICFwAYAAAAAAAAAAAAAAADAQmADAAAAAAAAAAAAAAAAYCGwAQAAAAAAAAAAAAAAALAQ2AAAAAAAAAAAAAAAAABYCGwAAAAAAAAAAAAAAAAALAQ2AAAAAAAAAAAAAAAAABYCGwAAAAAAAAAAAAAAAAALgQ0AAAAAAAAAAAAAAACAhcAGAAAAAAAAAAAAAAAAwEJgAwAAAAAAAAAAAAAAAGAhsAEAAAAAAAAAAAAAAACwENgAAAAAAAAAAAAAAAAAWAhsAAAAAAAAAAAAAAAAACwENgAAAAAAAAAAAAAAAAAWAhsAAAAAAAAAAAAAAAAAC4ENAAAAAAAAAAAAAAAAgIXABgAAAAAAAAAAAAAAAMBCYAMAAAAAAAAAAAAAAABgIbABAAAAAAAAAAAAAAAAsBDYAAAAAAAAAAAAAAAAAFgIbAAAAAAAAAAAAAAAAAAsBDYAAAAAAAAAAAAAAAAAFgIbAAAAAAAAAAAAAAAAAAuBDQAAAAAAAAAAAAAAAICFwAYAAAAAAAAAAAAAAADAQmADAAAAAAAAAAAAAAAAYCGwAQAAAAAAAAAAAAAAALAQ2AAAAAAAAAAAAAAAAABYCGwAAAAAAAAAAAAAAAAALAQ2AAAAAAAAAAAAAAAAABYCGwAAAAAAAAAAAAAAAAALgQ0AAAAAAAAAAAAAAACAhcAGAAAAAAAAAAAAAAAAwEJgAwAAAAAAAAAAAAAAAGAhsAEAAAAAAAAAAAAAAACwENgAAAAAAAAAAAAAAAAAWAhsAAAAAAAAAAAAAAAAACwENgAAAAAAAAAAAAAAAAAWAhsAAAAAAAAAAAAAAAAAC4ENAAAAAAAAAAAAAAAAgIXABgAAAAAAAAAAAAAAAMBCYAMAAAAAAAAAAAAAAABgIbABAAAAAAAAAAAAAAAAsBDYAAAAAAAAAAAAAAAAAFgIbAAAAAAAAAAAAAAAAAAsBDYAAAAAAAAAAAAAAAAAFgIbAAAAAAAAAAAAAAAAAAuBDQAAAAAAAAAAAAAAAICFwAYAAAAAAAAAAAAAAADAQmADAAAAAAAAAAAAAAAAYCGwAQAAAAAAAAAAAAAAALAQ2AAAAAAAAAAAAAAAAABYCGwAAAAAAAAAAAAAAAAALAQ2AAAAAAAAAAAAAAAAABYCGwAAAAAAAAAAAAAAAAALgQ0AAAAAAAAAAAAAAACAhcAGAAAAAAAAAAAAAAAAwEJgAwAAAAAAAAAAAAAAAGAhsAEAAAAAAAAAAAAAAACwENgAAAAAAAAAAAAAAAAAWAhsAAAAAAAAAAAAAAAAACwENgAAAAAAAAAAAAAAAAAWAhsAAAAAAAAAAAAAAAAAC4ENAAAAAAAAAAAAAAAAgIXABgAAAAAAAAAAAAAAAMBCYAMAAAAAAAAAAAAAAABgIbABAAAAAAAAAAAAAAAAsBDYAAAAAAAAAAAAAAAAAFgIbAAAAAAAAAAAAAAAAAAsBDYAAAAAAAAAAAAAAAAAFgIbAAAAAAAAAAAAAAAAAAuBDQAAAAAAAAAAAAAAAICFwAYAAAAAAAAAAAAAAADAQmADAAAAAAAAAAAAAAAAYCGwAQAAAAAAAAAAAAAAALAQ2AAAAAAAAAAAAAAAAABYCGwAAAAAAAAAAAAAAAAALAQ2AAAAAAAAAAAAAAAAABYCGwAAAAAAAAAAAAAAAAALgQ0AAAAAAAAAAAAAAACAhcAGAAAAAAAAAAAAAAAAwEJgAwAAAAAAAAAAAAAAAGAhsAEAAAAAAAAAAAAAAACwENgAAAAAAAAAAAAAAAAAWAhsAAAAAAAAAAAAAAAAACwENgAAAAAAAAAAAAAAAAAWAhsAAAAAAAAAAAAAAAAAC4ENAAAAAAAAAAAAAAAAgIXABgAAAAAAAAAAAAAAAMBCYAMAAAAAAAAAAAAAAABgIbABAAAAAAAAAAAAAAAAsBDYAAAAAAAAAAAAAAAAAFgIbAAAAAAAAAAAAAAAAAAsBDYAAAAAAAAAAAAAAAAAFgIbAAAAAAAAAAAAAAAAAAuBDQAAAAAAAAAAAAAAAICFwAYAAAAAAAAAAAAAAADAQmADAAAAAAAAAAAAAAAAYCGwAQAAAAAAAAAAAAAAALAQ2AAAAAAAAAAAAAAAAABYCGwAAAAAAAAAAAAAAAAALAQ2AAAAAAAAAAAAAAAAABYCGwAAAAAAAAAAAAAAAAALgQ0AAAAAAAAAAAAAAACAhcAGAAAAAAAAAAAAAAAAwEJgAwAAAAAAAAAAAAAAAGAhsAEAAAAAAAAAAAAAAACwENgAAAAAAAAAAAAAAAAAWAhsAAAAAAAAAAAAAAAAACwENgAAAAAAAAAAAAAAAAAWAhsAAAAAAAAAAAAAAAAAC4ENAAAAAAAAAAAAAAAAgIXABgAAAAAAAAAAAAAAAMBCYAMAAAAAAAAAAAAAAABgIbABAAAAAAAAAAAAAAAAsBDYAAAAAAAAAAAAAAAAAFgIbAAAAAAAAAAAAAAAAAAsBDYAAAAAAAAAAAAAAAAAFgIbAAAAAAAAAAAAAAAAAAuBDQAAAAAAAAAAAAAAAICFwAYAAAAAAAAAAAAAAADAQmADAAAAAAAAAAAAAAAAYCGwAQAAAAAAAAAAAAAAALAQ2AAAAAAAAAAAAAAAAABYCGwAAAAAAAAAAAAAAAAALAQ2AAAAAAAAAAAAAAAAABYCGwAAAAAAAAAAAAAAAAALgQ0AAAAAAAAAAAAAAACAhcAGAAAAAAAAAAAAAAAAwEJgAwAAAAAAAAAAAAAAAGAhsAEAAAAAAAAAAAAAAACwENgAAAAAAAAAAAAAAAAAWAhsAAAAAAAAAAAAAAAAACwENgAAAAAAAAAAAAAAAAAWAhsAAAAAAAAAAAAAAAAAC4ENAAAAAAAAAAAAAAAAgIXABgAAAAAAAAAAAAAAAMBCYAMAAAAAAAAAAAAAAABgIbABAAAAAAAAAAAAAAAAsBDYAAAAAAAAAAAAAAAAAFgIbAAAAAAAAAAAAAAAAAAsBDYAAAAAAAAAAAAAAAAAFgIbAAAAAAAAAAAAAAAAAAuBDQAAAAAAAAAAAAAAAICFwAYAAAAAAAAAAAAAAADAQmADAAAAAAAAAAAAAAAAYCGwAQAAAAAAAAAAAAAAALAQ2AAAAAAAAAAAAAAAAABYCGwAAAAAAAAAAAAAAAAALAQ2AAAAAAAAAAAAAAAAABYCGwAAAAAAAAAAAAAAAAALgQ0AAAAAAAAAAAAAAACAhcAGAAAAAAAAAAAAAAAAwEJgAwAAAAAAAAAAAAAAAGAhsAEAAAAAAAAAAAAAAACwENgAAAAAAAAAAAAAAAAAWAhsAAAAAAAAAAAAAAAAACwENgAAAAAAAAAAAAAAAAAWAhsAAAAAAAAAAAAAAAAAC4ENAAAAAAAAAAAAAAAAgIXABgAAAAAAAAAAAAAAAMBCYAMAAAAAAAAAAAAAAABgIbABAAAAAAAAAAAAAAAAsBDYAAAAAAAAAAAAAAAAAFgIbAAAAAAAAAAAAAAAAAAsBDYAAAAAAAAAAAAAAAAAFgIbAAAAAAAAAAAAAAAAAAuBDQAAAAAAAAAAAAAAAICFwAYAAAAAAAAAAAAAAADAQmADAAAAAAAAAAAAAAAAYCGwAQAAAAAAAAAAAAAAALAQ2AAAAAAAAAAAAAAAAABYCGwAAAAAAAAAAAAAAAAALAQ2AAAAAAAAAAAAAAAAABYCGwAAAAAAAAAAAAAAAAALgQ0AAAAAAAAAAAAAAACAhcAGAAAAAAAAAAAAAAAAwEJgAwAAAAAAAAAAAAAAAGAhsAEAAAAAAAAAAAAAAACwENgAAAAAAAAAAH/MgisAADKMSURBVAAAAAAAWAhsAAAAAAAAAAAAAAAAACwENgAAAAAAAAAAAAAAAAAWAhsAAAAAAAAAAAAAAAAAC4ENAAAAAAAAAAAAAAAAgIXABgAAAAAAAAAAAAAAAMBCYAMAAAAAAAAAAAAAAABgIbABAAAAAAAAAAAAAAAAsBDYAAAAAAAAAAAAAAAAAFgIbAAAAAAAAAAAAAAAAAAsBDYAAAAAAAAAAAAAAAAAFgIbAAAAAAAAAAAAAAAAAAuBDQAAAAAAAAAAAAAAAICFwAYAAAAAAAAAAAAAAADAQmADAAAAAAAAAAAAAAAAYCGwAQAAAAAAAAAAAAAAALAQ2AAAAAAAAAAAAAAAAABYCGwAAAAAAAAAAAAAAAAALAQ2AAAAAAAAAAAAAAAAABYCGwAAAAAAAAAAAAAAAAALgQ0AAAAAAAAAAAAAAACAhcAGAAAAAAAAAAAAAAAAwEJgAwAAAAAAAAAAAAAAAGAhsAEAAAAAAAAAAAAAAACwENgAAAAAAAAAAAAAAAAAWAhsAAAAAAAAAAAAAAAAACwENgAAAAAAAAAAAAAAAAAWAhsAAAAAAAAAAAAAAAAAC4ENAAAAAAAAAAAAAAAAgIXABgAAAAAAAAAAAAAAAMBCYAMAAAAAAAAAAAAAAABgIbABAAAAAAAAAAAAAAAAsBDYAAAAAAAAAAAAAAAAAFgIbAAAAAAAAAAAAAAAAAAsBDYAAAAAAAAAAAAAAAAAFgIbAAAAAAAAAAAAAAAAAAuBDQAAAAAAAAAAAAAAAICFwAYAAAAAAAAAAAAAAADAQmADAAAAAAAAAAAAAAAAYCGwAQAAAAAAAAAAAAAAALAQ2AAAAAAAAAAAAAAAAABYCGwAAAAAAAAAAAAAAAAALAQ2AAAAAAAAAAAAAAAAABYCGwAAAAAAAAAAAAAAAAALgQ0AAAAAAAAAAAAAAACAhcAGAAAAAAAAAAAAAAAAwEJgAwAAAAAAAAAAAAAAAGAhsAEAAAAAAAAAAAAAAACwENgAAAAAAAAAAAAAAAAAWAhsAAAAAAAAAAAAAAAAACwENgAAAAAAAAAAAAAAAAAWAhsAAAAAAAAAAAAAAAAAC4ENAAAAAAAAAAAAAAAAgIXABgAAAAAAAAAAAAAAAMBCYAMAAAAAAAAAAAAAAABgIbABAAAAAAAAAAAAAAAAsBDYAAAAAAAAAAAAAAAAAFgIbAAAAAAAAAAAAAAAAAAsBDYAAAAAAAAAAAAAAAAAFgIbAAAAAAAAAAAAABB79x6jVX3ncfw3gw/DWAFlEEvxFhFUkKqA4CUt9dq0EStedlewbtqNUNqm1GybqNmsps3apiaNbSO1TZSypbJutVVJN7q6Ask2RBCkVhAx5SKrlEUECgozgzPrTE6YjqBu1/kMZPN6JeR5vt9znhP+JTlvfgAAECFgAwAAAAAAAAAAAAAAACBCwAYAAAAAAAAAAAAAAABAhIANAAAAAAAAAAAAAAAAgAgBGwAAAAAAAAAAAAAAAAARAjYAAAAAAAAAAAAAAAAAIgRsAAAAAAAAAAAAAAAAAEQI2AAAAAAAAAAAAAAAAACIELABAAAAAAAAAAAAAAAAECFgAwAAAAAAAAAAAAAAACBCwAYAAAAAAAAAAAAAAABAhIANAAAAAAAAAAAAAAAAgAgBGwAAAAAAAAAAAAAAAAARAjYAAAAAAAAAAAAAAAAAIgRsAAAAAAAAAAAAAAAAAEQI2AAAAAAAAAAAAAAAAACIELABAAAAAAAAAAAAAAAAECFgAwAAAAAAAAAAAAAAACBCwAYAAAAAAAAAAAAAAABAhIANAAAAAAAAAAAAAAAAgAgBGwAAAAAAAAAAAAAAAAARAjYAAAAAAAAAAAAAAAAAIgRsAAAAAAAAAAAAAAAAAEQI2AAAAAAAAAAAAAAAAACIELABAAAAAAAAAAAAAAAAECFgAwAAAAAAAAAAAAAAACBCwAYAAAAAAAAAAAAAAABAhIANAAAAAAAAAAAAAAAAgAgBGwAAAAAAAAAAAAAAAAARAjYAAAAAAAAAAAAAAAAAIgRsAAAAAAAAAAAAAAAAAEQI2AAAAAAAAAAAAAAAAACIELABAAAAAAAAAAAAAAAAECFgAwAAAAAAAAAAAAAAACBCwAYAAAAAAAAAAAAAAABAhIANAAAAAAAAAAAAAAAAgAgBGwAAAAAAAAAAAAAAAAARAjYAAAAAAAAAAAAAAAAAIgRsAAAAAAAAAAAAAAAAAEQI2AAAAAAAAAAAAAAAAACIELABAAAAAAAAAAAAAAAAECFgAwAAAAAAAAAAAAAAACBCwAYAAAAAAAAAAAAAAABAhIANAAAAAAAAAAAAAAAAgAgBGwAAAAAAAAAAAAAAAAARAjYAAAAAAAAAAAAAAAAAIgRsAAAAAAAAAAAAAAAAAEQI2AAAAAAAAAAAAAAAAACIELABAAAAAAAAAAAAAAAAECFgAwAAAAAAAAAAAAAAACBCwAYAAAAAAAAAAAAAAABAhIANAAAAAAAAAAAAAAAAgAgBGwAAAAAAAAAAAAAAAAARAjYAAAAAAAAAAAAAAAAAIgRsAAAAAAAAAAAAAAAAAEQI2AAAAAAAAAAAAAAAAACIELABAAAAAAAAAAAAAAAAECFgAwAAAAAAAAAAAAAAACBCwAYAAAAAAAAAAAAAAABAhIANAAAAAAAAAAAAAAAAgAgBGwAAAAAAAAAAAAAAAAARAjYAAAAAAAAAAAAAAAAAIgRsAAAAAAAAAAAAAAAAAEQI2AAAAAAAAAAAAAAAAACIELABAAAAAAAAAAAAAAAAECFgAwAAAAAAAAAAAAAAACBCwAYAAAAAAAAAAAAAAABAhIANAAAAAAAAAAAAAAAAgAgBGwAAAAAAAAAAAAAAAAARAjYAAAAAAAAAAAAAAAAAIgRsAAAAAAAAAAAAAAAAAEQI2AAAAAAAAAAAAAAAAACIELABAAAAAAAAAAAAAAAAECFgAwAAAAAAAAAAAAAAACBCwAYAAAAAAAAAAAAAAABAhIANAAAAAAAAAAAAAAAAgAgBGwAAAAAAAAAAAAAAAAARAjYAAAAAAAAAAAAAAAAAIgRsAAAAAAAAAAAAAAAAAEQI2AAAAAAAAAAAAAAAAACIELABAAAAAAAAAAAAAAAAECFgAwAAAAAAAAAAAAAAACBCwAYAAAAAAAAAAAAAAABAhIANAAAAAAAAAAAAAAAAgAgBGwAAAAAAAAAAAAAAAAARAjYAAAAAAAAAAAAAAAAAIgRsAAAAAAAAAAAAAAAAAEQI2AAAAAAAAAAAAAAAAACIELABAAAAAAAAAAAAAAAAECFgAwAAAAAAAAAAAAAAACBCwAYAAAAAAAAAAAAAAABAhIANAAAAAAAAAAAAAAAAgAgBGwAAAAAAAAAAAAAAAAARAjYAAAAAAAAAAAAAAAAAIgRsAAAAAAAAAAAAAAAAAEQI2AAAAAAAAAAAAAAAAACIELABAAAAAAAAAAAAAAAAECFgAwAAAAAAAAAAAAAAACBCwAYAAAAAAAAAAAAAAABAhIANAAAAAAAAAAAAAAAAgAgBGwAAAAAAAAAAAAAAAAARAjYAAAAAAAAAAAAAAAAAIgRsAAAAAAAAAAAAAAAAAEQI2AAAAAAAAAAAAAAAAACIELABAAAAAAAAAAAAAAAAECFgAwAAAAAAAAAAAAAAACBCwAYAAAAAAAAAAAAAAABAhIANAAAAAAAAAAAAAAAAgAgBGwAAAAAAAAAAAAAAAAARAjYAAAAAAAAAAAAAAAAAIgRsAAAAAAAAAAAAAAAAAEQI2AAAAAAAAAAAAAAAAACIELABAAAAAAAAAAAAAAAAECFgAwAAAAAAAAAAAAAAACBCwAYAAAAAAAAAAAAAAABAhIANAAAAAAAAAAAAAAAAgAgBGwAAAAAAAAAAAAAAAAARAjYAAAAAAAAAAAAAAAAAIgRsAAAAAAAAAAAAAAAAAEQI2AAAAAAAAAAAAAAAAACIELABAAAAAAAAAAAAAAAAECFgAwAAAAAAAAAAAAAAACBCwAYAAAAAAAAAAAAAAABAhIANAAAAAAAAAAAAAAAAgAgBGwAAAAAAAAAAAAAAAAARAjYAAAAAAAAAAAAAAAAAIgRsAAAAAAAAAAAAAAAAAEQI2AAAAAAAAAAAAAAAAACIELABAAAAAAAAAAAAAAAAECFgAwAAAAAAAAAAAAAAACBCwAYAAAAAAAAAAAAAAABAhIANAAAAAAAAAAAAAAAAgAgBGwAAAAAAAAAAAAAAAAARAjYAAAAAAAAAAAAAAAAAIgRsAAAAAAAAAAAAAAAAAEQI2AAAAAAAAAAAAAAAAACIELABAAAAAAAAAAAAAAAAECFgAwAAAAAAAAAAAAAAACBCwAYAAAAAAAAAAAAAAABAhIANAAAAAAAAAAAAAAAAgAgBGwAAAAAAAAAAAAAAAAARAjYAAAAAAAAAAAAAAAAAIgRsAAAAAAAAAAAAAAAAAEQI2AAAAAAAAAAAAAAAAACIELABAAAAAAAAAAAAAAAAECFgAwAAAAAAAAAAAAAAACBCwAYAAAAAAAAAAAAAAABAhIANAAAAAAAAAAAAAAAAgAgBGwAAAAAAAAAAAAAAAAARAjYAAAAAAAAAAAAAAAAAIgRsAAAAAAAAAAAAAAAAAEQI2AAAAAAAAAAAAAAAAACIELABAAAAAAAAAAAAAAAAECFgAwAAAAAAAAAAAAAAACBCwAYAAAAAAAAAAAAAAABAhIANAAAAAAAAAAAAAAAAgAgBGwAAAAAAAAAAAAAAAAARAjYAAAAAAAAAAAAAAAAAIgRsAAAAAAAAAAAAAAAAAEQI2AAAAAAAAAAAAAAAAACIELABAAAAAAAAAAAAAAAAECFgAwAAAAAAAAAAAAAAACBCwAYAAAAAAAAAAAAAAABAhIANAAAAAAAAAAAAAAAAgAgBGwAAAAAAAAAAAAAAAAARAjYAAAAAAAAAAAAAAAAAIgRsAAAAAAAAAAAAAAAAAEQI2AAAAAAAAAAAAAAAAACIELABAAAAAAAAAAAAAAAAECFgAwAAAAAAAAAAAAAAACBCwAYAAAAAAAAAAAAAAABAhIANAAAAAAAAAAAAAAAAgAgBGwAAAAAAAAAAAAAAAAARAjYAAAAAAAAAAAAAAAAAIgRsAAAAAAAAAAAAAAAAAEQI2AAAAAAAAAAAAAAAAACIELABAAAAAAAAAAAAAAAAECFgAwAAAAAAAAAAAAAAACBCwAYAAAAAAAAAAAAAAABAhIANAAAAAAAAAAAAAAAAgAgBGwAAAAAAAAAAAAAAAAARAjYAAAAAAAAAAAAAAAAAIgRsAAAAAAAAAAAAAAAAAEQI2AAAAAAAAAAAAAAAAACIELABAAAAAAAAAAAAAAAAECFgAwAAAAAAAAAAAAAAACBCwAYAAAAAAAAAAAAAAABAhIANAAAAAAAAAAAAAAAAgAgBGwAAAAAAAAAAAAAAAAARAjYAAAAAAAAAAAAAAAAAIgRsAAAAAAAAAAAAAAAAAEQI2AAAAAAAAAAAAAAAAACIELABAAAAAAAAAAAAAAAAECFgAwAAAAAAAAAAAAAAACBCwAYAAAAAAAAAAAAAAABAhIANAAAAAAAAAAAAAAAAgAgBGwAAAAAAAAAAAAAAAAARAjYAAAAAAAAAAAAAAAAAIgRsAAAAAAAAAAAAAAAAAEQI2AAAAAAAAAAAAAAAAACIELABAAAAAAAAAAAAAAAAECFgAwAAAAAAAAAAAAAAACBCwAYAAAAAAAAAAAAAAABAhIANAAAAAAAAAAAAAAAAgAgBGwAAAAAAAAAAAAAAAAARAjYAAAAAAAAAAAAAAAAAIgRsAAAAAAAAAAAAAAAAAEQI2AAAAAAAAAAAAAAAAACIELABAAAAAAAAAAAAAAAAECFgAwAAAAAAAAAAAAAAACBCwAYAAAAAAAAAAAAAAABAhIANAAAAAAAAAAAAAAAAgAgBGwAAAAAAAAAAAAAAAAARAjYAAAAAAAAAAAAAAAAAIgRsAAAAAAAAAAAAAAAAAEQI2AAAAAAAAAAAAAAAAACIELABAAAAAAAAAAAAAAAAECFgAwAAAAAAAAAAAAAAACBCwAYAAAAAAAAAAAAAAABAhIANAAAAAAAAAAAAAAAAgAgBGwAAAAAAAAAAAAAAAAARAjYAAAAAAAAAAAAAAAAAIgRsAAAAAAAAAAAAAAAAAEQI2AAAAAAAAAAAAAAAAACIELABAAAAAAAAAAAAAAAAECFgAwAAAAAAAAAAAAAAACBCwAYAAAAAAAAAAAAAAABAhIANAAAAAAAAAAAAAAAAgAgBGwAAAAAAAAAAAAAAAAARAjYAAAAAAAAAAAAAAAAAIgRsAAAAAAAAAAAAAAAAAEQI2AAAAAAAAAAAAAAAAACIELABAAAAAAAAAAAAAAAAECFgAwAAAAAAAAAAAAAAACBCwAYAAAAAAAAAAAAAAABAhIANAAAAAAAAAAAAAAAAgAgBGwAAAAAAAAAAAAAAAAARAjYAAAAAAAAAAAAAAAAAIgRsAAAAAAAAAAAAAAAAAEQI2AAAAAAAAAAAAAAAAACIELABAAAAAAAAAAAAAAAAECFgAwAAAAAAAAAAAAAAACBCwAYAAAAAAAAAAAAAAABAhIANAAAAAAAAAAAAAAAAgAgBGwAAAAAAAAAAAAAAAAARAjYAAAAAAAAAAAAAAAAAIgRsAAAAAAAAAAAAAAAAAEQI2AAAAAAAAAAAAAAAAACIELABAAAAAAAAAAAAAAAAECFgAwAAAAAAAAAAAAAAACBCwAYAAAAAAAAAAAAAAABAhIANAAAAAAAAAAAAAAAAgAgBGwAAAAAAAAAAAAAAAAARAjYAAAAAAAAAAAAAAAAAIgRsAAAAAAAAAAAAAAAAAEQI2AAAAAAAAAAAAAAAAACIELABAAAAAAAAAAAAAAAAECFgAwAAAAAAAAAAAAAAACBCwAYAAAAAAAAAAAAAAABAhIANAAAAAAAAAAAAAAAAgAgBGwAAAAAAAAAAAAAAAAARAjYAAAAAAAAAAAAAAAAAIgRsAAAAAAAAAAAAAAAAAEQI2AAAAAAAAAAAAAAAAACIELABAAAAAAAAAAAAAAAAECFgAwAAAAAAAAAAAAAAACBCwAYAAAAAAAAAAAAAAABAhIANAAAAAAAAAAAAAAAAgAgBGwAAAAAAAAAAAAAAAAARAjYAAAAAAAAAAAAAAAAAIgRsAAAAAAAAAAAAAAAAAEQI2AAAAAAAAAAAAAAAAACIELABAAAAAAAAAAAAAAAAECFgAwAAAAAAAAAAAAAAACBCwAYAAAAAAAAAAAAAAABAhIANAAAAAAAAAAAAAAAAgAgBGwAAAAAAAAAAAAAAAAARAjYAAAAAAAAAAAAAAAAAIgRsAAAAAAAAAAAAAAAAAEQI2AAAAAAAAAAAAAAAAACIELABAAAAAAAAAAAAAAAAECFgAwAAAAAAAAAAAAAAACBCwAYAAAAAAAAAAAAAAABAhIANAAAAAAAAAAAAAAAAgAgBGwAAAAAAAAAAAAAAAAARAjYAAAAAAAAAAAAAAAAAIgRsAAAAAAAAAAAAAAAAAEQI2AAAAAAAAAAAAAAAAACIELABAAAAAAAAAAAAAAAAECFgAwAAAAAAAAAAAAAAACBCwAYAAAAAAAAAAAAAAABAhIANAAAAAAAAAAAAAAAAgAgBGwAAAAAAAAAAAAAAAAARAjYAAAAAAAAAAAAAAAAAIgRsAAAAAAAAAAAAAAAAAEQI2AAAAAAAAAAAAAAAAACIELABAAAAAAAAAAAAAAAAECFgAwAAAAAAAAAAAAAAACBCwAYAAAAAAAAAAAAAAABAhIANAAAAAAAAAAAAAAAAgAgBGwAAAAAAAAAAAAAAAAARAjYAAAAAAAAAAAAAAAAAIgRsAAAAAAAAAAAAAAAAAEQI2AAAAAAAAAAAAAAAAACIELABAAAAAAAAAAAAAAAAECFgAwAAAAAAAAAAAAAAACBCwAYAAAAAAAAAAAAAAABAhIANAAAAAAAAAAAAAAAAgAgBGwAAAAAAAAAAAAAAAAARAjYAAAAAAAAAAAAAAAAAIgRsAAAAAAAAAAAAAAAAAEQI2AAAAAAAAAAAAAAAAACIELABAAAAAAAAAAAAAAAAECFgAwAAAAAAAAAAAAAAACBCwAYAAAAAAAAAAAAAAABAhIANAAAAAAAAAAAAAAAAgAgBGwAAAAAAAAAAAAAAAAARAjYAAAAAAAAAAAAAAAAAIgRsAAAAAAAAAAAAAAAAAEQI2AAAAAAAAAAAAAAAAACIELABAAAAAAAAAAAAAAAAECFgAwAAAAAAAAAAAAAAACBCwAYAAAAAAAAAAAAAAABAhIANAAAAAAAAAAAAAAAAgAgBGwAAAAAAAAAAAAAAAAARAjYAAAAAAAAAAAAAAAAAIgRsAAAAAAAAAAAAAAAAAEQI2AAAAAAAAAAAAAAAAACIELABAAAAAAAAAAAAAAAAECFgAwAAAAAAAAAAAAAAACBCwAYAAAAAAAAAAAAAAABAhIANAAAAAAAAAAAAAAAAgAgBGwAAAAAAAAAAAAAAAAARAjYAAAAAAAAAAAAAAAAAIgRsAAAAAAAAAAAAAAAAAEQI2AAAAAAAAAAAAAAAAACIELABAAAAAAAAAAAAAAAAECFgAwAAAAAAAAAAAAAAACBCwAYAAAAAAAAAAAAAAABAhIANAAAAAAAAAAAAAAAAgAgBGwAAAAAAAAAAAAAAAAARAjYAAAAAAAAAAAAAAAAAIgRsAAAAAAAAAAAAAAAAAEQI2AAAAAAAAAAAAAAAAACIELABAAAAAAAAAAAAAAAAECFgAwAAAAAAAAAAAAAAACBCwAYAAAAAAAAAAAAAAABAhIANAAAAAAAAAAAAAAAAgAgBGwAAAAAAAAAAAAAAAAARAjYAAAAAAAAAAAAAAAAAIgRsAAAAAAAAAAAAAAAAAEQI2AAAAAAAAAAAAAAAAACIELABAAAAAAAAAAAAAAAAECFgAwAAAAAAAAAAAAAAACBCwAYAAAAAAAAAAAAAAABAhIANAAAAAAAAAAAAAAAAgAgBGwAAAAAAAAAAAAAAAAARAjYAAAAAAAAAAAAAAAAAIgRsAAAAAAAAAAAAAAAAAEQI2AAAAAAAAAAAAAAAAACIELABAAAAAAAAAAAAAAAAECFgAwAAAAAAAAAAAAAAACBCwAYAAAAAAAAAAAAAAABAhIANAAAAAAAAAAAAAAAAgAgBGwAAAAAAAAAAAAAAAAARAjYAAAAAAAAAAAAAAAAAIgRsAAAAAAAAAAAAAAAAAEQI2AAAAAAAAAAAAAAAAACIELABAAAAAAAAAAAAAAAAECFgAwAAAAAAAAAAAAAAACBCwAYAAAAAAAAAAAAAAABAhIANAAAAAAAAAAAAAAAAgAgBGwAAAAAAAAAAAAAAAAARAjYAAAAAAAAAAAAAAAAAIgRsAAAAAAAAAAAAAAAAAEQI2AAAAAAAAAAAAAAAAACIELABAAAAAAAAAAAAAAAAECFgAwAAAAAAAAAAAAAAACBCwAYAAAAAAAAAAAAAAABAhIANAAAAAAAAAAAAAAAAgAgBGwAAAAAAAAAAAAAAAAARAjYAAAAAAAAAAAAAAAAAIgRsAAAAAAAAAAAAAAAAAEQI2AAAAAAAAAAAAAAAAACIELABAAAAAAAAAAAAAAAAECFgAwAAAAAAAAAAAAAAACBCwAYAAAAAAAAAAAAAAABAhIANAAAAAAAAAAAAAAAAgAgBGwAAAAAAAAAAAAAAAAARAjYAAAAAAAAAAAAAAAAAIgRsAAAAAAAAAAAAAAAAAEQI2AAAAAAAAAAAAAAAAACIELABAAAAAAAAAAAAAAAAECFgAwAAAAAAAAAAAAAAACBCwAYAAAAAAAAAAAAAAABAhIANAAAAAAAAAAAAAAAAgAgBGwAAAAAAAAAAAAAAAAARAjYAAAAAAAAAAAAAAAAAIgRsAAAAAAAAAAAAAAAAAEQI2AAAAAAAAAAAAAAAAACIELABAAAAAAAAAAAAAAAAECFgAwAAAAAAAAAAAAAAACBCwAYAAAAAAAAAAAAAAABAhIANAAAAAAAAAAAAAAAAgAgBGwAAAAAAAAAAAAAAAAARAjYAAAAAAAAAAAAAAAAAIgRsAAAAAAAAAAAAAAAAAEQI2AAAAAAAAAAAAAAAAACIELABAAAAAAAAAAAAAAAAECFgAwAAAAAAAAAAAAAAACBCwAYAAAAAAAAAAAAAAABAhIANAAAAAAAAAAAAAAAAgAgBGwAAAAAAAAAAAAAAAAARAjYAAAAAAAAAAAAAAAAAIgRsAAAAAAAAAAAAAAAAAEQI2AAAAAAAAAAAAAAAAACIELABAAAAAAAAAAAAAAAAECFgAwAAAAAAAAAAAAAAACBCwAYAAAAAAAAAAAAAAABAhIANAAAAAAAAAAAAAAAAgAgBGwAAAAAAAAAAAAAAAAARAjYAAAAAAAAAAAAAAAAAIgRsAAAAAAAAAAAAAAAAAEQI2AAAAAAAAAAAAAAAAACIELABAAAAAAAAAAAAAAAAECFgAwAAAAAAAAAAAAAAACBCwAYAAAAAAAAAAAAAAABAhIANAAAAAAAAAAAAAAAAgAgBGwAAAAAAAAAAAAAAAAARAjYAAAAAAAAAAAAAAAAAIgRsAAAAAAAAAAAAAAAAAEQI2AAAAAAAAAAAAAAAAACIELABAAAAAAAAAAAAAAAAECFgAwAAAAAAAAAAAAAAACBCwAYAAAAAAAAAAAAAAABAhIANAAAAAAAAAAAAAAAAgAgBGwAAAAAAAAAAAAAAAAARAjYAAAAAAAAAAAAAAAAAIgRsAAAAAAAAAAAAAAAAAEQI2AAAAAAAAAAAAAAAAACIELABAAAAAAAAAAAAAAAAECFgAwAAAAAAAAAAAAAAACBCwAYAAAAAAAAAAAAAAABAhIANAAAAAAAAAAAAAAAAgAgBGwAAAAAAAAAAAAAAAAARAjYAAAAAAAAAAAAAAAAAIura29urrwAAAAAAAAAAAHDotLW11W/evPmEdevWnbZx48ZTXn/99WP37t3b2Ldv3+ZBgwa9fuKJJ64fMWLEi8OGDdtYX1/fVv0MAAAAOIwJ2AAAAAAAAAAAADikXnrppTMXLFhw3cKFCy9Zu3btqdu2bRv41ltv9W1ra9v/jlufPn3aGxsbW4855phdI0eO/MMnP/nJRZMnT/7lmDFjlnfeAAAAAByWBGwAAAAAAAAAAAAcEs8999zEe++99+tPPfXUJZs2bRrc2tpaV136QLVarf24447bcemlly6ePn36D88///yF1SUAAADgMCJgAwAAAAAAAAAAoFft3r17wPe///1/nDt37o0bNmw4tq2trbryl6urqyvDhg3bPnXq1H/95je/efvgwYO3VJcAAACAw4CADQAAAAAAAAAAgF6zatWqs2+77bYfPPnkkxfu2bOnT7X+0BoaGto+8YlPrLjzzjtvPvfcc/+zWgMAAACHmIANAAAAAAAAAACAXrFkyZKLZs2a9ePly5ef9mFOXXsvHaexjRkzZuP3vve9r3/6059+pFoDAAAAh5CADQAAAAAAAAAAgLjly5dfMGPGjLkrVqw49YPeWxs4cGD56Ec/WpqamjpOVistLS3ljTfeKH/84x/L9u3bq7ve2+mnn/7qPffcM/3iiy/+t2oFAAAAHCICNgAAAAAAAAAAAKI2b958wtSpUx9dvHjxOe/1zlqtVitjx44tl1xySZk4cWIZPnx4GTRoUOd+3759ZceOHWXdunVl6dKl5emnny7Lli0re/furX59oPHjx6+dN2/eNaeddtoL1QoAAAA4BARsAAAAAAAAAAAAxLS1tdV/+ctffuD+++//q9bW1rpq3c2oUaPKjTfeWKZMmVJOPfXUUl9fX105UMc7bxs2bCgLFiwoc+fOLStWrKiudNfxjGuvvfbf582bN7lWq7VUawAAAKCX9bnjjjuqrwAAAAAAAAAAANCzHnrooRvvuuuuv9+9e3etWnXz2c9+tnz7298u06ZNK4MHDy51dQdt3PbruH7MMcd0ntL28Y9/vOzcubOsWbOmM2z7cx3zK6+8cuKQIUN2jRs3bkm1BgAAAHqZE9gAAAAAAAAAAACIeOutt4664oorFi9cuHBstermqquuKh3/CftZZ51Vbf5yL7/8cvnWt75VfvGLXxwQsXUYP378y7/5zW8mDRkyZHO1AgAAAHrRe5+zDgAAAAAAAAAAAB/CI488cv2zzz47phq7ufDCC8utt976oeK1DiNGjCi33HJLufzyy6tNd6tWrTpl/vz5f1eNAAAAQC8TsAEAAAAAAAAAABDx0EMPXb9r165aNe43ePDgMnPmzDJhwoRqc6B3flfWrFlTnn322bJ69eqyc+fO6sqBRo8eXb7yla+UE044odp02bNnT59HHnnk6ubm5n7VCgAAAOhFAjYAAAAAAAAAAAB63EsvvXTm8uXLD3q82mc+85lyxRVXVFN3b775Zpk/f3656aabyjXXXFOuvvrqzs8vfOELZc6cOWXHjh3Vnd1ddtll5aqrrqqm7lavXj1y5cqVE6sRAAAA6EUCNgAAAAAAAAAAAHrckiVLJm3dunVgNe43cODAcuWVV3Z+vtv27dvLnXfeWWbNmlUefPDBzpPXNm3a1HkS269//ety8803l9tvv71s3ry5+kWXfv36lcmTJ5ehQ4dWmy7vPPfIxYsXX1qNAAAAQC8SsAEAAAAAAAAAANDjVqxYce7evXv7VON+o0aNKhMmTKimLm1tbeW+++4rP/rRj8rWrVurbXc7d+4sP/nJT8rs2bNLS0tLte1yzjnnlLPOOvDQt9bW1rrnn3/+nGoEAAAAepGADQAAAAAAAAAAgB63YcOGU9rb26upy+jRow96StqqVavKvHnzyq5du6rNwTU3N5f58+eXZcuWVZsuTU1NZcyYMdXU3SuvvHLi22+/fUQ1AgAAAL1EwAYAAAAAAAAAAECPam1t7bt169amauzmpJNOKrVarZq6LF26tLz44ovV9P7Wr19flixZUk1d6urqOp9fX3/gq3Hbtm07eteuXQOqEQAAAOglAjYAAAAAAAAAAAB6VEfA1tzc3K8a9+sIywYOHFhN3W3cuLG0tLRU0/tra2vrvL/j892OPvrogwZy7zy77zt/GqoRAAAA6CUCNgAAAAAAAAAAAA65jtPTAAAAgP9/BGwAAAAAAAAAAAD0qFqt1tLQ0LC3GvfrODFtx44d1dTdSSedVPr27VtN76/jJLeO+zs+363j+a2trdXU5Z2/T/M7z2+uRgAAAKCXCNgAAAAAAAAAAADoUR0B27HHHrutGrvZuHHjQQOzc889t4waNaqa3t8pp5xSLrjggmrq0t7e3vn8jlDu3QYNGrSzf//+f6pGAAAAoJcI2AAAAAAAAAAAAOhxJ5988rq6urpq6rJ69ery2muvVVOXM888s9xwww2lf//+1ebg+vXrV6ZOndoZvL3btm3byu9///tq6u7EE0/c2KdPn33VCAAAAPQSARsAAAAAAAAAAAA9bty4cUv79ev3djXu1xGwLV26tJq6dMRuX/ziF8vXvva1MmTIkGrb3dFHH12+9KUvlZkzZ3ac8lZtu6xYsaKsXLmymrq8c2/72WefvaIaAQAAgF7U54477qi+AgAAAAAAAAAAQM/4yEc+8ubDDz88defOnY3VqlNzc3NpaGgoF198cedpan+usbGxTJw4sQwfPnx/oNZxz8c+9rEyadKkMmvWrDJjxowyePDgzmt/bs+ePeWee+4pTz/9dLXp8s79b91yyy3/dPzxx2+sVgAAAEAvqWtvb6++AgAAAAAAAAAAQM+55ppr/uNXv/rVxdW4X1NTU7n77rvLDTfcUG0OtHv37vLaa6+VXbt2dcRwnRHbgAEDqqsHeuyxx8pXv/rVsmnTpmrT5aKLLlrxxBNPnF+r1VqqFQAAANBL6qtPAAAAAAAAAAAA6FHXXnvt/P79+7dW437btm0rs2fPLs8880y1OdBRRx1VRo4cWcaNG1dOP/30943XXnjhhc7T1w4WrzU2Nr49ZcqUh8VrAAAAcGgI2AAAAAAAAAAAAIj43Oc+9y8TJkx4vhq7WbJkSfnOd75TVq5cWW3+b9auXVu++93vlieffLLadDd69Og/XH/99fdVIwAAANDLBGwAAAAAAAAAAABEHHnkkbtnzpz5g6ampj3VqptHH3203HrrreWpp54qbW1t1fZ/p729vfz2t78tt912W5k/f37n/G4DBgxomT59+r2DBw/eUq0AAACAXlZ3sH+0AwAAAAAAAAAAQE+ZMWPG/Dlz5vx1a2trXbXq5owzziif//zny5QpU8rIkSNLff17/9/sHe+8rV+/vjz22GNl7ty573mCW8czrrvuuid+/vOfX1mr1VqqNQAAANDLBGwAAAAAAAAAAABEbd68+YRp06Y9smjRorHv9c7aEUccUcaOHVsuuuiict5555Xhw4eXpqamUqvVyr59+8r27dvLunXrytKlS8vChQvLsmXLSnNzc/XrA40fP37tAw88MGXEiBGrqxUAAABwCAjYAAAAAAAAAAAAiHvuuefOmz59+j8vX758xAe9tzZgwIBy3HHHdQZsDQ0NpaWlpbzxxhtly5YtZceOHdVd7+2MM874r9mzZ9/0qU996vFqBQAAABwiAjYAAAAAAAAAAAB6xTPPPDNp1qxZP162bNkZbW1t1bbn1NXVlTFjxmy46667vn755Zc/Wq0BAACAQ6i++gQAAAAAAAAAAICoiRMnLp4zZ87fXHnllYsaGxvfrtY9oqGhoe2yyy5bev/9908TrwEAAMDhwwlsAAAAAAAAAAAA9Krdu3cPuPvuu//hZz/72d+uX79+yIc5ja2+vr4MGzbsjWnTpj34jW98446mpqb/ri4BAAAAhwEBGwAAAAAAAAAAAIfE7373u3N/+tOfznr88ccvf/XVV5uam5vrq0sfqFartQ8dOnT7pZdeumj69Ok/7DjdrboEAAAAHEYEbAAAAAAAAAAAABxSL7/88qgFCxZct2jRokvWrFkz4vXXXz967969tX379tV3vONWV1fXcdJae2NjY+ugQYP+NHLkyD9MmjRp4eTJk385evTo56rHAAAAAIchARsAAAAAAAAAAACHjS1btgxbu3btqE2bNp28bdu2Y5ubmxtqtVprU1PT68cff/yGESNGvDh06NBN9fX1bdVPAAAAgMOYgA0AAAAAAAAAAAAAAACAiPrqEwAAAAAAAAAAAAAAAAB6lIANAAAAAAAAAAAAAAAAgAgBGwAAAAAAAAAAAAAAAAARAjYAAAAAAAAAAAAAAAAAIgRsAAAAAAAAAAAAAAAAAEQI2AAAAAAAAAAAAAAAAACIELABAAAAAAAAAAAAAAAAECFgAwAAAAAAAAAAAAAAACBCwAYAAAAAAAAAAAAAAABAhIANAAAAAAAAAAAAAAAAgAgBGwAAAAAAAAAAAAAAAAARAjYAAAAAAAAAAAAAAAAAIgRsAAAAAAAAAAAAAAAAAEQI2AAAAAAAAAAAAAAAAACIELABAAAAAAAAAAAAAAAAECFgAwAAAAAAAAAAAAAAACBCwAYAAAAAAAAAAAAAAABAhIANAAAAAAAAAAAAAAAAgAgBGwAAAAAAAAAAAAAAAAARAjYAAAAAAAAAAAAAAAAAIgRsAAAAAAAAAAAAAAAAAEQI2AAAAAAAAAAAAAAAAACIELABAAAAAAAAAAAAAAAAECFgAwAAAAAAAAAAAAAAACBCwAYAAAAAAAAAAAAAAABAhIANAAAAAAAAAAAAAAAAgAgBGwAAAAAAAAAAAAAAAAARAjYAAAAAAAAAAAAAAAAAIgRsAAAAAAAAAAAAAAAAAEQI2AAAAAAAAAAAAAAAAACIELABAAAAAAAAAAAAAAAAECFgAwAAAAAAAAAAAAAAACBCwAYAAAAAAAAAAAAAAABAhIANAAAAAAAAAAAAAAAAgAgBGwAAAAAAAAAAAAAAAAARAjYAAAAAAAAAAAAAAAAAIgRsAAAAAAAAAAAAAAAAAEQI2AAAAAAAAAAAAAAAAACIELABAAAAAAAAAAAAAAAAECFgAwAAAAAAAAAAAAAAACBCwAYAAAAAAAAAAAAAAABAhIANAAAAAAAAAAAAAAAAgAgBGwAAAAAAAAAAAAAAAAARAjYAAAAAAAAAAAAAAAAAIgRsAAAAAAAAAAAAAAAAAEQI2AAAAAAAAAAAAAAAAACIELABAAAAAAAAAAAAAAAAECFgAwAAAAAAAAAAAAAAACBCwAYAAAAAAAAAAAAAAABAhIANAAAAAAAAAAAAAAAAgAgBGwAAAAAAAAAAAAAAAAARAjYAAAAAAAAAAAAAAAAAIgRsAAAAAAAAAAAAAAAAAEQI2AAAAAAAAAAAAAAAAACIELABAAAAAAAAAAAAAAAAECFgAwAAAAAAAAAAAAAAACBCwAYAAAAAAAAAAAAAAABAhIANAAAAAAAAAAAAAAAAgAgBGwAAAAAAAAAAAAAAAAARAjYAAAAAAAAAAAAAAAAAIgRsAAAAAAAAAAAAAAAAAEQI2AAAAAAAAAAAAAAAAACIELABAAAAAAAAAAAAAAAAECFgAwAAAAAAAAAAAAAAACBCwAYAAAAAAAAAAAAAAABAhIANAAAAAAAAAAAAAAAAgAgBGwAAAAAAAAAAAAAAAAARAjYAAAAAAAAAAAAAAAAAIgRsAAAAAAAAAAAAAAAAAEQI2AAAAAAAAAAAAAAAAACIELABAAAAAAAAAAAAAAAAECFgAwAAAAAAAAAAAAAAACBCwAYAAAAAAAAAAAAAAABAhIANAAAAAAAAAAAAAAAAgAgBGwAAAAAAAAAA8D/t2zEBAAAAwiD7pzbFPugBAAAAACQENgAAAAAAAAAAAAAAAAASAhsAAAAAAAAAAAAAAAAACYENAAAAAAAAAAAAAAAAgITABgAAAAAAAAAAAAAAAEBCYAMAAAAAAAAAAAAAAAAgIbABAAAAAAAAAAAAAAAAkBDYAAAAAAAAAAAAAAAAAEgIbAAAAAAAAAAAAAAAAAAkBDYAAAAAAAAAAAAAAAAAEgIbAAAAAAAAAAAAAAAAAAmBDQAAAAAAAAAAAAAAAICEwAYAAAAAAAAAAAAAAABAQmADAAAAAAAAAAAAAAAAICGwAQAAAAAAAAAAAAAAAJAQ2AAAAAAAAAAAAAAAAABICGwAAAAAAAAAAAAAAAAAJAQ2AAAAAAAAAAAAAAAAABICGwAAAAAAAAAAAAAAAACB7VreFWdEUt4vAAAAAElFTkSuQmCC;clipPath=inset(38.21% 29.67% 45.75% 49.67%);movable=0;resizable=0;rotatable=0;deletable=0;editable=0;locked=1;connectable=0;" vertex="1" parent="1">
          <mxGeometry x="160" y="190" width="474.12" height="260" as="geometry" />
        </mxCell>
        <mxCell id="ALjWZbbhzKY--q304IBm-2" value="" style="endArrow=classic;html=1;rounded=0;strokeWidth=3;" edge="1" parent="1">
          <mxGeometry width="50" height="50" relative="1" as="geometry">
            <mxPoint x="414" y="330" as="sourcePoint" />
            <mxPoint x="356" y="159" as="targetPoint" />
          </mxGeometry>
        </mxCell>
        <mxCell id="ALjWZbbhzKY--q304IBm-3" value="" style="endArrow=classic;html=1;rounded=0;strokeWidth=3;" edge="1" parent="1">
          <mxGeometry width="50" height="50" relative="1" as="geometry">
            <mxPoint x="406" y="327" as="sourcePoint" />
            <mxPoint x="618" y="261" as="targetPoint" />
          </mxGeometry>
        </mxCell>
        <mxCell id="ALjWZbbhzKY--q304IBm-10" value="" style="group" vertex="1" connectable="0" parent="1">
          <mxGeometry x="392" y="332" width="15" height="15" as="geometry" />
        </mxCell>
        <mxCell id="ALjWZbbhzKY--q304IBm-8" value="" style="ellipse;whiteSpace=wrap;html=1;aspect=fixed;strokeWidth=3;" vertex="1" parent="ALjWZbbhzKY--q304IBm-10">
          <mxGeometry width="15" height="15" as="geometry" />
        </mxCell>
        <mxCell id="ALjWZbbhzKY--q304IBm-9" value="" style="ellipse;whiteSpace=wrap;html=1;aspect=fixed;fillColor=#330000;" vertex="1" parent="ALjWZbbhzKY--q304IBm-10">
          <mxGeometry x="6.5" y="6.5" width="2" height="2" as="geometry" />
        </mxCell>
        <mxCell id="ALjWZbbhzKY--q304IBm-11" value="$$B_z$$" style="text;html=1;align=center;verticalAlign=middle;whiteSpace=wrap;rounded=0;fontSize=20;" vertex="1" parent="1">
          <mxGeometry x="346" y="148" width="80.75" height="50" as="geometry" />
        </mxCell>
        <mxCell id="ALjWZbbhzKY--q304IBm-12" value="$$B_y$$" style="text;html=1;align=center;verticalAlign=middle;whiteSpace=wrap;rounded=0;strokeWidth=2;fontSize=20;" vertex="1" parent="1">
          <mxGeometry x="570" y="270" width="75.88" height="40" as="geometry" />
        </mxCell>
        <mxCell id="ALjWZbbhzKY--q304IBm-13" value="$$B_x$$" style="text;html=1;align=center;verticalAlign=middle;whiteSpace=wrap;rounded=0;fontSize=20;" vertex="1" parent="1">
          <mxGeometry x="364" y="356" width="80.75" height="40" as="geometry" />
        </mxCell>
      </root>
    </mxGraphModel>
  </diagram>
</mxfile>
